$MeshFormat
4.1 0 8
$EndMeshFormat
$PhysicalNames
6
2 19 "Wall"
2 21 "FresheningPatch"
2 22 "Slope"
2 23 "Bottom"
2 24 "CoolingPatch"
3 23 "ArcticBasin"
$EndPhysicalNames
$Entities
4 6 5 1
1 -0.5999999999999999 -1.469576158976824e-16 -1.2 0 
2 -1 -2.449293598294706e-16 -0.2 0 
3 -1 -2.449293598294706e-16 0 0 
4 -0.6 -1.469576158976824e-16 0 0 
1 -0.6000000999999998 -0.6000000999999998 -1.2000001 0.6000000999999998 0.6000000999999998 -1.1999999 0 2 1 -1 
2 -1.0000001 -1.000000002449294e-07 -1.2000001 -0.5999998999999999 9.999999985304237e-08 -0.1999999 0 2 2 -1 
3 -1.000000100000001 -1.000000100000001 -0.2000001000000008 1.000000100000001 1.000000100000001 -0.1999998999999992 0 2 2 -2 
4 -1.0000001 -1.000000002449294e-07 -0.2000001 -0.9999999000000001 9.999999975507064e-08 1.000000000028756e-07 0 2 3 -2 
5 -1.0000001 -1.0000001 -1e-07 1.0000001 1.0000001 1e-07 0 2 3 -3 
6 -0.6000000999999999 -0.6000000999999999 -1e-07 0.6000000999999999 0.6000000999999999 1e-07 0 2 4 -4 
1 -1.0000001 -1.0000001 -1.2000001 1.0000001 1.0000001 -0.1999999 1 22 4 -1 -2 3 2 
2 -0.6000000999999998 -0.6000000999999998 -1.2000001 0.6000000999999998 0.6000000999999998 -1.1999999 1 23 1 1 
3 -1.0000001 -1.0000001 -0.2000001 1.0000001 1.0000001 1.000000000028756e-07 1 19 4 -3 -4 5 4 
4 -1.0000001 -1.0000001 -1e-07 1.0000001 1.0000001 1e-07 1 21 2 5 -6 
5 -0.6000000999999999 -0.6000000999999999 -1e-07 0.6000000999999999 0.6000000999999999 1e-07 1 24 1 6 
1 -1.0000001 -1.0000001 -1.2000001 1.0000001 1.0000001 9.999999994736442e-08 1 23 5 1 2 3 -4 -5 
$EndEntities
$Nodes
15 225 1 225
0 1 0 1
1
-0.5999999999999999 -1.469576158976824e-16 -1.2
0 2 0 1
2
-1 -2.449293598294706e-16 -0.2
0 3 0 1
3
-1 -2.449293598294706e-16 0
0 4 0 1
4
-0.6 0 0
1 1 0 12
5
6
7
8
9
10
11
12
13
14
15
16
-0.5312736153919261 0.2788339032262606 -1.2
-0.3408388480386944 0.493790319536193 -1.2
-0.07232200815319498 0.5956253244588321 -1.2
0.2127629322255201 0.5610097456112493 -1.2
0.4491064489026592 0.3978735949444786 -1.2
0.5825650904556302 0.1435893985725382 -1.2
0.5825650904556322 -0.14358939857253 -1.2
0.4491064489026646 -0.3978735949444725 -1.2
0.2127629322255265 -0.5610097456112468 -1.2
-0.07232200815318968 -0.5956253244588328 -1.2
-0.3408388480386911 -0.4937903195361953 -1.2
-0.5312736153919252 -0.2788339032262624 -1.2
1 2 0 3
17
18
19
-0.9 -2.204364238465236e-16 -0.4499999999999998
-0.8 -1.959434878635765e-16 -0.7
-0.7 -1.714505518806295e-16 -0.95
1 3 0 20
20
21
22
23
24
25
26
27
28
29
30
31
32
33
34
35
36
37
38
39
-0.9555728057861407 0.2947551744109044 -0.2
-0.8262387743159946 0.5633200580636224 -0.2
-0.6234898018587332 0.7818314824680301 -0.2
-0.3653410243663946 0.9308737486442045 -0.2
-0.07473009358642373 0.9972037971811802 -0.2
0.2225209339563148 0.9749279121818235 -0.2
0.5000000000000002 0.8660254037844386 -0.2
0.7330518718298267 0.680172737770919 -0.2
0.9009688679024193 0.4338837391175578 -0.2
0.9888308262251286 0.1490422661761738 -0.2
0.9888308262251285 -0.1490422661761745 -0.2
0.900968867902419 -0.4338837391175584 -0.2
0.7330518718298262 -0.6801727377709195 -0.2
0.4999999999999996 -0.8660254037844388 -0.2
0.2225209339563146 -0.9749279121818236 -0.2
-0.07473009358642436 -0.9972037971811801 -0.2
-0.3653410243663954 -0.9308737486442041 -0.2
-0.6234898018587334 -0.7818314824680299 -0.2
-0.8262387743159945 -0.5633200580636227 -0.2
-0.9555728057861408 -0.2947551744109039 -0.2
1 5 0 20
40
41
42
43
44
45
46
47
48
49
50
51
52
53
54
55
56
57
58
59
-0.9555728057861407 0.2947551744109044 0
-0.8262387743159946 0.5633200580636224 0
-0.6234898018587332 0.7818314824680301 0
-0.3653410243663946 0.9308737486442045 0
-0.07473009358642373 0.9972037971811802 0
0.2225209339563148 0.9749279121818235 0
0.5000000000000002 0.8660254037844386 0
0.7330518718298267 0.680172737770919 0
0.9009688679024193 0.4338837391175578 0
0.9888308262251286 0.1490422661761738 0
0.9888308262251285 -0.1490422661761745 0
0.900968867902419 -0.4338837391175584 0
0.7330518718298262 -0.6801727377709195 0
0.4999999999999996 -0.8660254037844388 0
0.2225209339563146 -0.9749279121818236 0
-0.07473009358642436 -0.9972037971811801 0
-0.3653410243663954 -0.9308737486442041 0
-0.6234898018587334 -0.7818314824680299 0
-0.8262387743159945 -0.5633200580636227 0
-0.9555728057861408 -0.2947551744109039 0
1 6 0 12
60
61
62
63
64
65
66
67
68
69
70
71
-0.5312736153919261 0.2788339032262607 0
-0.3408388480386941 0.4937903195361933 0
-0.07232200815319539 0.5956253244588322 0
0.2127629322255189 0.5610097456112498 0
0.4491064489026582 0.3978735949444799 0
0.5825650904556301 0.1435893985725392 0
0.5825650904556325 -0.1435893985725293 0
0.4491064489026652 -0.397873594944472 0
0.2127629322255275 -0.5610097456112465 0
-0.07232200815318864 -0.595625324458833 0
-0.3408388480386907 -0.4937903195361957 0
-0.5312736153919253 -0.2788339032262624 0
2 1 0 58
72
73
74
75
76
77
78
79
80
81
82
83
84
85
86
87
88
89
90
91
92
93
94
95
96
97
98
99
100
101
102
103
104
105
106
107
108
109
110
111
112
113
114
115
116
117
118
119
120
121
122
123
124
125
126
127
128
129
0.7005714597761111 -0.02807530347798032 -0.9471655224354967
-0.5306897052085194 0.4566121995343585 -0.9497745431339599
-0.5306897052074913 -0.4566121995347909 -0.9497745431352036
0.08314206942294054 0.6847365461882808 -0.975585712854607
0.08314206942294729 -0.6847365461882803 -0.9755857128546062
0.7403446694524725 -0.5124221605128226 -0.4490464518185305
0.7458149775786621 0.5084880418764404 -0.443343084461003
-0.1478336867307142 -0.8786568593780717 -0.472483620340061
-0.2294965300276674 -0.6719615268272731 -0.9248222785612776
-0.1503330786667204 0.8799477323313991 -0.4682573426571642
-0.2297784384521354 0.6728818910370933 -0.9224170728501222
0.3127763280085484 0.8509980791131398 -0.4333577118114157
0.361479783742631 0.5983595409981978 -0.95231979763496
0.3297797396666137 -0.8402650729486695 -0.4433430844609811
0.3816817844852036 -0.597952849305974 -0.9265348280115875
-0.6584011282804912 0.615711574806086 -0.4464017812185133
-0.6584011282800853 -0.6157115748062106 -0.4464017812190416
0.8966333545952521 -0.006825027454248565 -0.4583516757019984
0.6259768482699363 -0.3360717736143655 -0.9237834246806571
0.5787108546708771 0.4037806013122705 -0.9358695000971515
-0.8224976591765423 0.2312954834170072 -0.5639990636706196
-0.8209671349916625 -0.2228644261484104 -0.5733012831225969
0.7654867953735166 -0.1794688358356317 -0.7343908435814785
-0.4798306145522885 -0.6466712340990384 -0.6868850261460473
-0.4466212975315426 0.6507121323254026 -0.7269046168452871
0.5428118539532129 0.5881418156058079 -0.699132213175649
0.5853943149710645 -0.5395648301944099 -0.7096848396812185
-0.04430845996429861 0.7857634257392239 -0.7324707739561902
-0.04942750911969926 -0.7832337106401189 -0.7380205720037678
0.7936349343410617 0.1107941586229556 -0.6966719025089931
-0.672799221837536 -0.4512224330698534 -0.6747523654336238
-0.6708736633803196 0.4525869214207712 -0.6768428236132058
0.2785181991773336 0.7442127452435873 -0.7134436242331599
0.2341533402213911 -0.7375350148539528 -0.7654689119962836
-0.7212282248411153 -0.2310001301782853 -0.8067039117423898
-0.7213049993602609 0.2326600265562288 -0.8052513523239238
0.7183678904320179 0.360618176072835 -0.6904946272187932
0.8492437251366879 -0.2671374643239728 -0.4743296943259431
-0.4416072200149739 -0.7754492272833222 -0.4690550756690912
-0.4357209927163043 0.7832103143424305 -0.4593650732632023
0.8568780194645548 0.2656041264911526 -0.457254065533411
0.5617459841316758 0.7189957513064875 -0.4189456370396861
0.5675825699509334 -0.705527232523281 -0.4362660139383839
0.07971059293335596 0.9205428799123849 -0.3900311522890958
0.08768678574726209 -0.9183924991613353 -0.3935772355895896
-0.8183111841116076 0.4149624038413816 -0.4062217431659295
-0.8203435614309814 -0.4097928666910567 -0.4074935218573802
0.3983617770481175 -0.7195209931256654 -0.6439075820845901
-0.6406842378883219 -0.2047468839692187 -1.018487326888293
-0.6374406170550689 0.2063649044254154 -1.024968257670064
-0.2636880323971862 0.7785282944606191 -0.6450704335287121
-0.2614346898228303 -0.7709882312091708 -0.664731360320883
0.694086226992229 0.2014925627655215 -0.8931468250191761
0.7263691556303947 -0.3775264412897876 -0.653450519587689
-0.9081526936611424 0.1960569799516992 -0.3773134434563581
-0.9071252768691881 -0.1928808660276538 -0.3814884941861691
0.1307961304306762 -0.8325525203415602 -0.5930897520558651
0.1074977508041211 0.84385156320369 -0.5733223869888386
2 2 0 15
130
131
132
133
134
135
136
137
138
139
140
141
142
143
144
0.3517331181455033 -0.004902835889994937 -1.2
-0.3241595640656496 0.07989815663227857 -1.2
0.04225415909167271 0.3345171228499143 -1.2
0.04024249138745579 -0.3314267344306999 -1.2
-0.2498985144844427 -0.2213907650895486 -1.2
0.2460133286146801 -0.356411837576133 -1.2
0.1744857852339059 -0.1472413354660288 -1.2
0.1035864848686639 0.09176961769990054 -1.2
-0.06136133797565172 -0.06091929136869158 -1.2
0.2912847408180194 0.2279597807480833 -1.2
-0.08180854849921866 0.1626257123905747 -1.2
-0.2180247375095018 0.3242150898490088 -1.2
0.3834668239252014 -0.2012589147570605 -1.2
-0.1557042198222169 -0.4105582858788191 -1.2
-0.4263329234855043 -0.1050816279208831 -1.2
2 3 0 21
145
146
147
148
149
150
151
152
153
154
155
156
157
158
159
160
161
162
163
164
165
-0.9009688679024187 -0.4338837391175591 -0.1
-0.9888308262251285 0.1490422661761744 -0.1006257097776941
0.07473009358642384 -0.9972037971811801 -0.1
-0.222520933956314 0.9749279121818237 -0.1
0.6234898018587338 0.7818314824680296 -0.1
0.9555728057861407 -0.2947551744109044 -0.1
0.6234898018587336 -0.7818314824680297 -0.1
-0.2225209339563151 -0.9749279121818234 -0.1
0.9555728057861409 0.2947551744109038 -0.1
-0.9009688679024189 0.4338837391175585 -0.1
-0.733051871829826 0.6801727377709198 -0.1
-0.4999999999999995 0.8660254037844389 -0.1
0.8262387743159946 -0.5633200580636224 -0.1
0.07473009358642449 0.9972037971811801 -0.1
0.3653410243663951 0.9308737486442042 -0.1
0.826238774315995 0.5633200580636218 -0.1
0.3653410243663957 -0.930873748644204 -0.1
-0.5000000000000001 -0.8660254037844386 -0.1
-0.733051871829826 -0.6801727377709198 -0.1
-0.9888308262251286 -0.1490422661761735 -0.1
1 -3.216245299353273e-16 -0.1
2 4 0 13
166
167
168
169
170
171
172
173
174
175
176
177
178
0.7686413090823896 5.093762532616511e-15 0
-0.5776761031636035 -0.5143354271398893 0
-0.5776761031636056 0.5143354271398864 0
0.08714157646043059 0.7621539940471738 0
0.08714157646043892 -0.7621539940471705 0
0.4291014649479014 -0.6435394799784652 0
0.4291014649478926 0.6435394799784699 0
-0.7475382413100236 0.1907964678081903 0
-0.747548088150189 -0.1905506585749088 0
0.6893431718729579 0.3517376172690636 0
0.6893431718729611 -0.3517376172690569 0
-0.2718784725442923 0.7168846148330698 0
-0.2718784725442855 -0.716884614833072 0
2 5 0 15
179
180
181
182
183
184
185
186
187
188
189
190
191
192
193
0.3517331181455032 -0.004902835889994364 0
-0.3241595640656495 0.07989815663227855 0
0.02804385046162343 0.324222216599092 0
0.04024249138745634 -0.3314267344306999 0
-0.2498985144844423 -0.2213907650895486 0
0.2460133286146807 -0.3564118375761325 0
0.1744857852339061 -0.1472413354660286 0
0.1035864848686632 0.09176961769990086 0
-0.06136133797565171 -0.06091929136869132 0
0.2912847408180188 0.227959780748084 0
-0.1089487232451589 0.1499320000407356 0
-0.2249164847388334 0.3203836534155654 0
0.3834668239252016 -0.20125891475706 0
-0.4263329234855042 -0.1050816279208831 0
-0.1557042198222163 -0.4105582858788193 0
3 1 0 32
194
195
196
197
198
199
200
201
202
203
204
205
206
207
208
209
210
211
212
213
214
215
216
217
218
219
220
221
222
223
224
225
-0.01951972211161054 0.05931969833755482 -0.5993099562369066
0.2636437740979565 -0.2335680025111739 -0.4252688853344021
-0.1859984384926725 -0.3558629351743816 -0.4633285989740925
-0.4367101355006729 0.01762002839671864 -0.4336618628973928
0.2943106067732907 -0.1149253933832305 -0.8128834223682344
0.3832325478399481 0.1693079009066657 -0.5056712337899334
-0.3301846378010834 -0.0598014172937975 -0.8169103573716474
0.06010704889738324 0.4433102094274869 -0.4152705582505969
-0.03804455463032683 -0.3155354400998225 -0.8200341046841959
0.1013781843632422 -0.5541324940373562 -0.3497686890418482
-0.3090477333585152 0.4348126035806116 -0.3290680355263519
0.2085821522940963 0.2536833747407906 -0.8311452007128697
-0.1553626415995145 0.2388295475274627 -0.8668095397434449
-0.1415598738947983 0.03177624967079375 -0.3001790572806691
-0.5013679747884711 -0.3052892433046107 -0.3400338352728317
0.5714370019220131 -0.08198769706290238 -0.3464258626782952
0.1741667714083814 0.04433492743286511 -0.3043464729650394
0.1817830681605355 -0.4525716111061636 -0.638406859897129
-0.4097170543147156 0.2542684062088944 -0.6597052712968381
0.4002573489619272 -0.482571398353826 -0.2962356770426992
0.01194566809533765 -0.0198727121702645 -0.8969056498298732
-0.2066217390419569 -0.5448167500098973 -0.2484028903558771
-0.1683848048094078 0.4700518297548931 -0.6418258937348101
0.005878419028391202 -0.2258624161740325 -0.2763325422051469
-0.4259148514862922 -0.280522739151082 -0.6325485918095922
0.3828589802615964 0.4515002401890618 -0.3243921015089729
-0.7237221883297966 -0.04571354360150343 -0.2819954515644048
0.4942471915127733 -0.1973971503440023 -0.6091306573338158
-0.5950168940798668 0.2389153462725709 -0.2956664904504001
0.2766129120875813 -0.7062253894440153 -0.2158758002887432
0.600906176433366 0.2184933202703874 -0.2961978038378255
0.02726655841960987 -0.2130928642640319 -0.5700463077858624
$EndNodes
$Elements
6 1088 1 1088
2 1 2 156
1 1 121 5 
2 16 120 1 
3 1 120 19 
4 19 121 1 
5 2 126 17 
6 17 127 2 
7 20 126 2 
8 2 127 39 
9 5 73 6 
10 5 121 73 
11 6 82 7 
12 73 82 6 
13 7 75 8 
14 7 82 75 
15 8 84 9 
16 75 84 8 
17 9 91 10 
18 84 91 9 
19 10 72 11 
20 10 124 72 
21 91 124 10 
22 11 90 12 
23 72 90 11 
24 12 86 13 
25 12 90 86 
26 13 76 14 
27 13 86 76 
28 14 80 15 
29 76 80 14 
30 15 74 16 
31 15 80 74 
32 74 120 16 
33 17 92 18 
34 18 93 17 
35 17 126 92 
36 93 127 17 
37 19 106 18 
38 18 107 19 
39 92 107 18 
40 18 106 93 
41 19 120 106 
42 107 121 19 
43 21 117 20 
44 117 126 20 
45 22 87 21 
46 87 117 21 
47 23 111 22 
48 22 111 87 
49 24 81 23 
50 81 111 23 
51 25 115 24 
52 24 115 81 
53 26 83 25 
54 83 115 25 
55 27 113 26 
56 26 113 83 
57 28 78 27 
58 78 113 27 
59 29 112 28 
60 28 112 78 
61 30 89 29 
62 89 112 29 
63 31 109 30 
64 30 109 89 
65 32 77 31 
66 77 109 31 
67 33 114 32 
68 32 114 77 
69 34 85 33 
70 85 114 33 
71 35 116 34 
72 34 116 85 
73 36 79 35 
74 79 116 35 
75 37 110 36 
76 36 110 79 
77 38 88 37 
78 88 110 37 
79 39 118 38 
80 38 118 88 
81 39 127 118 
82 72 94 90 
83 72 101 94 
84 72 124 101 
85 73 96 82 
86 73 103 96 
87 73 107 103 
88 73 121 107 
89 80 95 74 
90 95 102 74 
91 102 106 74 
92 106 120 74 
93 82 99 75 
94 75 104 84 
95 99 104 75 
96 76 100 80 
97 86 105 76 
98 76 105 100 
99 77 114 98 
100 98 125 77 
101 77 125 109 
102 78 108 97 
103 97 113 78 
104 78 112 108 
105 79 123 100 
106 100 128 79 
107 110 123 79 
108 79 128 116 
109 80 123 95 
110 100 123 80 
111 99 122 81 
112 81 129 99 
113 81 122 111 
114 115 129 81 
115 96 122 82 
116 82 122 99 
117 83 113 104 
118 104 129 83 
119 83 129 115 
120 84 97 91 
121 84 104 97 
122 85 119 114 
123 116 128 85 
124 85 128 119 
125 90 98 86 
126 98 119 86 
127 86 119 105 
128 96 103 87 
129 87 111 96 
130 103 117 87 
131 88 102 95 
132 95 110 88 
133 88 118 102 
134 94 101 89 
135 89 109 94 
136 101 112 89 
137 94 125 90 
138 90 125 98 
139 97 108 91 
140 108 124 91 
141 103 107 92 
142 92 117 103 
143 92 126 117 
144 93 106 102 
145 102 118 93 
146 118 127 93 
147 109 125 94 
148 95 123 110 
149 111 122 96 
150 104 113 97 
151 114 119 98 
152 99 129 104 
153 105 128 100 
154 108 112 101 
155 101 124 108 
156 119 128 105 
2 2 2 41
157 5 131 1 
158 1 144 16 
159 131 144 1 
160 6 141 5 
161 5 141 131 
162 7 141 6 
163 8 132 7 
164 132 141 7 
165 9 139 8 
166 8 139 132 
167 10 139 9 
168 11 130 10 
169 130 139 10 
170 12 142 11 
171 11 142 130 
172 13 135 12 
173 135 142 12 
174 14 133 13 
175 133 135 13 
176 15 143 14 
177 14 143 133 
178 16 134 15 
179 134 143 15 
180 16 144 134 
181 136 137 130 
182 130 142 136 
183 137 139 130 
184 131 138 134 
185 134 144 131 
186 131 140 138 
187 131 141 140 
188 132 139 137 
189 137 140 132 
190 140 141 132 
191 134 138 133 
192 133 143 134 
193 133 136 135 
194 133 138 136 
195 136 142 135 
196 136 138 137 
197 138 140 137 
2 3 2 84
198 3 146 2 
199 2 164 3 
200 2 146 20 
201 39 164 2 
202 40 146 3 
203 3 164 59 
204 20 154 21 
205 20 146 40 
206 40 154 20 
207 21 155 22 
208 21 154 41 
209 41 155 21 
210 22 156 23 
211 22 155 42 
212 42 156 22 
213 23 148 24 
214 43 148 23 
215 23 156 43 
216 24 158 25 
217 24 148 44 
218 44 158 24 
219 25 159 26 
220 25 158 45 
221 45 159 25 
222 26 149 27 
223 46 149 26 
224 26 159 46 
225 27 160 28 
226 27 149 47 
227 47 160 27 
228 28 153 29 
229 48 153 28 
230 28 160 48 
231 29 165 30 
232 29 153 49 
233 49 165 29 
234 30 150 31 
235 50 150 30 
236 30 165 50 
237 31 157 32 
238 31 150 51 
239 51 157 31 
240 32 151 33 
241 52 151 32 
242 32 157 52 
243 33 161 34 
244 33 151 53 
245 53 161 33 
246 34 147 35 
247 54 147 34 
248 34 161 54 
249 35 152 36 
250 35 147 55 
251 55 152 35 
252 36 162 37 
253 36 152 56 
254 56 162 36 
255 37 163 38 
256 37 162 57 
257 57 163 37 
258 38 145 39 
259 58 145 38 
260 38 163 58 
261 39 145 59 
262 59 164 39 
263 41 154 40 
264 42 155 41 
265 43 156 42 
266 44 148 43 
267 45 158 44 
268 46 159 45 
269 47 149 46 
270 48 160 47 
271 49 153 48 
272 50 165 49 
273 51 150 50 
274 52 157 51 
275 53 151 52 
276 54 161 53 
277 55 147 54 
278 56 152 55 
279 57 162 56 
280 58 163 57 
281 59 145 58 
2 4 2 60
282 40 3 173 
283 3 59 174 
284 173 3 174 
285 4 60 173 
286 71 4 174 
287 4 173 174 
288 41 40 173 
289 42 41 168 
290 168 41 173 
291 43 42 177 
292 42 168 177 
293 44 43 177 
294 45 44 169 
295 169 44 177 
296 46 45 172 
297 45 169 172 
298 47 46 172 
299 48 47 175 
300 47 172 175 
301 49 48 175 
302 50 49 166 
303 166 49 175 
304 51 50 176 
305 50 166 176 
306 52 51 176 
307 53 52 171 
308 171 52 176 
309 54 53 171 
310 55 54 170 
311 170 54 171 
312 56 55 178 
313 55 170 178 
314 57 56 178 
315 58 57 167 
316 167 57 178 
317 59 58 174 
318 58 167 174 
319 60 61 168 
320 60 168 173 
321 61 62 177 
322 168 61 177 
323 62 63 169 
324 62 169 177 
325 63 64 172 
326 169 63 172 
327 64 65 175 
328 172 64 175 
329 65 66 166 
330 65 166 175 
331 66 67 176 
332 166 66 176 
333 67 68 171 
334 67 171 176 
335 68 69 170 
336 68 170 171 
337 69 70 178 
338 170 69 178 
339 70 71 167 
340 70 167 178 
341 167 71 174 
2 5 2 41
342 60 4 180 
343 4 71 192 
344 180 4 192 
345 61 60 190 
346 60 180 190 
347 62 61 190 
348 63 62 181 
349 181 62 190 
350 64 63 188 
351 63 181 188 
352 65 64 188 
353 66 65 179 
354 179 65 188 
355 67 66 191 
356 66 179 191 
357 68 67 184 
358 184 67 191 
359 69 68 182 
360 182 68 184 
361 70 69 193 
362 69 182 193 
363 71 70 183 
364 183 70 193 
365 71 183 192 
366 185 179 186 
367 179 185 191 
368 186 179 188 
369 180 183 187 
370 183 180 192 
371 180 187 189 
372 180 189 190 
373 181 186 188 
374 186 181 189 
375 189 181 190 
376 183 182 187 
377 182 183 193 
378 182 184 185 
379 182 185 187 
380 185 184 191 
381 185 186 187 
382 187 186 189 
3 1 4 706
383 142 135 12 198 
384 135 198 136 202 
385 197 207 192 208 
386 86 198 135 202 
387 199 205 201 219 
388 196 197 194 218 
389 62 81 201 204 
390 197 200 194 218 
391 62 81 115 201 
392 100 196 123 203 
393 124 130 198 205 
394 194 197 196 207 
395 100 196 203 211 
396 196 218 194 225 
397 201 205 97 219 
398 183 192 207 208 
399 185 191 184 195 
400 194 218 200 225 
401 124 199 198 221 
402 169 115 83 201 
403 100 202 196 211 
404 136 135 142 198 
405 18 200 197 218 
406 199 97 205 219 
407 197 200 18 212 
408 190 181 189 207 
409 181 204 201 207 
410 120 134 144 200 
411 135 136 133 202 
412 195 198 194 199 
413 198 199 124 205 
414 194 207 196 225 
415 124 130 72 198 
416 185 191 195 210 
417 134 74 143 202 
418 80 196 202 218 
419 169 62 115 201 
420 38 145 71 208 
421 196 183 207 208 
422 191 209 195 210 
423 195 194 198 225 
424 181 207 201 210 
425 198 202 86 211 
426 101 199 124 221 
427 191 184 195 213 
428 179 209 191 210 
429 196 207 183 217 
430 62 81 24 115 
431 195 203 184 217 
432 201 204 194 207 
433 62 177 81 204 
434 123 196 79 203 
435 190 204 181 207 
436 4 197 192 220 
437 124 198 72 221 
438 76 86 135 202 
439 194 197 207 212 
440 184 203 195 213 
441 76 135 133 202 
442 196 207 197 208 
443 83 63 201 219 
444 134 144 16 120 
445 195 199 194 210 
446 191 195 209 213 
447 189 207 181 210 
448 111 61 22 204 
449 81 201 204 216 
450 93 18 197 218 
451 144 131 1 200 
452 104 97 201 205 
453 194 207 204 212 
454 104 205 201 216 
455 200 206 121 212 
456 194 201 199 205 
457 86 198 211 221 
458 134 200 74 202 
459 191 209 67 213 
460 150 30 31 209 
461 185 179 191 210 
462 63 169 83 201 
463 135 86 12 198 
464 186 189 181 210 
465 201 205 194 216 
466 121 200 131 206 
467 191 66 67 209 
468 184 185 195 217 
469 180 192 197 207 
470 19 107 18 200 
471 80 95 123 196 
472 136 202 198 214 
473 130 142 11 198 
474 197 208 192 220 
475 4 180 192 197 
476 35 203 116 215 
477 201 207 194 210 
478 80 95 196 218 
479 194 204 201 216 
480 204 207 197 212 
481 74 202 200 218 
482 197 204 180 207 
483 100 123 79 203 
484 199 201 194 210 
485 169 62 24 115 
486 115 129 83 201 
487 18 92 197 212 
488 194 200 197 212 
489 79 203 196 215 
490 75 206 205 216 
491 10 130 124 205 
492 107 18 200 212 
493 137 130 205 214 
494 142 12 90 198 
495 101 124 72 221 
496 143 74 80 202 
497 88 208 37 215 
498 104 201 97 219 
499 18 106 200 218 
500 188 181 201 210 
501 198 205 130 214 
502 75 132 205 206 
503 169 25 83 115 
504 121 19 1 200 
505 95 208 196 218 
506 93 197 18 220 
507 195 213 211 221 
508 198 199 195 221 
509 200 218 202 225 
510 123 79 196 215 
511 180 204 197 222 
512 194 212 204 216 
513 148 23 24 177 
514 145 174 71 208 
515 211 213 98 221 
516 75 205 104 216 
517 194 199 198 205 
518 10 139 130 205 
519 93 197 208 218 
520 188 210 201 219 
521 93 208 197 220 
522 179 209 210 224 
523 86 211 98 221 
524 167 145 71 38 
525 202 218 196 225 
526 136 198 130 214 
527 31 176 150 209 
528 140 137 132 206 
529 101 209 199 221 
530 81 129 115 201 
531 77 213 209 221 
532 136 130 137 214 
533 121 131 5 206 
534 35 170 116 203 
535 19 18 106 200 
536 4 197 220 222 
537 121 107 19 200 
538 134 200 202 214 
539 168 22 61 204 
540 195 210 194 225 
541 121 1 131 200 
542 205 206 194 216 
543 176 209 77 213 
544 75 7 132 206 
545 81 204 111 216 
546 81 111 122 216 
547 135 133 13 76 
548 100 203 128 211 
549 183 208 196 215 
550 90 198 86 221 
551 123 196 110 215 
552 194 200 214 225 
553 15 143 134 74 
554 137 206 140 214 
555 27 160 175 224 
556 136 142 130 198 
557 133 143 14 202 
558 109 77 31 209 
559 124 10 72 130 
560 62 61 177 204 
561 97 91 108 199 
562 129 201 81 216 
563 167 37 208 215 
564 107 200 121 212 
565 180 197 4 222 
566 182 184 203 217 
567 116 203 79 215 
568 76 86 202 211 
569 183 193 215 217 
570 188 201 181 219 
571 92 220 197 222 
572 202 214 200 225 
573 90 11 142 198 
574 199 219 210 224 
575 152 35 36 215 
576 116 203 170 223 
577 93 18 17 220 
578 80 202 74 218 
579 24 81 62 177 
580 199 209 101 224 
581 91 199 97 205 
582 108 91 124 199 
583 35 170 203 215 
584 76 13 135 86 
585 36 37 162 215 
586 108 97 199 219 
587 188 179 210 224 
588 185 210 195 217 
589 92 197 212 222 
590 91 124 199 205 
591 134 120 74 200 
592 39 208 118 220 
593 78 199 108 224 
594 183 215 196 217 
595 108 199 101 224 
596 119 98 211 213 
597 191 67 184 213 
598 75 104 99 216 
599 76 202 100 211 
600 123 95 110 196 
601 63 169 25 83 
602 143 15 80 74 
603 101 108 124 199 
604 108 199 78 219 
605 137 205 132 206 
606 87 111 22 204 
607 35 116 79 215 
608 133 202 136 214 
609 98 213 77 221 
610 201 210 199 219 
611 30 66 150 166 
612 131 200 138 214 
613 93 106 18 218 
614 110 88 37 215 
615 119 211 203 213 
616 130 11 72 198 
617 131 206 200 214 
618 77 176 31 209 
619 197 196 208 218 
620 134 131 144 200 
621 18 107 92 212 
622 152 178 35 215 
623 180 204 190 207 
624 62 190 61 204 
625 137 205 206 214 
626 73 121 206 212 
627 5 131 141 206 
628 143 133 134 202 
629 140 206 131 214 
630 134 138 200 214 
631 103 212 204 222 
632 121 5 73 206 
633 68 203 184 213 
634 188 210 219 224 
635 140 131 138 214 
636 194 206 200 212 
637 137 130 139 205 
638 90 86 98 221 
639 143 80 14 202 
640 181 201 63 219 
641 141 132 7 206 
642 160 28 175 224 
643 209 213 195 221 
644 88 208 95 218 
645 180 60 204 222 
646 196 211 202 225 
647 199 210 209 224 
648 78 219 199 224 
649 169 63 62 201 
650 99 129 81 216 
651 167 208 70 215 
652 75 82 206 216 
653 12 86 90 198 
654 194 206 212 216 
655 168 87 22 204 
656 156 168 22 61 
657 176 67 209 213 
658 134 202 138 214 
659 79 128 100 203 
660 195 198 211 225 
661 182 184 68 203 
662 120 16 134 74 
663 69 203 170 215 
664 207 217 196 225 
665 85 119 203 213 
666 75 132 8 205 
667 195 211 198 221 
668 180 183 192 207 
669 112 108 101 224 
670 192 208 71 220 
671 176 67 66 209 
672 87 204 168 222 
673 172 83 26 219 
674 138 131 134 200 
675 83 201 104 219 
676 129 104 83 201 
677 27 219 78 224 
678 109 31 30 209 
679 194 210 207 225 
680 194 205 198 214 
681 192 183 71 208 
682 196 203 211 225 
683 70 208 183 215 
684 35 69 170 215 
685 85 213 203 223 
686 75 82 7 206 
687 180 60 190 204 
688 77 209 109 221 
689 108 78 97 219 
690 179 66 191 209 
691 38 71 167 208 
692 195 209 199 210 
693 168 154 21 222 
694 63 83 172 219 
695 125 98 77 221 
696 189 180 190 207 
697 210 217 207 225 
698 29 166 153 224 
699 63 181 62 201 
700 92 212 103 222 
701 96 204 103 212 
702 167 70 37 215 
703 174 208 39 220 
704 193 182 215 217 
705 179 65 209 224 
706 106 120 200 218 
707 199 209 195 221 
708 32 176 77 213 
709 87 103 204 222 
710 134 133 138 202 
711 70 183 193 215 
712 69 193 182 215 
713 5 141 73 206 
714 119 128 203 211 
715 74 200 120 218 
716 188 186 181 210 
717 202 211 198 225 
718 133 14 76 202 
719 133 138 202 214 
720 195 203 217 225 
721 198 194 214 225 
722 196 217 203 225 
723 70 71 183 208 
724 73 212 206 216 
725 75 84 104 205 
726 101 94 209 221 
727 195 211 203 225 
728 84 97 104 205 
729 203 215 182 217 
730 127 39 118 220 
731 30 66 166 209 
732 89 101 209 224 
733 175 219 27 224 
734 162 178 36 215 
735 88 102 208 218 
736 80 74 95 218 
737 153 28 29 224 
738 81 24 23 177 
739 90 72 11 198 
740 82 141 7 206 
741 175 64 27 219 
742 85 119 128 203 
743 178 69 35 215 
744 101 72 94 221 
745 152 36 178 215 
746 75 8 84 205 
747 77 109 125 221 
748 76 100 105 211 
749 188 181 63 219 
750 69 182 203 215 
751 188 65 179 224 
752 204 212 96 216 
753 89 209 166 224 
754 72 198 90 221 
755 133 136 138 214 
756 69 182 68 203 
757 8 132 139 205 
758 111 204 96 216 
759 106 120 19 200 
760 100 76 80 202 
761 119 114 98 213 
762 203 211 195 213 
763 61 60 168 204 
764 87 168 21 222 
765 87 103 96 204 
766 66 179 65 209 
767 89 166 29 224 
768 93 208 102 218 
769 187 210 185 217 
770 168 204 60 222 
771 198 214 202 225 
772 168 156 177 61 
773 194 200 206 214 
774 89 112 101 224 
775 123 110 79 215 
776 186 185 187 210 
777 68 203 213 223 
778 80 76 14 202 
779 77 98 114 213 
780 85 203 116 223 
781 190 60 61 204 
782 88 95 102 218 
783 73 206 82 216 
784 32 67 176 213 
785 66 176 150 166 
786 184 182 185 217 
787 88 118 38 208 
788 36 110 37 215 
789 34 116 170 223 
790 4 192 71 220 
791 8 139 84 205 
792 187 207 210 217 
793 122 99 81 216 
794 117 92 103 222 
795 177 24 148 169 
796 32 151 171 213 
797 27 64 172 219 
798 171 151 33 213 
799 178 152 35 170 
800 204 212 197 222 
801 195 217 210 225 
802 180 4 60 222 
803 116 128 79 203 
804 84 91 97 205 
805 187 183 207 217 
806 87 96 111 204 
807 101 94 89 209 
808 141 82 6 206 
809 79 36 35 215 
810 47 160 175 27 
811 196 215 203 217 
812 111 96 122 216 
813 32 52 157 176 
814 9 84 139 205 
815 87 117 103 222 
816 30 166 89 209 
817 175 64 219 224 
818 173 20 154 222 
819 87 21 117 222 
820 137 139 132 205 
821 102 93 118 208 
822 67 32 171 213 
823 96 212 73 216 
824 194 206 205 214 
825 141 6 73 206 
826 100 128 105 211 
827 188 219 64 224 
828 106 74 120 218 
829 174 164 2 220 
830 33 213 114 223 
831 6 82 73 206 
832 170 203 68 223 
833 76 105 86 211 
834 145 71 174 167 
835 186 179 185 210 
836 71 208 174 220 
837 9 91 84 205 
838 75 99 82 216 
839 78 108 112 224 
840 180 187 183 207 
841 85 114 119 213 
842 113 26 83 219 
843 85 128 116 203 
844 44 148 24 169 
845 71 70 167 208 
846 94 109 209 221 
847 28 153 175 224 
848 152 55 35 170 
849 183 182 193 217 
850 9 139 91 205 
851 69 68 170 203 
852 164 2 3 174 
853 140 132 141 206 
854 33 171 213 223 
855 84 8 9 139 
856 102 118 88 208 
857 83 104 113 219 
858 65 188 64 224 
859 68 184 67 213 
860 164 174 39 220 
861 107 103 92 212 
862 73 82 96 216 
863 119 105 128 211 
864 69 178 35 170 
865 140 141 131 206 
866 114 32 77 213 
867 114 213 85 223 
868 65 166 209 224 
869 109 30 89 209 
870 89 29 112 224 
871 36 79 110 215 
872 28 112 29 224 
873 73 107 121 212 
874 119 98 86 211 
875 189 187 180 207 
876 137 138 136 214 
877 66 65 166 209 
878 63 64 188 219 
879 17 126 2 220 
880 72 90 94 221 
881 177 62 24 169 
882 104 97 113 219 
883 89 94 109 209 
884 33 34 161 223 
885 93 17 127 220 
886 16 15 134 74 
887 7 6 141 82 
888 93 102 106 218 
889 186 188 179 210 
890 55 152 178 170 
891 177 148 44 169 
892 173 4 174 220 
893 138 137 140 214 
894 72 10 11 130 
895 133 14 13 76 
896 47 172 149 27 
897 151 32 171 52 
898 27 172 113 219 
899 175 172 27 64 
900 171 176 32 67 
901 139 10 9 91 
902 27 113 78 219 
903 105 119 86 211 
904 42 168 22 156 
905 75 7 8 132 
906 167 57 37 162 
907 187 182 183 217 
908 73 5 6 141 
909 33 114 85 223 
910 4 220 173 222 
911 126 117 20 222 
912 113 172 26 219 
913 125 90 98 221 
914 161 34 54 223 
915 78 112 28 224 
916 121 1 5 131 
917 113 97 78 219 
918 96 103 73 212 
919 42 168 156 177 
920 167 57 162 178 
921 161 53 171 54 
922 46 172 45 159 
923 175 172 47 27 
924 171 176 52 32 
925 2 127 17 220 
926 74 102 95 218 
927 187 185 182 217 
928 85 116 34 223 
929 59 145 174 58 
930 41 173 40 154 
931 49 166 153 29 
932 74 106 102 218 
933 13 12 135 86 
934 71 174 4 220 
935 50 30 150 166 
936 107 73 103 212 
937 33 85 34 223 
938 11 12 90 142 
939 94 125 109 221 
940 162 57 56 178 
941 156 43 42 177 
942 14 15 80 143 
943 68 213 171 223 
944 92 117 126 222 
945 33 161 171 223 
946 43 148 44 177 
947 55 152 56 178 
948 50 150 176 166 
949 153 166 49 175 
950 49 48 153 175 
951 51 150 176 50 
952 24 44 169 158 
953 4 173 60 222 
954 172 169 45 159 
955 58 145 174 167 
956 170 55 35 147 
957 173 41 168 154 
958 175 65 64 224 
959 193 69 70 215 
960 171 68 67 213 
961 99 122 82 216 
962 63 172 64 219 
963 21 168 41 154 
964 58 145 167 38 
965 3 164 174 59 
966 40 173 3 146 
967 51 157 52 176 
968 160 175 48 47 
969 125 94 90 221 
970 171 170 68 223 
971 122 96 82 216 
972 25 45 169 159 
973 149 46 172 47 
974 171 53 151 52 
975 144 1 16 120 
976 155 168 22 42 
977 171 53 161 33 
978 163 167 57 37 
979 46 26 172 159 
980 174 39 145 59 
981 40 173 20 154 
982 166 49 165 29 
983 54 34 170 223 
984 166 50 30 165 
985 178 70 69 215 
986 50 166 49 165 
987 170 54 55 147 
988 45 169 44 158 
989 39 174 164 59 
990 28 153 48 175 
991 40 20 173 146 
992 23 43 156 177 
993 21 168 155 41 
994 167 163 58 38 
995 162 56 36 178 
996 171 53 33 151 
997 172 26 46 149 
998 51 150 31 176 
999 148 43 23 177 
1000 158 45 169 25 
1001 147 170 54 34 
1002 168 155 41 42 
1003 58 163 167 57 
1004 56 152 36 178 
1005 48 28 175 160 
1006 157 51 31 176 
1007 196 80 100 123 
1008 196 100 80 202 
1009 1 200 120 144 
1010 120 200 1 19 
1011 210 189 187 186 
1012 210 187 189 207 
1013 204 181 62 190 
1014 204 62 181 201 
1015 220 18 92 197 
1016 220 92 18 17 
1017 209 150 66 176 
1018 209 66 150 30 
1019 208 38 163 167 
1020 163 37 208 167 
1021 216 129 104 99 
1022 216 104 129 201 
1023 215 88 196 110 
1024 215 196 88 208 
1025 95 196 88 110 
1026 95 88 196 208 
1027 205 10 91 124 
1028 205 91 10 139 
1029 22 23 61 111 
1030 22 61 23 156 
1031 177 23 61 156 
1032 30 29 166 165 
1033 166 29 30 89 
1034 92 220 126 17 
1035 126 220 92 222 
1036 208 39 145 174 
1037 32 31 176 157 
1038 176 31 32 77 
1039 178 167 37 162 
1040 37 167 178 70 
1041 37 215 178 162 
1042 178 215 37 70 
1043 220 146 174 173 
1044 220 174 146 2 
1045 3 174 146 173 
1046 3 146 174 2 
1047 38 37 208 163 
1048 208 37 38 88 
1049 118 220 93 127 
1050 93 220 118 208 
1051 175 166 224 153 
1052 224 166 175 65 
1053 21 22 168 87 
1054 21 168 22 155 
1055 28 27 224 160 
1056 224 27 28 78 
1057 168 173 222 60 
1058 168 222 173 154 
1059 32 33 213 114 
1060 213 33 32 151 
1061 172 169 25 63 
1062 25 169 172 159 
1063 172 26 25 159 
1064 2 20 220 126 
1065 2 220 20 146 
1066 173 20 220 146 
1067 25 24 169 158 
1068 169 24 25 115 
1069 2 39 220 164 
1070 2 220 39 127 
1071 35 34 170 147 
1072 35 170 34 116 
1073 54 223 171 161 
1074 171 223 54 170 
1075 39 38 208 145 
1076 208 38 39 118 
1077 20 21 222 117 
1078 20 222 21 154 
1079 27 26 172 149 
1080 172 26 27 113 
1081 81 23 204 177 
1082 81 204 23 111 
1083 61 204 23 177 
1084 61 23 204 111 
1085 83 172 25 63 
1086 83 25 172 26 
1087 20 220 222 173 
1088 20 222 220 126 
$EndElements
