$MeshFormat
4.1 0 8
$EndMeshFormat
$PhysicalNames
5
2 1 "CoolingPatch"
2 2 "FresheningPatch"
2 3 "Wall"
2 4 "Bottom"
3 5 "Domain"
$EndPhysicalNames
$Entities
3 4 5 1
1 1 0 0 0 
2 1 0 -1 0 
3 0.6 0 0 0 
1 -1.0000001 -1.0000001 -1e-07 1.0000001 1.0000001 1e-07 0 2 1 -1 
2 0.9999999000000001 -1e-07 -1.0000001 1.0000001 1e-07 9.999999994736442e-08 0 2 1 -2 
3 -1.0000001 -1.0000001 -1.0000001 1.0000001 1.0000001 -0.9999999000000001 0 2 2 -2 
4 -0.6000000999999999 -0.6000000999999999 -1e-07 0.6000000999999999 0.6000000999999999 1e-07 0 2 3 -3 
1 -1.0000001 -1.0000001 -1e-07 1.0000001 1.0000001 1e-07 0 1 1 
2 -1.0000001 -1.0000001 -1.0000001 1.0000001 1.0000001 9.999999994736442e-08 1 3 4 2 3 -2 -1 
3 -1.0000001 -1.0000001 -1.0000001 1.0000001 1.0000001 -0.9999999000000001 1 4 1 3 
20 -0.6000000999999999 -0.6000000999999999 -1e-07 0.6000000999999999 0.6000000999999999 1e-07 1 1 1 4 
42 -1.0000001 -1.0000001 -1e-07 1.0000001 1.0000001 1e-07 1 2 2 1 -4 
1 -1.0000001 -1.0000001 -1.0000001 1.0000001 1.0000001 9.999999994736442e-08 1 5 3 2 1 -3 
$EndEntities
$Nodes
13 272 1 272
0 1 0 1
1
1 0 0
0 2 0 1
2
1 0 -1
0 3 0 1
3
0.6 0 0
1 1 0 20
4
5
6
7
8
9
10
11
12
13
14
15
16
17
18
19
20
21
22
23
0.9555728057861408 0.294755174410904 0
0.8262387743159951 0.5633200580636216 0
0.6234898018587343 0.7818314824680292 0
0.365341024366396 0.9308737486442038 0
0.07473009358642571 0.99720379718118 0
-0.2225209339563133 0.9749279121818238 0
-0.4999999999999987 0.8660254037844394 0
-0.7330518718298248 0.680172737770921 0
-0.9009688679024177 0.433883739117561 0
-0.9888308262251279 0.1490422661761791 0
-0.9888308262251294 -0.1490422661761688 0
-0.900968867902422 -0.433883739117552 0
-0.733051871829832 -0.6801727377709132 0
-0.5000000000000081 -0.8660254037844339 0
-0.2225209339563241 -0.9749279121818214 0
0.07473009358641373 -0.9972037971811809 0
0.3653410243663871 -0.9308737486442074 0
0.6234898018587278 -0.7818314824680344 0
0.8262387743159924 -0.5633200580636256 0
0.95557280578614 -0.2947551744109064 0
1 2 0 3
24
25
26
1 0 -0.2500000000000008
1 0 -0.5000000000000017
1 0 -0.7500000000000013
1 3 0 20
27
28
29
30
31
32
33
34
35
36
37
38
39
40
41
42
43
44
45
46
0.9555728057861408 0.294755174410904 -1
0.8262387743159951 0.5633200580636216 -1
0.6234898018587343 0.7818314824680292 -1
0.365341024366396 0.9308737486442038 -1
0.07473009358642571 0.99720379718118 -1
-0.2225209339563133 0.9749279121818238 -1
-0.4999999999999987 0.8660254037844394 -1
-0.7330518718298248 0.680172737770921 -1
-0.9009688679024177 0.433883739117561 -1
-0.9888308262251279 0.1490422661761791 -1
-0.9888308262251294 -0.1490422661761688 -1
-0.900968867902422 -0.433883739117552 -1
-0.733051871829832 -0.6801727377709132 -1
-0.5000000000000081 -0.8660254037844339 -1
-0.2225209339563241 -0.9749279121818214 -1
0.07473009358641373 -0.9972037971811809 -1
0.3653410243663871 -0.9308737486442074 -1
0.6234898018587278 -0.7818314824680344 -1
0.8262387743159924 -0.5633200580636256 -1
0.95557280578614 -0.2947551744109064 -1
1 4 0 12
47
48
49
50
51
52
53
54
55
56
57
58
0.531273615391926 0.278833903226261 0
0.3408388480386936 0.4937903195361937 0
0.07232200815319406 0.5956253244588323 0
-0.212762932225521 0.5610097456112491 0
-0.4491064489026597 0.3978735949444783 0
-0.5825650904556305 0.1435893985725374 0
-0.5825650904556322 -0.1435893985725306 0
-0.4491064489026643 -0.397873594944473 0
-0.212762932225526 -0.5610097456112471 0
0.07232200815319022 -0.5956253244588329 0
0.3408388480386911 -0.4937903195361954 0
0.5312736153919253 -0.2788339032262624 0
2 1 0 40
59
60
61
62
63
64
65
66
67
68
69
70
71
72
73
74
75
76
77
78
79
80
81
82
83
84
85
86
87
88
89
90
91
92
93
94
95
96
97
98
-0.4638116335467788 -0.5801655342774615 0
0.5198892232362362 0.4809749986869893 0
-0.6328301988766145 0.4083015175646015 0
0.5356278435360199 -0.4969900095266482 0
-0.03753237089094997 0.7047078786423079 0
0.7225209339563133 -0.1089025083973857 0
-0.04913917475062062 -0.727239533925003 0
-0.7668505653110639 0.0009043135305202652 0
0.7929807538770063 0.1195226174765432 0
0.5318766982342452 0.1309744298057072 0
0.4573246001207376 -0.2283043113032653 0
0.2321623744430387 0.0006601154268592909 0
0.1469844166805117 -0.2832667909820675 0
-0.05982606835229098 -0.08844081129146802 0
0.002674365475372742 0.1936450936695198 0
-0.2578773440217038 0.13475976037431 0
-0.3337950818195288 -0.1141333059397663 0
-0.1868593989525501 0.4068161343339562 0
0.2613098590401003 0.3067800445922446 0
0.2296937237455935 0.5769957754552199 0
-0.1809658616330901 -0.4270637645309865 0
0.05385723568351331 0.4377889853386497 0
-0.314336855470741 0.6487347876346659 0
0.0806949234084398 -0.5286564816461097 0
0.1977504806298756 -0.7417493312708299 0
0.7060466893754038 -0.3411667926289684 0
-0.725241227773352 -0.255830078434749 0
-0.6595789425655948 -0.4583819478292699 0
-0.2929807538770143 -0.7465027863078929 0
-0.7633784501979727 0.2287285126220063 0
-0.530987531335254 0.1290062428095412 0
0.7245143033374646 0.3264918235921012 0
0.302962011553394 -0.4780058865858989 0
0.4111074087847523 -0.6876189008237065 0
0.1897970983053047 0.7971182148230623 0
-0.5651338598655403 -0.119035829888939 0
0.4047393657838393 0.7176497738529121 0
-0.4880877678673141 -0.3257684101501953 0
-0.530325443858877 0.612376204764845 0
-0.408844754394471 0.3721579891099304 0
2 2 0 66
99
100
101
102
103
104
105
106
107
108
109
110
111
112
113
114
115
116
117
118
119
120
121
122
123
124
125
126
127
128
129
130
131
132
133
134
135
136
137
138
139
140
141
142
143
144
145
146
147
148
149
150
151
152
153
154
155
156
157
158
159
160
161
162
163
164
-0.8287220266671472 -0.5596604350109949 -0.7526356797391964
-0.9555728057861419 0.2947551744109004 -0.7497460320812481
-0.3673985718533638 -0.930063594277353 -0.2566558381077488
-0.623489801858732 0.781831482468031 -0.257907039217574
0.731080409893815 0.6822913118818762 -0.7489288720680736
0.2225209339563158 0.9749279121818233 -0.2579070392175744
0.2225362962983591 -0.9749244057001594 -0.2551996934397711
0.7295169471857573 -0.6839627356579984 -0.7529699397072714
-0.9562222614714483 -0.2926413960232373 -0.2566558381077588
-0.3673985718534125 0.9300635942773338 -0.7488091440898074
-0.07913460073580929 -0.9968639400471782 -0.7526327944447818
0.9072929118662554 0.4204991939079686 -0.2582224201752595
0.9072949542683403 -0.4204947870773315 -0.2575169012138864
0.9780157396924642 0.2085310838071919 -0.6178751276969137
0.9765625000000002 -0.2152340205305601 -0.6250000000000016
-0.9555728057861396 0.294755174410908 -0.2579070392175734
0.2225209339563158 0.9749279121818233 -0.7420929607824256
0.7332369455138226 -0.6799732213356344 -0.253897980986622
0.7343372259947388 0.6787848249028199 -0.2540798316273585
0.500254199392666 0.8658785919457778 -0.2557673217437821
0.4981386008330438 -0.8670974191866203 -0.2555249348695344
0.3608810957245059 -0.9326118349821002 -0.5043189794140295
-0.07729986147349525 -0.9970078893450034 -0.253300003020643
-0.07509760819009767 0.9971761876640088 -0.7459083496057703
-0.2250952090890127 0.9743367728076231 -0.5006976836311787
-0.9999999320853653 0.0003685502201039775 -0.2550024807605109
-0.9895424203791259 -0.1442421515030239 -0.5045787328838895
-0.623777903679601 -0.7816016420665213 -0.2550024807605199
-0.5041965524689721 -0.8635889279503316 -0.5045787328838887
-0.8277237746340544 -0.5611357704740921 -0.2532671865745112
-0.8262387743159935 0.5633200580636241 -0.2552110142787852
-0.7360528268170905 0.676924099241983 -0.5048220219885848
0.5000000000000009 0.8660254037844382 -0.7420929607823723
0.979352946470767 0.2021578745412286 -0.3835086063331259
0.9765624999999971 -0.215234020530574 -0.3750000000000012
0.9069691806218324 -0.4211969912073946 -0.743257565167293
0.8188517224363645 -0.5740051016001504 -0.5022534179010003
0.9075331179232493 0.4199805232061432 -0.7423624591408235
0.8206496845651561 0.57143161902638 -0.5009402031825082
0.2210044976606568 -0.9752727885129169 -0.7523798741393161
0.6202317456425207 -0.7844186265618834 -0.5044425181758868
-0.9999996729512217 0.0008087629131545132 -0.7520386340304475
-0.6246976611218742 -0.7808667185818973 -0.7525202419734384
-0.8266537732957628 0.5627108841100175 -0.7520791822145687
-0.5055965552298285 0.8627700292312727 -0.5048620624005365
-0.3776591605066739 0.9259446843550614 -0.250399832558828
-0.07737392776461015 0.9970021440810831 -0.2515611044341866
-0.901988003486596 -0.4317610931594745 -0.5041740794204934
-0.2248046921498528 -0.974403843582018 -0.5041790156120355
0.3654446438747984 0.9308330743281643 -0.4996417387992509
0.497734392556927 -0.8673295074341625 -0.7523518852394173
0.6237824375657373 0.7815980236570119 -0.4996280790718124
0.07212647666257435 -0.9973954939562556 -0.5036683933450961
-0.3673817305745188 -0.9300702468308895 -0.7523184641523575
-0.7348840247753712 -0.6781927971675544 -0.5036964002253412
-0.9561818074441757 -0.2927735492027742 -0.7522378543456711
-0.9887542754385714 0.1495492654677573 -0.5014307242924171
0.07380764419075035 0.9972724961909917 -0.4996348127450645
-0.9013046375219724 0.4331858150740696 -0.5035326690121962
-0.6252922810240156 0.7803906478756543 -0.7517620684489162
0.9276219082819462 -0.3735205419724067 -0.5006055768564366
0.9283989040878623 0.3715850843191317 -0.5011068472217248
0.9825010561291438 0.1862570124991723 -0.1783462053016772
0.9819996510255815 -0.1888827291883408 -0.1765033802427777
0.9822790744789571 0.1874241709085663 -0.8220475173675479
0.9819703967176843 -0.1890347586295014 -0.8236515130334592
2 3 0 40
165
166
167
168
169
170
171
172
173
174
175
176
177
178
179
180
181
182
183
184
185
186
187
188
189
190
191
192
193
194
195
196
197
198
199
200
201
202
203
204
-0.4638116335467788 -0.5801655342774615 -1
0.5198892232362362 0.4809749986869893 -1
-0.6328301988766145 0.4083015175646015 -1
0.5356278435360199 -0.4969900095266482 -1
-0.03753237089094997 0.7047078786423079 -1
0.7225209339563133 -0.1089025083973857 -1
-0.04913917475062062 -0.727239533925003 -1
-0.7668505653110639 0.0009043135305202652 -1
0.7929807538770063 0.1195226174765432 -1
0.5318766982342452 0.1309744298057072 -1
0.4573246001207376 -0.2283043113032653 -1
0.2321623744430387 0.0006601154268592909 -1
0.1469844166805117 -0.2832667909820675 -1
-0.05982606835229098 -0.08844081129146802 -1
0.002674365475372742 0.1936450936695198 -1
-0.2578773440217038 0.13475976037431 -1
-0.3337950818195288 -0.1141333059397663 -1
-0.1868593989525501 0.4068161343339562 -1
0.2613098590401003 0.3067800445922446 -1
0.2296937237455935 0.5769957754552199 -1
-0.1809658616330901 -0.4270637645309865 -1
0.05385723568351331 0.4377889853386497 -1
-0.314336855470741 0.6487347876346659 -1
0.0806949234084398 -0.5286564816461097 -1
0.1977504806298756 -0.7417493312708299 -1
0.7060466893754038 -0.3411667926289684 -1
-0.725241227773352 -0.255830078434749 -1
-0.6595789425655948 -0.4583819478292699 -1
-0.2929807538770143 -0.7465027863078929 -1
-0.7633784501979727 0.2287285126220063 -1
-0.530987531335254 0.1290062428095412 -1
0.7245143033374646 0.3264918235921012 -1
0.302962011553394 -0.4780058865858989 -1
0.4111074087847523 -0.6876189008237065 -1
0.1897970983053047 0.7971182148230623 -1
-0.5651338598655403 -0.119035829888939 -1
0.4047393657838393 0.7176497738529121 -1
-0.4880877678673141 -0.3257684101501953 -1
-0.530325443858877 0.612376204764845 -1
-0.408844754394471 0.3721579891099304 -1
2 20 0 15
205
206
207
208
209
210
211
212
213
214
215
216
217
218
219
-0.3137226703305374 0.1591172847958381 0
0.3241595640656484 -0.07989815663227889 0
-0.1896546398110636 -0.2747621808157077 0
0.1258419805712284 0.3001171424811527 0
0.1183887268384232 -0.3121654173127517 0
-0.3834668239252008 -0.2012589147570606 0
-0.2229259503999277 -0.04928814012317308 0
-0.04907380936845217 0.1293970007932974 0
0.02602216012916637 -0.08245738924582659 0
-0.1519816365304985 0.3372151301908715 0
0.1661461781344459 0.08212719661769753 0
0.3480433643669904 0.1791617342048376 0
-0.05292670926124402 -0.4358906670496348 0
0.3286651885836721 -0.2911719491768721 0
-0.4330726911506556 2.620141592004385e-15 0
2 42 0 13
220
221
222
223
224
225
226
227
228
229
230
231
232
-0.7686413090823908 4.523058447792923e-15 0
0.5776761031636055 0.5143354271398869 0
0.577676103163603 -0.5143354271398889 0
-0.08714157646043862 -0.7621539940471721 0
-0.0871415764604322 0.7621539940471728 0
-0.4291014649478944 0.6435394799784694 0
-0.4291014649479009 -0.6435394799784644 0
0.7475382413100237 0.1907964678081903 0
0.7475480881501892 -0.1905506585749092 0
-0.6893431718729582 0.3517376172690635 0
-0.6893431718729621 -0.3517376172690557 0
0.271878472544291 0.7168846148330701 0
0.2718784725442869 -0.7168846148330715 0
3 1 0 40
233
234
235
236
237
238
239
240
241
242
243
244
245
246
247
248
249
250
251
252
253
254
255
256
257
258
259
260
261
262
263
264
265
266
267
268
269
270
271
272
-0.4904788639063182 -0.00294170739351024 -0.5
0.4879209277175557 -0.08942892343846402 -0.5000000000000004
0.1951897565281357 0.4399231223283361 -0.5
-0.0382785949300402 -0.4942709295428512 -0.5
-0.2866960391438114 0.4337781581800433 -0.471557375200213
-0.001951935537506111 -0.007078924147326189 -0.521293495624785
0.5518645933518735 0.2974519753692189 -0.3916124919504577
-0.4348160136993569 -0.4054701529830117 -0.4059372547991433
0.3394443040217135 -0.5310639524026516 -0.3898821989117197
-0.5792937199770601 0.3152565762093073 -0.6523852893381269
-0.6157180199088037 0.2586207787323527 -0.311402630098163
-0.05170733048189909 0.6781052538116539 -0.591772774423675
0.2809333156953774 -0.6220752971325503 -0.7027548838225742
-0.6193524782086588 -0.2766229460524487 -0.6701349417709022
0.6887650673259859 0.07888861259360633 -0.6938428703251693
-0.2637149514806495 -0.2265096483773207 -0.6661351707936198
-0.6977622430817997 -0.112496958946078 -0.2873357075573865
0.2079245448381956 -0.2735270606818016 -0.6444647198947153
-0.3220410787015148 -0.5907526193088888 -0.6803811129343305
-0.05525086411406174 0.2913792216483711 -0.6781214970979068
0.2656919036253756 0.1501384710110386 -0.6845223112309311
0.1204065109604125 0.6708645495012573 -0.2881714349830486
0.2450730712312707 0.1419232883419441 -0.3211702760280944
0.5479756303081652 -0.3959161633271288 -0.6628273947059161
-0.03311382919384949 0.3285848020462159 -0.2950292290422898
-0.1520845081592301 -0.2317514090794127 -0.3028187373563349
0.3710073637894447 0.5803794345484841 -0.7193411873457271
0.6866042777577317 0.02725586378606452 -0.2832613046446867
-0.2371990316696205 0.07937544967291872 -0.3174317732917503
0.5929510285471755 -0.3367126020380427 -0.3093700714700261
0.08814473461597094 -0.6925955618837736 -0.2908860054424409
-0.7044712305202132 0.04582605132497224 -0.7077381166759829
0.1943608534544438 -0.1901736505932174 -0.3193003958422314
-0.2417143576148848 -0.6376567939313973 -0.2974699222034851
-0.4108927447678956 0.5626055176227039 -0.7214803092498356
-0.1903726299071461 0.6842155755809611 -0.3123433479565615
0.6022613942668381 0.374816009243 -0.7199034739477621
0.4324739636351408 0.5817723585119992 -0.3596929921406903
-0.3259728622450455 0.153528089150637 -0.7034442279540163
-0.4884261248438727 0.5213312039614193 -0.2764055765133218
$EndNodes
$Elements
5 1120 1 1120
2 2 2 180
1 1 161 4 
2 23 162 1 
3 24 161 1 
4 1 162 24 
5 2 163 26 
6 26 164 2 
7 27 163 2 
8 2 164 46 
9 4 110 5 
10 4 161 110 
11 5 117 6 
12 110 117 5 
13 6 118 7 
14 117 118 6 
15 7 104 8 
16 7 118 104 
17 8 145 9 
18 104 145 8 
19 9 144 10 
20 9 145 144 
21 10 102 11 
22 10 144 102 
23 11 129 12 
24 102 129 11 
25 12 114 13 
26 12 129 114 
27 13 124 14 
28 114 124 13 
29 14 107 15 
30 14 124 107 
31 15 128 16 
32 107 128 15 
33 16 126 17 
34 16 128 126 
35 17 101 18 
36 17 126 101 
37 18 121 19 
38 101 121 18 
39 19 105 20 
40 19 121 105 
41 20 119 21 
42 105 119 20 
43 21 116 22 
44 21 119 116 
45 22 111 23 
46 22 116 111 
47 111 162 23 
48 25 132 24 
49 24 133 25 
50 132 161 24 
51 24 162 133 
52 26 112 25 
53 25 113 26 
54 112 132 25 
55 25 133 113 
56 26 163 112 
57 113 164 26 
58 28 136 27 
59 136 163 27 
60 29 103 28 
61 103 136 28 
62 30 131 29 
63 29 131 103 
64 31 115 30 
65 115 131 30 
66 32 122 31 
67 31 122 115 
68 33 108 32 
69 108 122 32 
70 34 158 33 
71 33 158 108 
72 35 142 34 
73 142 158 34 
74 36 100 35 
75 100 142 35 
76 37 140 36 
77 36 140 100 
78 38 154 37 
79 37 154 140 
80 39 99 38 
81 99 154 38 
82 40 141 39 
83 39 141 99 
84 41 152 40 
85 40 152 141 
86 42 109 41 
87 109 152 41 
88 43 138 42 
89 42 138 109 
90 44 149 43 
91 43 149 138 
92 45 106 44 
93 106 149 44 
94 46 134 45 
95 45 134 106 
96 46 164 134 
97 141 153 99 
98 99 153 146 
99 146 154 99 
100 140 155 100 
101 100 157 142 
102 155 157 100 
103 101 147 121 
104 126 127 101 
105 127 147 101 
106 102 130 129 
107 102 143 130 
108 102 144 143 
109 131 150 103 
110 103 137 136 
111 103 150 137 
112 118 148 104 
113 104 156 145 
114 148 156 104 
115 105 120 119 
116 105 151 120 
117 121 151 105 
118 134 135 106 
119 135 139 106 
120 139 149 106 
121 124 125 107 
122 125 146 107 
123 107 146 128 
124 108 123 122 
125 108 143 123 
126 108 158 143 
127 138 151 109 
128 109 151 147 
129 147 152 109 
130 110 137 117 
131 132 160 110 
132 110 161 132 
133 110 160 137 
134 116 135 111 
135 111 159 133 
136 133 162 111 
137 135 159 111 
138 112 160 132 
139 136 160 112 
140 112 163 136 
141 133 159 113 
142 113 159 134 
143 134 164 113 
144 114 155 124 
145 129 157 114 
146 114 157 155 
147 122 156 115 
148 115 148 131 
149 115 156 148 
150 119 139 116 
151 116 139 135 
152 117 150 118 
153 137 150 117 
154 118 150 148 
155 120 139 119 
156 138 149 120 
157 120 151 138 
158 120 149 139 
159 147 151 121 
160 123 156 122 
161 143 144 123 
162 144 145 123 
163 145 156 123 
164 124 155 125 
165 140 154 125 
166 125 155 140 
167 125 154 146 
168 126 153 127 
169 128 153 126 
170 141 152 127 
171 127 153 141 
172 127 152 147 
173 146 153 128 
174 130 157 129 
175 142 157 130 
176 130 158 142 
177 143 158 130 
178 148 150 131 
179 134 159 135 
180 137 160 136 
2 3 2 99
181 27 2 173 
182 2 46 170 
183 2 170 173 
184 28 27 196 
185 27 173 196 
186 29 28 166 
187 166 28 196 
188 30 29 201 
189 29 166 201 
190 31 30 199 
191 199 30 201 
192 32 31 169 
193 169 31 199 
194 33 32 187 
195 32 169 187 
196 34 33 203 
197 33 187 203 
198 35 34 167 
199 167 34 203 
200 36 35 194 
201 35 167 194 
202 37 36 172 
203 172 36 194 
204 38 37 191 
205 37 172 191 
206 39 38 192 
207 38 191 192 
208 40 39 165 
209 165 39 192 
210 41 40 193 
211 40 165 193 
212 42 41 171 
213 171 41 193 
214 43 42 189 
215 42 171 189 
216 44 43 198 
217 43 189 198 
218 45 44 168 
219 168 44 198 
220 46 45 190 
221 45 168 190 
222 170 46 190 
223 165 185 193 
224 185 165 202 
225 165 192 202 
226 166 174 183 
227 174 166 196 
228 166 183 184 
229 166 184 201 
230 194 167 195 
231 195 167 204 
232 167 203 204 
233 168 175 190 
234 175 168 197 
235 197 168 198 
236 182 169 186 
237 169 182 187 
238 169 184 186 
239 184 169 199 
240 173 170 174 
241 174 170 175 
242 175 170 190 
243 171 185 188 
244 185 171 193 
245 171 188 189 
246 191 172 200 
247 172 194 195 
248 172 195 200 
249 173 174 196 
250 174 175 176 
251 174 176 183 
252 176 175 177 
253 177 175 197 
254 176 177 178 
255 176 178 179 
256 176 179 183 
257 178 177 185 
258 185 177 188 
259 188 177 197 
260 179 178 180 
261 180 178 181 
262 181 178 185 
263 179 180 182 
264 179 182 186 
265 183 179 186 
266 180 181 195 
267 182 180 204 
268 180 195 204 
269 181 185 202 
270 195 181 200 
271 200 181 202 
272 187 182 204 
273 184 183 186 
274 184 199 201 
275 203 187 204 
276 189 188 197 
277 189 197 198 
278 192 191 202 
279 191 200 202 
2 20 2 41
280 208 216 48 
281 48 216 47 
282 49 214 208 
283 50 214 49 
284 206 213 209 
285 55 207 54 
286 3 206 58 
287 57 209 56 
288 49 208 48 
289 52 205 51 
290 215 216 208 
291 51 214 50 
292 205 214 51 
293 209 213 207 
294 206 215 213 
295 207 217 209 
296 209 218 206 
297 3 216 206 
298 47 216 3 
299 208 214 212 
300 56 217 55 
301 207 210 54 
302 58 218 57 
303 57 218 209 
304 209 217 56 
305 206 218 58 
306 53 219 52 
307 54 210 53 
308 52 219 205 
309 55 217 207 
310 207 213 211 
311 211 213 212 
312 211 212 205 
313 213 215 212 
314 212 214 205 
315 212 215 208 
316 211 219 210 
317 205 219 211 
318 207 211 210 
319 206 216 215 
320 210 219 53 
2 42 2 60
321 223 226 18 
322 9 225 224 
323 18 226 17 
324 10 225 9 
325 221 227 5 
326 22 228 222 
327 220 229 13 
328 14 230 220 
329 6 231 221 
330 222 232 21 
331 19 232 223 
332 224 231 8 
333 226 230 16 
334 11 229 225 
335 227 228 1 
336 5 227 4 
337 23 228 22 
338 220 230 53 
339 52 229 220 
340 221 231 48 
341 57 232 222 
342 222 228 58 
343 47 227 221 
344 55 226 223 
345 224 225 50 
346 223 232 56 
347 49 231 224 
348 54 230 226 
349 225 229 51 
350 3 228 227 
351 13 229 12 
352 15 230 14 
353 7 231 6 
354 21 232 20 
355 20 232 19 
356 8 231 7 
357 16 230 15 
358 12 229 11 
359 1 228 23 
360 4 227 1 
361 17 226 16 
362 11 225 10 
363 9 224 8 
364 19 223 18 
365 22 222 21 
366 6 221 5 
367 52 220 53 
368 14 220 13 
369 47 221 48 
370 57 222 58 
371 55 223 56 
372 49 224 50 
373 54 226 55 
374 50 225 51 
375 58 228 3 
376 3 227 47 
377 53 230 54 
378 51 229 52 
379 48 231 49 
380 56 232 57 
3 1 4 740
381 109 236 151 245 
382 25 113 133 234 
383 171 236 109 245 
384 159 133 113 234 
385 113 247 164 256 
386 109 236 171 251 
387 147 151 109 236 
388 128 86 240 249 
389 200 246 233 264 
390 200 264 233 271 
391 109 147 236 251 
392 25 234 133 260 
393 192 246 99 251 
394 109 151 138 245 
395 141 192 99 251 
396 188 236 171 245 
397 134 113 164 256 
398 233 249 240 258 
399 233 246 200 248 
400 233 248 200 271 
401 170 164 247 256 
402 199 115 244 259 
403 170 190 164 256 
404 113 234 25 247 
405 186 244 235 259 
406 186 235 244 252 
407 171 236 188 251 
408 133 234 159 262 
409 165 192 141 251 
410 199 244 184 259 
411 128 85 86 249 
412 190 134 164 256 
413 159 234 113 256 
414 236 151 245 263 
415 185 236 188 250 
416 126 128 86 240 
417 184 244 186 259 
418 94 75 96 249 
419 148 254 244 259 
420 151 236 147 263 
421 96 240 86 249 
422 171 109 138 245 
423 186 183 235 252 
424 240 249 75 258 
425 160 112 132 247 
426 155 243 249 264 
427 244 254 235 259 
428 128 240 146 249 
429 186 235 183 259 
430 82 258 263 266 
431 98 237 261 272 
432 126 86 59 240 
433 237 257 98 261 
434 148 244 115 259 
435 124 88 66 243 
436 98 261 243 272 
437 236 245 188 250 
438 188 236 185 251 
439 185 248 236 250 
440 199 169 184 244 
441 85 96 86 249 
442 89 243 233 249 
443 89 249 233 261 
444 233 249 243 264 
445 235 254 77 270 
446 189 171 138 245 
447 181 200 248 271 
448 255 261 238 265 
449 82 241 263 265 
450 240 246 146 249 
451 77 254 235 257 
452 78 77 254 270 
453 160 132 239 247 
454 25 247 234 260 
455 75 240 96 249 
456 233 243 89 261 
457 77 80 254 257 
458 76 98 237 257 
459 255 260 69 265 
460 120 245 151 263 
461 147 263 236 266 
462 113 234 247 256 
463 76 98 257 261 
464 179 252 238 253 
465 153 246 240 251 
466 243 261 237 272 
467 235 77 255 270 
468 124 114 88 243 
469 236 263 258 266 
470 82 91 241 265 
471 234 260 255 265 
472 235 252 183 253 
473 116 92 62 241 
474 182 186 244 252 
475 73 257 255 261 
476 66 124 243 249 
477 78 77 80 254 
478 177 185 188 250 
479 148 156 115 244 
480 195 264 200 271 
481 116 119 92 241 
482 108 123 143 244 
483 72 73 255 261 
484 133 260 234 262 
485 178 238 252 271 
486 92 119 83 263 
487 147 236 251 266 
488 235 255 77 257 
489 112 25 132 247 
490 143 267 244 268 
491 82 79 258 266 
492 184 169 186 244 
493 156 244 148 254 
494 235 253 183 259 
495 108 244 143 267 
496 125 249 246 264 
497 242 243 155 264 
498 107 128 146 249 
499 125 155 249 264 
500 92 241 119 263 
501 178 179 238 253 
502 182 252 244 267 
503 72 261 255 265 
504 171 188 185 251 
505 98 76 237 272 
506 178 238 179 252 
507 234 256 159 262 
508 198 106 168 245 
509 155 243 124 249 
510 25 132 247 260 
511 123 143 244 268 
512 130 243 242 272 
513 234 247 175 253 
514 117 110 90 239 
515 238 261 258 265 
516 176 250 175 253 
517 85 128 107 249 
518 122 108 169 244 
519 68 69 255 260 
520 92 83 91 263 
521 185 177 248 250 
522 157 242 130 243 
523 242 267 130 272 
524 182 186 169 244 
525 70 255 69 265 
526 174 175 247 253 
527 90 161 67 260 
528 239 255 77 270 
529 90 110 161 260 
530 162 260 133 262 
531 155 242 157 243 
532 238 248 178 250 
533 89 243 98 261 
534 26 164 113 247 
535 178 248 238 271 
536 134 159 113 256 
537 239 247 132 260 
538 149 106 198 245 
539 175 250 234 253 
540 236 263 241 265 
541 178 252 179 271 
542 234 69 260 265 
543 82 258 71 265 
544 128 153 146 240 
545 237 242 233 243 
546 70 68 69 255 
547 178 179 180 271 
548 237 243 233 261 
549 146 240 153 246 
550 95 93 118 254 
551 109 152 147 251 
552 143 130 267 272 
553 74 89 98 261 
554 125 146 246 249 
555 191 172 154 264 
556 187 244 108 267 
557 143 237 267 268 
558 175 170 247 256 
559 187 169 108 244 
560 120 241 245 263 
561 127 153 126 240 
562 187 182 244 267 
563 155 114 124 243 
564 82 71 91 265 
565 92 91 241 263 
566 143 237 268 272 
567 143 267 237 272 
568 153 240 127 251 
569 185 236 248 251 
570 91 262 241 265 
571 233 242 237 271 
572 115 199 201 259 
573 246 249 233 264 
574 117 90 60 239 
575 129 243 130 272 
576 127 240 126 266 
577 129 157 130 243 
578 72 258 261 265 
579 82 241 91 263 
580 152 109 193 251 
581 178 176 179 253 
582 76 74 98 261 
583 137 150 269 270 
584 235 252 255 257 
585 177 178 248 250 
586 244 267 237 268 
587 161 110 132 260 
588 139 116 135 262 
589 167 100 194 242 
590 237 261 233 271 
591 90 239 110 260 
592 151 120 138 245 
593 238 255 252 257 
594 237 252 244 257 
595 169 187 182 244 
596 244 252 235 257 
597 26 113 25 247 
598 153 128 126 240 
599 236 248 238 250 
600 154 172 140 264 
601 255 257 238 261 
602 139 241 116 262 
603 191 154 246 264 
604 64 162 84 262 
605 233 261 248 271 
606 76 268 237 272 
607 176 175 174 253 
608 59 86 96 240 
609 237 267 242 272 
610 189 188 171 245 
611 184 186 183 259 
612 100 242 155 264 
613 200 246 202 248 
614 121 151 147 263 
615 109 171 193 251 
616 64 260 162 262 
617 96 240 75 258 
618 248 261 238 271 
619 126 240 59 266 
620 259 269 150 270 
621 244 252 237 267 
622 60 239 77 270 
623 157 155 100 242 
624 118 93 104 254 
625 121 263 147 266 
626 254 257 80 268 
627 119 105 83 263 
628 197 188 245 250 
629 127 251 240 266 
630 160 247 239 269 
631 202 248 246 251 
632 195 200 181 271 
633 139 106 149 245 
634 116 241 62 262 
635 175 247 234 256 
636 119 241 120 263 
637 119 120 105 263 
638 91 62 92 241 
639 76 257 237 268 
640 112 247 160 269 
641 237 252 261 271 
642 233 246 240 249 
643 239 253 235 269 
644 110 160 132 239 
645 234 260 69 262 
646 111 162 133 262 
647 236 238 248 258 
648 147 251 127 266 
649 236 250 238 265 
650 182 252 267 271 
651 70 72 73 255 
652 154 125 246 264 
653 110 239 132 260 
654 106 168 245 256 
655 200 172 191 264 
656 24 25 133 260 
657 236 238 258 265 
658 252 257 237 261 
659 200 191 246 264 
660 80 257 76 268 
661 84 162 111 262 
662 91 69 262 265 
663 139 245 241 256 
664 139 106 245 256 
665 89 66 243 249 
666 192 191 99 246 
667 95 254 118 270 
668 235 255 239 270 
669 194 242 100 264 
670 137 269 239 270 
671 115 201 131 259 
672 120 241 139 245 
673 100 167 142 242 
674 185 177 178 248 
675 88 89 66 243 
676 233 243 242 264 
677 253 259 235 269 
678 235 254 244 257 
679 244 257 254 268 
680 236 245 241 263 
681 61 12 129 88 
682 26 170 164 247 
683 183 259 253 269 
684 12 114 129 88 
685 239 235 259 269 
686 238 261 252 271 
687 233 240 248 258 
688 203 142 167 267 
689 163 196 173 247 
690 182 267 204 271 
691 93 118 7 95 
692 244 237 257 268 
693 63 254 80 268 
694 199 30 115 201 
695 72 255 70 265 
696 37 154 191 172 
697 238 257 252 261 
698 237 267 252 271 
699 239 259 235 270 
700 247 253 239 269 
701 234 250 175 256 
702 112 160 136 269 
703 125 155 124 249 
704 140 172 194 264 
705 69 234 262 265 
706 141 153 127 251 
707 137 150 103 269 
708 60 117 239 270 
709 170 175 190 256 
710 59 240 79 266 
711 181 200 202 248 
712 172 37 154 140 
713 169 32 108 122 
714 238 234 253 255 
715 62 241 91 262 
716 150 259 103 269 
717 130 242 142 267 
718 99 146 153 246 
719 172 194 36 140 
720 136 196 163 247 
721 233 258 248 261 
722 79 59 96 240 
723 234 250 238 253 
724 197 250 245 256 
725 60 77 78 270 
726 76 257 74 261 
727 145 104 93 254 
728 189 149 198 245 
729 143 268 144 272 
730 244 254 156 268 
731 143 144 102 272 
732 133 162 24 260 
733 117 95 118 270 
734 96 79 240 258 
735 142 242 167 267 
736 234 255 238 265 
737 186 179 183 252 
738 137 160 239 269 
739 68 77 239 255 
740 31 115 122 199 
741 159 256 135 262 
742 116 139 119 241 
743 154 140 125 264 
744 145 156 254 268 
745 63 80 76 268 
746 234 238 250 265 
747 239 269 259 270 
748 123 244 156 268 
749 92 20 83 119 
750 140 194 100 264 
751 125 107 146 249 
752 114 155 157 243 
753 242 243 237 272 
754 42 189 171 138 
755 158 142 203 267 
756 118 104 148 254 
757 148 118 254 270 
758 85 86 15 128 
759 150 148 259 270 
760 82 263 65 266 
761 248 258 238 261 
762 110 117 137 239 
763 195 242 194 264 
764 140 194 36 100 
765 115 131 148 259 
766 178 181 248 271 
767 123 156 145 268 
768 43 198 189 149 
769 246 248 240 251 
770 63 145 93 254 
771 154 99 191 246 
772 68 255 239 260 
773 42 171 109 138 
774 176 178 177 250 
775 78 254 95 270 
776 39 99 141 192 
777 62 84 116 262 
778 120 119 139 241 
779 118 93 7 104 
780 239 247 234 253 
781 178 180 181 271 
782 197 177 188 250 
783 82 79 71 258 
784 242 204 267 271 
785 26 173 170 247 
786 240 258 79 266 
787 241 245 236 250 
788 60 68 77 239 
789 137 239 117 270 
790 192 38 99 191 
791 235 253 239 255 
792 120 139 149 245 
793 89 94 66 249 
794 185 248 202 251 
795 234 241 250 256 
796 183 252 179 253 
797 168 106 190 256 
798 234 250 241 265 
799 94 96 85 249 
800 158 130 142 267 
801 111 133 159 262 
802 132 25 24 260 
803 31 122 169 199 
804 81 97 102 272 
805 174 175 170 247 
806 160 110 137 239 
807 117 60 95 270 
808 236 241 250 265 
809 130 157 142 242 
810 240 246 233 248 
811 197 175 250 256 
812 152 127 147 251 
813 187 169 32 108 
814 240 248 236 251 
815 116 84 111 262 
816 122 123 108 244 
817 195 167 194 242 
818 83 82 91 263 
819 125 146 154 246 
820 134 190 106 256 
821 95 78 93 254 
822 122 115 156 244 
823 138 149 189 245 
824 201 103 131 259 
825 241 262 234 265 
826 131 115 30 201 
827 106 168 190 45 
828 68 239 90 260 
829 168 197 198 245 
830 144 81 102 272 
831 241 256 234 262 
832 128 86 16 126 
833 81 268 76 272 
834 93 145 8 104 
835 106 190 134 45 
836 236 248 240 258 
837 88 13 124 66 
838 174 183 253 269 
839 150 148 131 259 
840 197 245 168 256 
841 64 24 162 260 
842 33 158 203 267 
843 105 120 151 263 
844 195 242 264 271 
845 105 83 20 119 
846 195 204 242 271 
847 97 102 10 81 
848 104 156 148 254 
849 165 39 141 192 
850 196 247 136 269 
851 67 24 64 260 
852 87 101 126 266 
853 130 143 102 272 
854 68 60 90 239 
855 74 75 89 261 
856 15 85 128 107 
857 127 126 101 266 
858 29 103 131 201 
859 144 268 81 272 
860 106 149 198 44 
861 239 253 234 255 
862 174 253 247 269 
863 138 43 189 149 
864 158 33 108 267 
865 106 198 168 44 
866 25 112 26 247 
867 136 163 112 247 
868 166 259 183 269 
869 147 127 101 266 
870 184 201 199 259 
871 69 260 64 262 
872 129 61 243 272 
873 65 263 121 266 
874 38 154 99 191 
875 74 257 73 261 
876 87 126 59 266 
877 63 145 8 93 
878 129 97 61 272 
879 239 255 234 260 
880 173 2 26 170 
881 240 251 236 266 
882 126 86 16 59 
883 73 77 255 257 
884 193 141 152 251 
885 87 121 101 266 
886 237 242 267 271 
887 62 91 69 262 
888 201 166 103 259 
889 124 114 13 88 
890 79 82 65 266 
891 112 136 247 269 
892 158 143 130 267 
893 100 142 157 242 
894 129 102 97 272 
895 78 95 60 270 
896 163 173 26 247 
897 117 95 6 118 
898 24 67 161 260 
899 236 258 240 266 
900 167 195 204 242 
901 102 144 10 81 
902 117 5 90 110 
903 121 147 101 266 
904 125 140 155 264 
905 245 250 241 256 
906 68 90 67 260 
907 2 26 170 164 
908 129 114 157 243 
909 185 202 165 251 
910 101 126 17 87 
911 134 135 159 256 
912 87 65 121 266 
913 64 1 24 67 
914 187 33 203 267 
915 201 29 103 166 
916 167 242 204 267 
917 73 80 77 257 
918 193 165 141 251 
919 119 92 21 116 
920 34 203 158 142 
921 176 177 175 250 
922 40 141 152 193 
923 135 106 139 256 
924 116 92 21 62 
925 187 108 33 267 
926 72 74 73 261 
927 64 24 1 162 
928 24 161 132 260 
929 98 81 76 272 
930 143 123 144 268 
931 145 254 63 268 
932 104 145 156 254 
933 83 105 19 263 
934 234 247 239 260 
935 203 34 167 142 
936 62 22 116 84 
937 85 14 66 249 
938 111 159 135 262 
939 6 60 95 117 
940 69 91 71 265 
941 152 109 41 193 
942 150 137 117 270 
943 22 111 116 84 
944 19 105 121 263 
945 87 126 17 59 
946 96 75 79 258 
947 60 5 90 117 
948 120 149 138 245 
949 171 185 193 251 
950 76 73 74 257 
951 175 177 197 250 
952 180 182 204 271 
953 11 129 102 97 
954 14 124 66 249 
955 64 69 68 260 
956 197 168 175 256 
957 98 243 61 272 
958 137 136 160 269 
959 195 172 200 264 
960 192 202 191 246 
961 193 40 141 165 
962 233 264 242 271 
963 146 99 154 246 
964 150 131 103 259 
965 127 152 141 251 
966 158 108 143 267 
967 19 121 65 263 
968 11 129 97 61 
969 85 107 14 249 
970 174 166 183 269 
971 83 19 65 263 
972 100 155 140 264 
973 122 156 123 244 
974 89 61 98 243 
975 180 195 181 271 
976 84 23 111 162 
977 136 28 196 269 
978 109 41 193 171 
979 70 73 77 255 
980 191 202 200 246 
981 195 194 172 264 
982 176 183 179 253 
983 68 70 77 255 
984 167 204 203 267 
985 14 107 124 249 
986 190 46 164 134 
987 105 151 121 263 
988 89 88 61 243 
989 102 129 130 272 
990 111 135 116 262 
991 174 173 196 247 
992 197 188 189 245 
993 195 180 204 271 
994 163 26 112 247 
995 103 259 166 269 
996 84 69 64 262 
997 124 107 125 249 
998 197 189 198 245 
999 23 84 64 162 
1000 170 190 46 164 
1001 181 202 185 248 
1002 9 145 63 268 
1003 63 76 81 268 
1004 196 28 166 269 
1005 136 103 28 269 
1006 148 150 118 270 
1007 178 181 185 248 
1008 9 144 145 268 
1009 196 174 247 269 
1010 186 182 179 252 
1011 134 106 135 256 
1012 103 166 28 269 
1013 144 9 81 268 
1014 163 2 26 173 
1015 71 258 72 265 
1016 176 174 183 253 
1017 4 161 90 110 
1018 72 258 75 261 
1019 190 175 168 256 
1020 66 94 85 249 
1021 121 101 18 87 
1022 183 166 184 259 
1023 161 67 4 90 
1024 9 63 81 268 
1025 163 196 136 27 
1026 27 163 196 173 
1027 72 71 79 258 
1028 74 72 75 261 
1029 67 1 24 161 
1030 145 144 123 268 
1031 137 103 136 269 
1032 78 80 63 254 
1033 165 193 185 251 
1034 18 121 87 65 
1035 71 72 70 265 
1036 81 98 97 272 
1037 69 71 70 265 
1038 45 106 168 44 
1039 174 170 173 247 
1040 169 32 122 31 
1041 109 41 171 42 
1042 187 32 33 108 
1043 37 172 36 140 
1044 35 167 34 142 
1045 59 79 87 266 
1046 196 166 174 269 
1047 117 118 150 270 
1048 62 69 84 262 
1049 187 204 182 267 
1050 191 38 154 37 
1051 40 39 141 165 
1052 87 79 65 266 
1053 93 78 63 254 
1054 98 61 97 272 
1055 42 43 189 138 
1056 29 28 103 166 
1057 73 76 80 257 
1058 129 11 12 61 
1059 75 72 79 258 
1060 35 36 194 100 
1061 149 43 198 44 
1062 126 16 17 59 
1063 99 39 38 192 
1064 46 2 170 164 
1065 190 46 134 45 
1066 204 187 203 267 
1067 65 82 83 263 
1068 31 30 115 199 
1069 67 64 68 260 
1070 184 166 201 259 
1071 83 20 19 105 
1072 1 23 64 162 
1073 86 16 15 128 
1074 9 10 144 81 
1075 33 34 203 158 
1076 85 15 14 107 
1077 196 28 136 27 
1078 30 29 131 201 
1079 10 11 102 97 
1080 114 12 13 88 
1081 8 7 93 104 
1082 92 21 20 119 
1083 8 9 145 63 
1084 6 5 60 117 
1085 116 21 22 62 
1086 22 23 111 84 
1087 121 18 19 65 
1088 13 14 124 66 
1089 7 6 95 118 
1090 90 5 4 110 
1091 27 2 163 173 
1092 40 152 41 193 
1093 4 1 67 161 
1094 101 17 18 87 
1095 251 192 202 165 
1096 251 202 192 246 
1097 249 75 89 94 
1098 249 89 75 261 
1099 249 261 258 233 
1100 258 261 249 75 
1101 258 263 265 82 
1102 265 263 258 236 
1103 259 254 270 148 
1104 259 270 254 235 
1105 99 251 153 141 
1106 153 251 99 246 
1107 199 122 244 115 
1108 199 244 122 169 
1109 271 179 182 252 
1110 271 182 179 180 
1111 253 178 250 238 
1112 253 250 178 176 
1113 262 139 256 135 
1114 262 256 139 241 
1115 252 255 253 235 
1116 253 255 252 238 
1117 129 88 243 61 
1118 243 88 129 114 
1119 100 167 35 142 
1120 100 35 167 194 
$EndElements
