$MeshFormat
4.1 0 8
$EndMeshFormat
$PhysicalNames
5
2 1 "Top"
2 2 "Wall"
2 3 "Slope"
2 4 "Bottom"
3 5 "Domain"
$EndPhysicalNames
$Entities
7 10 9 2
1 1 0 0 0 
2 1 0 -0.2 0 
3 -0.5999999999999999 -1.469576158976824e-16 -1.2 0 
4 -1 -2.449293598294706e-16 -0.2 0 
5 0.6 0 0 0 
6 0.9510565162951535 0.3090169943749474 0 0 
7 0.9510565162951535 0.3090169943749474 -0.2 0 
1 -1.0000001 -1.0000001 -1e-07 1.0000001 1.0000001 1e-07 0 2 1 -1 
2 0.9999999000000001 -1e-07 -0.2000001 1.0000001 1e-07 1.000000000028756e-07 0 2 1 -2 
3 -1.0000001 -1.0000001 -0.2000001 1.0000001 1.0000001 -0.1999999 0 2 2 -2 
4 -0.6000000999999998 -0.6000000999999998 -1.2000001 0.6000000999999998 0.6000000999999998 -1.1999999 0 2 3 -3 
5 -1.0000001 -1.000000002449294e-07 -1.2000001 -0.5999998999999999 9.999999985304237e-08 -0.1999999 0 2 4 -3 
6 -1.0000001 -1.0000001 -0.2000001 1.0000001 1.0000001 -0.1999999 0 2 4 -4 
7 -0.6000000999999999 -0.6000000999999999 -1e-07 0.6000000999999999 0.6000000999999999 1e-07 0 2 5 -5 
8 0.9510564162951536 -1.000000000028756e-07 -1e-07 1.0000001 0.3090170943749474 1e-07 0 2 1 -6 
9 0.9510564162951536 -1.000000000028756e-07 -0.2000001 1.0000001 0.3090170943749474 -0.1999999 0 2 2 -7 
10 0.9510564162951536 0.3090168943749474 -0.2000001 0.9510566162951535 0.3090170943749474 1.000000000028756e-07 0 2 6 -7 
1 -1.0000001 -1.0000001 -1e-07 1.0000001 1.0000001 1e-07 1 1 1 1 
2 -1.0000001 -1.0000001 -0.2000001 1.0000001 1.0000001 1.000000000028756e-07 1 2 4 2 3 -2 -1 
3 -1.0000001 -1.0000001 -0.2000001 1.0000001 1.0000001 -0.1999999 0 1 3 
4 -1.0000001 -1.0000001 -1.2000001 1.0000001 1.0000001 -0.1999999 1 3 4 -4 -5 6 5 
5 -0.6000000999999998 -0.6000000999999998 -1.2000001 0.6000000999999998 0.6000000999999998 -1.1999999 1 4 1 4 
6 -1.0000001 -1.0000001 -0.2000001 1.0000001 1.0000001 -0.1999999 0 1 6 
20 -0.6000000999999999 -0.6000000999999999 -1e-07 0.6000000999999999 0.6000000999999999 1e-07 0 1 7 
42 -1.0000001 -1.0000001 -1e-07 1.0000001 1.0000001 1e-07 0 2 1 -7 
43 0.9510564162951536 -1.000000000028756e-07 -0.2000001 1.0000001 0.3090170943749474 1.000000000028756e-07 0 4 8 10 -9 -2 
1 -1.0000001 -1.0000001 -0.2000001 1.0000001 1.0000001 1.000000000028756e-07 1 5 3 2 1 -3 
10 -1.0000001 -1.0000001 -1.2000001 1.0000001 1.0000001 -0.1999999 1 5 3 4 5 -6 
$EndEntities
$Nodes
15 212 1 212
0 1 0 1
1
1 0 0
0 2 0 1
2
1 0 -0.2
0 3 0 1
3
-0.5999999999999999 -1.469576158976824e-16 -1.2
0 4 0 1
4
-1 -2.449293598294706e-16 -0.2
1 1 0 20
5
6
7
8
9
10
11
12
13
14
15
16
17
18
19
20
21
22
23
24
0.9555728057861407 0.2947551744109042 0
0.8262387743159949 0.563320058063622 0
0.6234898018587336 0.7818314824680298 0
0.3653410243663952 0.9308737486442041 0
0.07473009358642417 0.9972037971811801 0
-0.2225209339563143 0.9749279121818236 0
-0.4999999999999998 0.8660254037844387 0
-0.733051871829826 0.6801727377709197 0
-0.900968867902419 0.4338837391175582 0
-0.9888308262251285 0.1490422661761743 0
-0.9888308262251286 -0.149042266176174 0
-0.9009688679024191 -0.433883739117558 0
-0.7330518718298269 -0.6801727377709188 0
-0.5000000000000004 -0.8660254037844384 0
-0.2225209339563146 -0.9749279121818236 0
0.07473009358642348 -0.9972037971811802 0
0.3653410243663954 -0.9308737486442041 0
0.6234898018587334 -0.7818314824680299 0
0.8262387743159945 -0.5633200580636227 0
0.9555728057861408 -0.2947551744109039 0
1 3 0 20
25
26
27
28
29
30
31
32
33
34
35
36
37
38
39
40
41
42
43
44
0.9555728057861407 0.2947551744109042 -0.2
0.8262387743159949 0.563320058063622 -0.2
0.6234898018587336 0.7818314824680298 -0.2
0.3653410243663952 0.9308737486442041 -0.2
0.07473009358642417 0.9972037971811801 -0.2
-0.2225209339563143 0.9749279121818236 -0.2
-0.4999999999999998 0.8660254037844387 -0.2
-0.733051871829826 0.6801727377709197 -0.2
-0.900968867902419 0.4338837391175582 -0.2
-0.9888308262251285 0.1490422661761743 -0.2
-0.9888308262251286 -0.149042266176174 -0.2
-0.9009688679024191 -0.433883739117558 -0.2
-0.7330518718298269 -0.6801727377709188 -0.2
-0.5000000000000004 -0.8660254037844384 -0.2
-0.2225209339563146 -0.9749279121818236 -0.2
0.07473009358642348 -0.9972037971811802 -0.2
0.3653410243663954 -0.9308737486442041 -0.2
0.6234898018587334 -0.7818314824680299 -0.2
0.8262387743159945 -0.5633200580636227 -0.2
0.9555728057861408 -0.2947551744109039 -0.2
1 4 0 12
45
46
47
48
49
50
51
52
53
54
55
56
-0.5312736153919261 0.2788339032262605 -1.2
-0.3408388480386942 0.4937903195361932 -1.2
-0.07232200815319577 0.5956253244588321 -1.2
0.2127629322255185 0.5610097456112498 -1.2
0.4491064489026579 0.39787359494448 -1.2
0.5825650904556299 0.1435893985725395 -1.2
0.5825650904556325 -0.1435893985725287 -1.2
0.4491064489026653 -0.3978735949444717 -1.2
0.2127629322255275 -0.5610097456112464 -1.2
-0.07232200815318862 -0.5956253244588329 -1.2
-0.3408388480386902 -0.493790319536196 -1.2
-0.5312736153919252 -0.2788339032262624 -1.2
1 5 0 3
57
58
59
-0.8999999999999997 -2.204364238465235e-16 -0.4500000000000007
-0.7999999999999994 -1.959434878635764e-16 -0.7000000000000017
-0.6999999999999995 -1.714505518806293e-16 -0.9500000000000013
1 6 0 20
60
61
62
63
64
65
66
67
68
69
70
71
72
73
74
75
76
77
78
79
-0.9555728057861407 0.2947551744109042 -0.2
-0.8262387743159949 0.563320058063622 -0.2
-0.6234898018587336 0.7818314824680298 -0.2
-0.3653410243663952 0.9308737486442041 -0.2
-0.07473009358642417 0.9972037971811801 -0.2
0.2225209339563143 0.9749279121818236 -0.2
0.4999999999999998 0.8660254037844387 -0.2
0.733051871829826 0.6801727377709197 -0.2
0.900968867902419 0.4338837391175582 -0.2
0.9888308262251285 0.1490422661761743 -0.2
0.9888308262251286 -0.149042266176174 -0.2
0.9009688679024191 -0.433883739117558 -0.2
0.7330518718298269 -0.6801727377709188 -0.2
0.5000000000000004 -0.8660254037844384 -0.2
0.2225209339563146 -0.9749279121818236 -0.2
-0.07473009358642348 -0.9972037971811802 -0.2
-0.3653410243663954 -0.9308737486442041 -0.2
-0.6234898018587334 -0.7818314824680299 -0.2
-0.8262387743159945 -0.5633200580636227 -0.2
-0.9555728057861408 -0.2947551744109039 -0.2
2 1 0 39
80
81
82
83
84
85
86
87
88
89
90
91
92
93
94
95
96
97
98
99
100
101
102
103
104
105
106
107
108
109
110
111
112
113
114
115
116
117
118
0.3653410243663953 -0.6327892162918559 0
-0.4555728057861407 0.5712702293735347 0
-0.6119683514631864 -0.410832727786217 0
0.6745566576151708 0.312486636051584 0
0.1676377663930404 0.7204676184863362 0
-0.05460393788372211 -0.7286389135284629 0
-0.7078856420701818 0.008322623096839466 0
0.6583217782434022 -0.3170310594102611 0
0.1784479339461046 -0.7818314824680302 0
0.1153623240543177 -0.5294168876701101 0
-0.1541675461713545 -0.4564830345523685 0
0.02890986021041531 -0.2440396163310651 0
-0.244897786870551 -0.1730868116806 0
-0.07467989703590609 0.04683079375108904 0
0.2125973179432074 -0.005068662482140727 0
0.1088975325590221 0.2658057224810664 0
-0.391883212976429 0.1070580721782736 0
0.3532519449112114 -0.3404438957459185 0
-0.1640862897111623 0.3068987113236318 0
0.4872397072070602 -0.0870675999349335 0
0.3908796876960974 0.2176712058290494 0
0.2666513310343876 0.4936865285675194 0
-0.305837518424441 -0.6700497410797542 0
0.7483565321712039 -0.07142914440146539 0
0.01020755915711398 0.5160353620926398 0
-0.08687781675306673 0.7532072987287215 0
0.5283104215840499 0.5125807957590173 0
-0.5172767761277179 -0.1805402533556122 0
-0.6449842602322907 0.318838298758387 0
-0.7556344843549941 -0.2347528356960364 0
0.5653286647391473 -0.5270831423959377 0
-0.2353186735374986 0.5431578335037602 0
0.3896461284577771 0.6932025572962438 0
-0.3893908037091081 -0.4065326287080195 0
-0.4046463657827422 0.3530194633561992 0
0.619118995037689 0.1004413809376572 0
-0.5153805885952537 -0.6112156221184903 0
-0.3000580460066041 0.7417177355144557 0
0.7995209981220408 0.127250809399736 0
2 2 0 21
119
120
121
122
123
124
125
126
127
128
129
130
131
132
133
134
135
136
137
138
139
0.2225209339563133 -0.9749279121818238 -0.09999999999999999
0.9009688679024187 -0.4338837391175591 -0.09999999999999998
-0.3653410243663957 -0.930873748644204 -0.1
-0.9555728057861408 0.2947551744109042 -0.1
0.2225209339563147 0.9749279121818235 -0.09999999999999998
-0.9555728057861408 -0.2947551744109039 -0.09999999999999999
-0.6234898018587344 -0.7818314824680291 -0.1
-0.8262387743159945 0.5633200580636226 -0.1
0.9888308262251285 0.1490422661761744 -0.1
0.9009688679024191 0.4338837391175582 -0.1
0.7330518718298265 0.6801727377709192 -0.1
-0.07473009358642449 0.9972037971811801 -0.1
0.5000000000000001 0.8660254037844386 -0.1
-0.3653410243663947 0.9308737486442044 -0.1
-0.6234898018587332 0.7818314824680301 -0.09999999999999999
0.9888308262251286 -0.1490422661761735 -0.1
0.4999999999999993 -0.866025403784439 -0.1
0.7330518718298253 -0.6801727377709205 -0.1
-0.07473009358642473 -0.9972037971811801 -0.1
-1 1.224646799147353e-16 -0.1
-0.8262387743159956 -0.563320058063621 -0.09999999999999998
2 4 0 58
140
141
142
143
144
145
146
147
148
149
150
151
152
153
154
155
156
157
158
159
160
161
162
163
164
165
166
167
168
169
170
171
172
173
174
175
176
177
178
179
180
181
182
183
184
185
186
187
188
189
190
191
192
193
194
195
196
197
0.7005714597761112 -0.02807530347797876 -0.9471655224354967
-0.5306897052085194 0.4566121995343584 -0.9497745431339604
-0.5306897052074913 -0.4566121995347909 -0.9497745431352036
0.08314206942293915 0.6847365461882808 -0.9755857128546075
0.08314206942294913 -0.6847365461882802 -0.9755857128546059
0.7403446694524733 -0.5124221605128213 -0.4490464518185304
0.7458149775786618 0.508488041876441 -0.4433430844610031
-0.1502456606824961 -0.8783727913194068 -0.4721752213703976
-0.2294965300276662 -0.6719615268272735 -0.9248222785612772
-0.1503330786667212 0.8799477323313989 -0.4682573426571645
-0.229778438452136 0.6728818910370928 -0.9224170728501226
0.3127763280085477 0.8509980791131402 -0.4333577118114158
0.361479783742629 0.5983595409981987 -0.9523197976349604
0.3297797396666136 -0.8402650729486694 -0.4433430844609815
0.3816817844852057 -0.5979528493059727 -0.9265348280115873
-0.6584011282804914 0.6157115748060857 -0.4464017812185134
-0.6584011282800849 -0.6157115748062112 -0.4464017812190415
0.8966333545952521 -0.00682502745424737 -0.4583516757019985
0.6259768482699372 -0.3360717736143639 -0.9237834246806569
0.5787108546708758 0.4037806013122725 -0.9358695000971515
-0.8209671349916619 -0.2228644261484125 -0.5733012831225972
-0.8224976591765416 0.2312954834170073 -0.5639990636706208
0.7654867953735172 -0.1794688358356304 -0.7343908435814781
-0.4798306145522881 -0.6466712340990389 -0.6868850261460466
-0.4466212975315426 0.6507121323254024 -0.7269046168452875
0.542811853953211 0.5881418156058096 -0.6991322131756494
0.5853943149710656 -0.5395648301944089 -0.7096848396812181
-0.04430845996430016 0.7857634257392234 -0.7324707739561909
-0.0494275091196972 -0.7832337106401194 -0.7380205720037674
0.7936349343410614 0.1107941586229574 -0.6966719025089934
-0.6727992218375352 -0.4512224330698545 -0.6747523654336238
-0.6708736633803195 0.4525869214207711 -0.6768428236132064
0.2785181991773302 0.7442127452435877 -0.7134436242331612
0.2341533402213938 -0.7375350148539522 -0.7654689119962828
-0.7212282248411145 -0.2310001301782865 -0.8067039117423904
-0.7213049993602605 0.2326600265562287 -0.8052513523239249
0.7183678904320169 0.3606181760728366 -0.6904946272187937
0.8492437251366882 -0.2671374643239713 -0.4743296943259431
-0.4417782878366952 -0.7753629928794601 -0.4690307230783693
-0.4357209927163048 0.78321031434243 -0.4593650732632026
0.8568780194645542 0.2656041264911532 -0.4572540655334119
0.5675825699509341 -0.7055272325232804 -0.436266013938384
0.5617459841316752 0.718995751306488 -0.418945637039686
0.07971059293335472 0.920542879912385 -0.3900311522890959
0.08210250573678214 -0.9191648725218197 -0.3929389849768938
-0.8183111841116079 0.4149624038413812 -0.4062217431659298
-0.8203435614309809 -0.4097928666910582 -0.4074935218573797
0.4089125322800846 -0.714954136818038 -0.6409212059622741
-0.6406842378883215 -0.2047468839692191 -1.018487326888294
-0.6374406170550687 0.2063649044254151 -1.024968257670064
-0.2636880323971873 0.7785282944606186 -0.6450704335287125
-0.2614346898228292 -0.770988231209172 -0.6647313603208811
0.6940862269922282 0.2014925627655234 -0.8931468250191763
0.7263691556303958 -0.3775264412897857 -0.653450519587689
-0.9081526936611419 0.1960569799516997 -0.3773134434563589
-0.907125276869188 -0.1928808660276547 -0.3814884941861688
0.1312579332871633 -0.8330285008538818 -0.5917348241301524
0.107497750804119 0.8438515632036901 -0.5733223869888391
2 5 0 15
198
199
200
201
202
203
204
205
206
207
208
209
210
211
212
-0.2543128700203393 0.2008946876437929 -1.2
0.3237262453680874 -0.1726054290773199 -1.2
0.1833602130443515 0.2703412311558972 -1.2
-0.1183887268384225 -0.3121654173127515 -1.2
-0.3241595640656484 -0.07989815663227898 -1.2
-0.3286651885836716 -0.2911719491768722 -1.2
-0.0642734163185089 -0.02903018497100982 -1.2
-0.01401654799755853 0.1749155964834768 -1.2
0.09405743726749158 -0.2134248410518703 -1.2
0.1533023280122963 0.01081384132603341 -1.2
0.3791042360397759 0.08440387305818356 -1.2
-0.04756118815665297 0.3827628174815736 -1.2
0.05600717865512906 -0.4248501920357767 -1.2
-0.4274365123694784 0.09995760855944358 -1.2
0.2430638877839988 -0.3545288056075977 -1.2
3 1 0 0
3 10 0 0
$EndNodes
$Elements
4 378 1 378
2 1 2 97
1 12 108 81 
2 13 108 12 
3 86 108 14 
4 14 108 13 
5 91 97 94 
6 96 108 86 
7 86 107 96 
8 97 99 94 
9 89 97 91 
10 83 106 100 
11 100 106 101 
12 99 100 94 
13 93 98 96 
14 24 87 23 
15 9 84 8 
16 15 86 14 
17 20 85 19 
18 12 81 11 
19 17 82 16 
20 6 83 5 
21 22 80 21 
22 95 98 93 
23 94 95 93 
24 93 96 92 
25 91 94 93 
26 91 93 92 
27 91 92 90 
28 89 91 90 
29 87 99 97 
30 19 102 18 
31 85 102 19 
32 97 110 87 
33 94 100 95 
34 1 103 24 
35 24 103 87 
36 82 113 107 
37 107 109 82 
38 89 90 85 
39 80 97 89 
40 9 105 84 
41 10 105 9 
42 80 110 97 
43 7 106 6 
44 6 106 83 
45 108 114 81 
46 84 104 101 
47 101 104 95 
48 100 101 95 
49 99 115 100 
50 113 116 102 
51 96 114 108 
52 90 113 102 
53 90 102 85 
54 95 104 98 
55 87 103 99 
56 96 107 92 
57 98 114 96 
58 21 88 20 
59 88 89 85 
60 80 89 88 
61 16 109 15 
62 87 110 23 
63 15 109 86 
64 20 88 85 
65 23 110 22 
66 82 109 16 
67 80 88 21 
68 22 110 80 
69 107 113 92 
70 8 112 7 
71 18 116 17 
72 83 118 5 
73 86 109 107 
74 81 117 11 
75 11 117 10 
76 84 112 8 
77 92 113 90 
78 17 116 82 
79 84 105 104 
80 5 118 1 
81 100 115 83 
82 101 112 84 
83 111 114 98 
84 81 114 111 
85 102 116 18 
86 82 116 113 
87 106 112 101 
88 7 112 106 
89 104 111 98 
90 105 111 104 
91 10 117 105 
92 103 115 99 
93 1 118 103 
94 111 117 81 
95 115 118 83 
96 105 117 111 
97 103 118 115 
2 2 2 84
98 20 119 21 
99 23 120 24 
100 13 122 14 
101 15 124 16 
102 18 121 19 
103 29 123 28 
104 38 125 37 
105 12 126 13 
106 6 129 7 
107 5 128 6 
108 31 132 30 
109 11 133 12 
110 35 138 34 
111 9 130 10 
112 19 137 20 
113 16 139 17 
114 22 136 23 
115 1 127 5 
116 25 127 2 
117 7 131 8 
118 28 131 27 
119 2 134 44 
120 21 135 22 
121 24 134 1 
122 42 135 41 
123 41 119 40 
124 44 120 43 
125 39 121 38 
126 33 126 32 
127 17 125 18 
128 43 136 42 
129 36 124 35 
130 8 123 9 
131 34 122 33 
132 30 130 29 
133 10 132 11 
134 27 129 26 
135 32 133 31 
136 26 128 25 
137 40 137 39 
138 14 138 15 
139 37 139 36 
140 41 135 21 
141 44 134 24 
142 2 127 1 
143 27 131 7 
144 40 119 20 
145 21 119 41 
146 43 120 23 
147 24 120 44 
148 18 125 38 
149 19 121 39 
150 32 126 12 
151 26 129 6 
152 28 123 8 
153 33 122 13 
154 13 126 33 
155 14 122 34 
156 35 124 15 
157 16 124 36 
158 9 123 29 
159 12 133 32 
160 25 128 5 
161 7 129 27 
162 29 130 9 
163 10 130 30 
164 11 132 31 
165 6 128 26 
166 30 132 10 
167 34 138 14 
168 15 138 35 
169 38 121 18 
170 31 133 11 
171 37 125 17 
172 17 139 37 
173 39 137 19 
174 20 137 40 
175 36 139 16 
176 42 136 22 
177 23 136 43 
178 8 131 28 
179 5 127 25 
180 1 134 2 
181 22 135 42 
2 4 2 156
182 172 182 165 
183 151 182 172 
184 55 148 142 
185 141 150 46 
186 52 158 154 
187 158 166 154 
188 141 164 150 
189 148 163 142 
190 162 169 157 
191 156 170 163 
192 164 171 155 
193 145 181 166 
194 71 177 70 
195 157 177 162 
196 49 159 50 
197 77 178 76 
198 63 179 62 
199 159 192 50 
200 69 180 68 
201 181 187 166 
202 163 178 156 
203 155 179 164 
204 165 182 146 
205 168 196 147 
206 149 197 167 
207 170 186 160 
208 161 185 171 
209 167 172 143 
210 141 175 171 
211 170 174 142 
212 145 177 71 
213 147 196 184 
214 152 159 49 
215 156 186 170 
216 171 185 155 
217 76 178 147 
218 149 179 63 
219 183 197 149 
220 141 189 175 
221 174 188 142 
222 140 162 158 
223 146 176 165 
224 158 193 166 
225 166 187 154 
226 70 177 157 
227 162 193 158 
228 157 180 69 
229 46 150 47 
230 52 154 53 
231 48 152 49 
232 54 148 55 
233 143 172 152 
234 140 158 51 
235 156 178 77 
236 62 179 155 
237 141 171 164 
238 163 170 142 
239 68 180 146 
240 164 190 150 
241 154 187 173 
242 153 196 187 
243 187 196 173 
244 167 190 149 
245 147 191 168 
246 166 193 145 
247 160 174 170 
248 171 175 161 
249 140 169 162 
250 152 165 159 
251 50 192 140 
252 150 190 167 
253 68 146 67 
254 72 145 71 
255 76 147 75 
256 64 149 63 
257 66 151 65 
258 74 153 73 
259 70 157 69 
260 62 155 61 
261 78 156 77 
262 167 197 172 
263 152 172 165 
264 55 142 56 
265 53 144 54 
266 45 141 46 
267 50 140 51 
268 47 143 48 
269 51 158 52 
270 148 191 163 
271 47 150 143 
272 53 154 144 
273 143 152 48 
274 144 148 54 
275 169 180 157 
276 150 167 143 
277 144 168 148 
278 58 160 57 
279 57 161 58 
280 59 174 58 
281 58 175 59 
282 58 174 160 
283 161 175 58 
284 72 181 145 
285 146 182 67 
286 74 184 153 
287 151 183 65 
288 168 191 148 
289 144 173 168 
290 176 180 169 
291 165 176 159 
292 75 184 74 
293 73 181 72 
294 67 182 66 
295 65 183 64 
296 4 195 79 
297 59 189 3 
298 3 188 59 
299 60 194 4 
300 3 189 45 
301 56 188 3 
302 61 185 60 
303 79 186 78 
304 66 182 151 
305 153 181 73 
306 64 183 149 
307 147 184 75 
308 154 173 144 
309 4 194 57 
310 57 195 4 
311 45 189 141 
312 142 188 56 
313 169 192 176 
314 146 180 176 
315 78 186 156 
316 155 185 61 
317 172 197 151 
318 178 191 147 
319 184 196 153 
320 140 192 169 
321 176 192 159 
322 59 188 174 
323 175 189 59 
324 151 197 183 
325 153 187 181 
326 79 195 186 
327 149 190 179 
328 145 193 177 
329 185 194 60 
330 173 196 168 
331 57 194 161 
332 160 195 57 
333 163 191 178 
334 179 190 164 
335 177 193 162 
336 161 194 185 
337 186 195 160 
2 5 2 41
338 200 209 48 
339 49 208 200 
340 48 209 47 
341 50 208 49 
342 198 204 202 
343 202 204 201 
344 198 205 204 
345 3 202 56 
346 55 201 54 
347 46 198 45 
348 49 200 48 
349 52 199 51 
350 205 209 200 
351 200 208 207 
352 201 203 202 
353 202 211 198 
354 199 208 51 
355 51 208 50 
356 204 206 201 
357 46 209 198 
358 47 209 46 
359 206 207 199 
360 204 207 206 
361 54 210 53 
362 201 210 54 
363 56 203 55 
364 3 211 202 
365 55 203 201 
366 45 211 3 
367 198 211 45 
368 202 203 56 
369 53 212 52 
370 52 212 199 
371 200 207 205 
372 205 207 204 
373 207 208 199 
374 198 209 205 
375 199 212 206 
376 206 210 201 
377 206 212 210 
378 210 212 53 
$EndElements
