$MeshFormat
4.1 0 8
$EndMeshFormat
$PhysicalNames
7
2 1 "Slope"
2 2 "WarmingPatch"
2 3 "Wall"
2 4 "Bottom"
2 5 "FresheningPatch"
2 6 "CoolingPatch"
3 7 "ArcticBasin"
$EndPhysicalNames
$Entities
9 14 8 1
1 -1 -2.449293598294706e-16 -0.1 0 
2 -0.5999999999999999 -1.469576158976824e-16 -0.6000000000000001 0 
3 1 1.224646799147353e-16 -0.1 0 
4 0.8660254037844387 0.4999999999999999 -0.1 0 
5 -1 -2.449293598294706e-16 0 0 
6 1 1.224646799147353e-16 0 0 
7 0.8660254037844387 0.4999999999999999 0 0 
8 0.7048734418489653 0.2588190451025207 0 0 
9 -0.6 -1.469576158976824e-16 0 0 
1 -1.0000001 -1.000000002449294e-07 -0.6000001 -0.5999998999999999 9.999999985304237e-08 -0.09999989999999997 0 2 1 -2 
2 -1.000000100000001 -1.000000100000001 -0.1000001000000004 1.000000100000001 1.000000005024759e-07 -0.0999998999999996 0 2 3 -1 
3 0.8660253037844388 -9.999999989185326e-08 -0.1000001 1.0000001 0.5000000999999999 -0.0999999 0 2 4 -3 
4 -1.0000001 -9.999999994736442e-08 -0.1000001 0.8660255037844387 1.0000001 -0.0999999 0 2 1 -4 
5 -0.6000000999999998 -0.6000000999999998 -0.6000001 0.6000000999999998 0.6000000999999998 -0.5999999000000001 0 2 2 -2 
6 -1.0000001 -1.000000002449294e-07 -0.1000001 -0.9999999000000001 9.999999975507064e-08 1.000000000028756e-07 0 2 5 -1 
7 -1.0000001 -1.0000001 -1e-07 1.0000001 1.000000001138979e-07 1e-07 0 2 6 -5 
8 0.9999998999999999 -9.999999987753531e-08 -0.1000001 1.0000001 1.000000001550911e-07 1.000000000167534e-07 0 2 6 -3 
9 0.8660253037844388 -9.999999989185326e-08 -1e-07 1.0000001 0.5000000999999999 1e-07 0 2 7 -6 
10 0.8660253037844386 0.4999998999999996 -0.1000001000000002 0.866025503784439 0.5000000999999999 1.000000001971646e-07 0 2 7 -4 
11 -1.0000001 -9.999999994736442e-08 -1e-07 0.8660255037844387 1.0000001 1e-07 0 2 5 -7 
12 0.7048733418489653 -0.002233439337582355 -1e-07 1.0000001 0.2588191451025207 1e-07 0 2 6 -8 
13 0.7048733418489653 0.2588189451025207 -1e-07 0.8660255037844387 0.5000000999999998 1e-07 0 2 8 -7 
14 -0.6000000999999999 -0.6000000999999999 -1e-07 0.6000000999999999 0.6000000999999999 1e-07 0 2 9 -9 
1 -1.0000001 -1.0000001 -0.6000000999999999 1.0000001 1.0000001 -0.09999990000000003 1 1 6 1 -5 -1 4 3 2 
2 -1.0000001 -1.0000001 -0.1000001 1.0000001 1.000000001138979e-07 1.000000000028756e-07 1 3 4 6 -2 -8 7 
3 0.8660253037844388 -9.999999989185326e-08 -0.1000001 1.0000001 0.5000000999999999 1.000000000028756e-07 1 2 4 -3 -10 9 8 
4 -1.0000001 -9.999999994736442e-08 -0.1000001 0.8660255037844389 1.0000001 1.000000000028756e-07 1 3 4 -4 -6 11 10 
5 -0.6000000999999998 -0.6000000999999998 -0.6000001 0.6000000999999998 0.6000000999999998 -0.5999999000000001 1 4 1 5 
6 -1.0000001 -1.0000001 -1e-07 1.0000001 1.0000001 1e-07 1 5 5 7 11 -13 -12 -14 
7 0.7048733418489653 -0.002233439337582355 -1e-07 1.0000001 0.5000000999999999 1e-07 1 2 3 13 9 12 
8 -0.6000000999999999 -0.6000000999999999 -1e-07 0.6000000999999999 0.6000000999999999 1e-07 1 6 1 14 
1 -1.0000001 -1.0000001 -0.6000001 1.0000001 1.0000001 1.000000000028756e-07 1 7 8 1 2 3 4 5 -6 -7 -8 
$EndEntities
$Nodes
29 188 1 188
0 1 0 1
1
-1 -2.449293598294706e-16 -0.1
0 2 0 1
2
-0.5999999999999999 -1.469576158976824e-16 -0.6000000000000001
0 3 0 1
3
1 1.224646799147353e-16 -0.1
0 4 0 1
4
0.8660254037844387 0.4999999999999999 -0.1
0 5 0 1
5
-1 -2.449293598294706e-16 0
0 6 0 1
6
1 1.224646799147353e-16 0
0 7 0 1
7
0.8660254037844387 0.4999999999999999 0
0 8 0 1
8
0.7048734418489653 0.2588190451025207 0
0 9 0 1
9
-0.6 0 0
1 1 0 2
10
11
-0.8666666666666663 -2.122721118522078e-16 -0.2666666666666672
-0.7333333333333329 -1.796148638749451e-16 -0.4333333333333337
1 2 0 10
12
13
14
15
16
17
18
19
20
21
0.9594929736144975 -0.2817325568414294 -0.1
0.8412535328311812 -0.5406408174555976 -0.1
0.6548607339452852 -0.7557495743542582 -0.1
0.4154150130018872 -0.909631995354518 -0.1
0.1423148382732852 -0.9898214418809327 -0.1
-0.1423148382732866 -0.9898214418809325 -0.1
-0.4154150130018884 -0.9096319953545174 -0.1
-0.654860733945288 -0.7557495743542557 -0.1
-0.8412535328311826 -0.5406408174555952 -0.1
-0.9594929736144976 -0.2817325568414289 -0.1
1 3 0 1
22
0.9659258262890682 0.258819045102521 -0.1
1 4 0 9
23
24
25
26
27
28
29
30
31
-0.9659258262890684 0.2588190451025203 -0.1
-0.8660254037844393 0.499999999999999 -0.1
-0.7071067811865488 0.7071067811865462 -0.1
-0.5000000000000022 0.8660254037844374 -0.1
-0.2588190451025229 0.9659258262890678 -0.1
-1.393499969507555e-15 1 -0.1
0.2588190451025202 0.9659258262890684 -0.1
0.4999999999999998 0.8660254037844387 -0.1
0.7071067811865468 0.7071067811865482 -0.1
1 5 0 13
32
33
34
35
36
37
38
39
40
41
42
43
44
-0.5405813207414516 0.2603302434705342 -0.6000000000000001
-0.3740938811152408 0.4690988894808171 -0.6000000000000001
-0.1335125603737904 0.5849567473090936 -0.6000000000000001
0.1335125603737858 0.5849567473090946 -0.6000000000000001
0.3740938811152371 0.4690988894808201 -0.6000000000000001
0.5405813207414493 0.2603302434705392 -0.6000000000000001
0.5999999999999999 5.669002852059629e-15 -0.6000000000000001
0.5405813207414543 -0.2603302434705287 -0.6000000000000001
0.3740938811152456 -0.4690988894808135 -0.6000000000000001
0.1335125603737944 -0.5849567473090928 -0.6000000000000001
-0.1335125603737843 -0.5849567473090951 -0.6000000000000001
-0.3740938811152379 -0.4690988894808195 -0.6000000000000001
-0.5405813207414508 -0.2603302434705359 -0.6000000000000001
1 7 0 10
45
46
47
48
49
50
51
52
53
54
0.9594929736144975 -0.2817325568414294 0
0.8412535328311812 -0.5406408174555976 0
0.6548607339452852 -0.7557495743542582 0
0.4154150130018872 -0.909631995354518 0
0.1423148382732852 -0.9898214418809327 0
-0.1423148382732866 -0.9898214418809325 0
-0.4154150130018884 -0.9096319953545174 0
-0.654860733945288 -0.7557495743542557 0
-0.8412535328311826 -0.5406408174555952 0
-0.9594929736144976 -0.2817325568414289 0
1 9 0 1
55
0.9659258262890682 0.258819045102521 0
1 11 0 9
56
57
58
59
60
61
62
63
64
-0.9659258262890684 0.2588190451025203 0
-0.8660254037844393 0.499999999999999 0
-0.7071067811865488 0.7071067811865462 0
-0.5000000000000022 0.8660254037844374 0
-0.2588190451025229 0.9659258262890678 0
-1.393499969507555e-15 1 0
0.2588190451025202 0.9659258262890684 0
0.4999999999999998 0.8660254037844387 0
0.7071067811865468 0.7071067811865482 0
1 12 0 1
65
0.7938020290865921 0.06254947064314553 0
1 13 0 1
66
0.7488687014080008 0.4038519791562316 0
1 14 0 13
67
68
69
70
71
72
73
74
75
76
77
78
79
-0.5405813207414517 0.2603302434705343 0
-0.3740938811152411 0.4690988894808171 0
-0.1335125603737908 0.5849567473090936 0
0.1335125603737856 0.5849567473090949 0
0.3740938811152372 0.4690988894808202 0
0.5405813207414494 0.2603302434705392 0
0.6 5.66900285205963e-15 0
0.5405813207414544 -0.2603302434705287 0
0.374093881115246 -0.4690988894808131 0
0.1335125603737945 -0.5849567473090929 0
-0.1335125603737844 -0.5849567473090952 0
-0.3740938811152379 -0.4690988894808196 0
-0.5405813207414507 -0.2603302434705364 0
2 1 0 43
80
81
82
83
84
85
86
87
88
89
90
91
92
93
94
95
96
97
98
99
100
101
102
103
104
105
106
107
108
109
110
111
112
113
114
115
116
117
118
119
120
121
122
-0.787046286147667 0.1840963790905764 -0.339637028918338
-0.5656893414268646 0.5005163034077844 -0.4058394924417039
0.7014259220491863 0.5426431086273495 -0.2414678430864473
-0.4239358536447935 0.6458741450691254 -0.3842789131347939
0.3492360789636421 0.815846949070948 -0.2406842740072591
0.01177278955229632 -0.7360884074966605 -0.4297718164899158
-0.2577403447867329 -0.7136892517167065 -0.4014958871442487
-0.6364339383575589 -0.5514731468246283 -0.2973465153762231
0.320381501379212 -0.6652790426798848 -0.4269949628937368
0.5773075171890039 -0.4603873821599905 -0.4269949628937375
0.7198906990074536 -0.164310354322607 -0.4269949628937378
0.7198906990074504 0.1643103543226209 -0.4269949628937378
-2.832510934361367e-15 0.7384040296850098 -0.4269949628937376
-0.7849239669954232 -0.1652865069993256 -0.3473275839039964
0.7773641646925055 -0.3699310980797586 -0.273878447070676
0.8500344847756096 0.02330795563460861 -0.2870575288206438
-0.1162319024493434 0.8615224595301106 -0.2633402646888171
-0.2394818639572163 0.7053241257329718 -0.4189105125702508
-0.3537697537388698 0.8043249117316547 -0.2516407106132442
0.1907204394763094 -0.8347448758911395 -0.2796807618018303
-0.5529317647425884 0.6853440720628718 -0.2492686851652101
-0.7157357184076044 0.5221109187631413 -0.2425836444565122
0.5382509114040607 -0.6572865221303718 -0.2880592532114097
-0.4433632552029244 -0.7469976432272515 -0.2641704963404696
0.309384488126599 0.6658671744099047 -0.4322089567114928
0.7984800631685158 0.3315216232740211 -0.2692905990335569
0.5245021813287759 0.6835445508182202 -0.2730136874332454
0.1299032378958202 0.8631081995024847 -0.258963641141885
0.5875362560684732 0.4639786823909406 -0.4141889631279455
-0.1337229233556496 -0.8410312827077803 -0.2855052264073558
-0.548963010930136 -0.4530698355078597 -0.4602733362004165
-0.8217224796640221 -0.3378775360238391 -0.2394053796116625
-0.8295982287807114 0.341501666270809 -0.2285774873083682
-0.6937440924085219 0.1680201430357786 -0.4577489543492683
-0.6672223662105405 -0.1493776178876776 -0.4953259405102602
-0.4215333129320353 -0.6035491281172242 -0.4297742430841031
0.6922695849252845 -0.5452174120847586 -0.2485100966098896
-0.6807319619122189 -0.31916045057385 -0.4102033155555652
-0.7009698864509466 0.3390280757517719 -0.3766850957142952
0.8435398148549207 -0.1916316024784884 -0.2687087505599878
-0.8991738629774841 -0.1591001751697908 -0.2085737392404969
0.4294805731620701 -0.7807534416036117 -0.2361458386954441
-0.8948369701030602 0.1587964176977905 -0.2139779482382972
2 2 0 0
2 3 0 0
2 4 0 0
2 5 0 17
123
124
125
126
127
128
129
130
131
132
133
134
135
136
137
138
139
0.1602624363611812 0.3274612493478846 -0.6000000000000001
-0.1465184891857428 -0.2830368250831101 -0.6000000000000001
0.3448380561518563 -0.07870703603804155 -0.6000000000000001
-0.265859559098525 0.226727264579392 -0.6000000000000001
0.1540335959250486 -0.3176964158962545 -0.6000000000000001
-0.3448380561518541 -0.07870703603804519 -0.6000000000000001
0.3448380561518528 0.2749991732550428 -0.6000000000000001
0.2118412598137961 0.1148711308734705 -0.6000000000000001
-0.01339879448755988 0.1584161796379727 -0.6000000000000001
0.06583196483644518 -0.06848853300388508 -0.6000000000000001
-0.05830417167140964 0.3782274759554261 -0.6000000000000001
-0.1558038391987272 -0.004778231517347464 -0.6000000000000001
0.3533867134834012 -0.2814581462214096 -0.6000000000000001
0.4300060226069408 0.09814606860850157 -0.6000000000000001
-0.4122984906941024 0.09179343722745122 -0.6000000000000001
-0.3515079367985714 -0.2727932485181277 -0.6000000000000001
0.001878776684828963 -0.4426616838993881 -0.6000000000000001
2 6 0 19
140
141
142
143
144
145
146
147
148
149
150
151
152
153
154
155
156
157
158
0.5743142136720221 0.4433595559510422 0
0.7757226665343168 -0.1408045462248911 0
-0.6236331411488631 0.4602284125641938 0
5.094408152312652e-15 -0.7731451084854774 0
0.297912026616759 0.7243218363606456 0
-0.2979011986602033 0.7243077250929206 0
0.5233587718849182 0.6266182599571565 0
-0.5999899650053148 -0.4941719228630431 0
0.5843238375072366 -0.5143554128178042 0
-0.7529419127917808 0.1718540781895609 0
-3.389777759872997e-15 0.7710039807304443 0
-0.7877385966099647 -0.1151033258376856 0
0.3346938806468961 -0.6949990044650874 0
-0.3346938806468838 -0.6949990044650926 0
-0.5005470004221717 0.6453534424217831 0
-0.7458112777604821 -0.3383957732936579 0
0.6839347743871853 0.5361873152501956 0
0.6598141979192517 0.1454246898040528 0
0.7402748662457372 -0.3475727153620503 0
2 7 0 1
159
0.828293018330823 0.2978285195767891 0
2 8 0 17
160
161
162
163
164
165
166
167
168
169
170
171
172
173
174
175
176
0.3360820561021787 -0.08365756599297865 0
-0.3448380561518551 0.0787070360380448 0
0.1534673726371799 0.3186782829568487 0
-0.16959150040775 -0.3334206087882554 0
-0.1534673726371826 0.3186782829568473 0
0.1534673726371847 -0.3186782829568449 0
-0.4300060226069413 -0.09814606860849825 0
-0.2194235257773611 -0.118252653478854 0
2.026157019940911e-15 -0.1676399273747609 0
-0.04435142155015232 0.08687300109894912 0
0.1692097254452661 0.08400298522223093 0
0.3622390593402185 0.1747421391895776 0
-0.344838056151853 -0.2749991732550408 0
-1.97758476261356e-15 0.4518175151329711 0
0.3510561576490159 -0.2829412454752914 0
3.735773271960602e-15 -0.4410644286966983 0
-0.3532451576614327 0.2817036129865609 0
3 1 0 12
177
178
179
180
181
182
183
184
185
186
187
188
-0.4169311280388302 -0.1805644894928192 -0.3048521574786464
0.3247476944075761 0.1563902471429553 -0.3106077546685626
-0.4174281536534218 0.2119518085579701 -0.3045663137061059
-0.118544439230737 -0.4404131588565929 -0.3003779988094831
0.2340688889370776 -0.1915272113781879 -0.3002348080213812
-0.1690079353537653 0.01599200976241177 -0.2828778461828225
0.08571031096717666 0.4498536166260011 -0.3109898305543904
-0.216445821429761 0.4388309561758824 -0.2728892322622716
-0.5638299495623784 0.01546689011545276 -0.2483087334679861
0.05014194605947261 0.1767700469055187 -0.3318566110998077
-0.3269793725491233 -0.3769455978708739 -0.2113806425987194
0.1358929580189978 -0.4507215227655101 -0.3720574044309935
$EndNodes
$Elements
9 880 1 880
2 1 2 127
1 10 120 1 
2 1 122 10 
3 1 120 21 
4 23 122 1 
5 11 113 2 
6 2 114 11 
7 2 113 32 
8 44 114 2 
9 12 119 3 
10 3 95 22 
11 3 119 95 
12 22 105 4 
13 4 82 31 
14 4 105 82 
15 10 80 11 
16 11 93 10 
17 10 122 80 
18 93 120 10 
19 80 113 11 
20 11 114 93 
21 13 94 12 
22 94 119 12 
23 14 116 13 
24 13 116 94 
25 15 121 14 
26 102 116 14 
27 14 121 102 
28 16 99 15 
29 99 121 15 
30 17 109 16 
31 16 109 99 
32 18 109 17 
33 19 103 18 
34 103 109 18 
35 20 87 19 
36 87 103 19 
37 21 111 20 
38 20 111 87 
39 21 120 111 
40 95 105 22 
41 24 112 23 
42 112 122 23 
43 25 101 24 
44 101 112 24 
45 26 100 25 
46 100 101 25 
47 27 98 26 
48 98 100 26 
49 28 96 27 
50 96 98 27 
51 29 107 28 
52 28 107 96 
53 30 84 29 
54 84 107 29 
55 31 106 30 
56 30 106 84 
57 82 106 31 
58 32 81 33 
59 32 118 81 
60 113 118 32 
61 33 97 34 
62 81 83 33 
63 83 97 33 
64 34 92 35 
65 34 97 92 
66 35 104 36 
67 92 104 35 
68 36 108 37 
69 104 108 36 
70 37 91 38 
71 37 108 91 
72 38 90 39 
73 38 91 90 
74 39 89 40 
75 39 90 89 
76 40 88 41 
77 40 89 88 
78 41 85 42 
79 41 88 85 
80 42 115 43 
81 85 86 42 
82 86 115 42 
83 43 110 44 
84 43 115 110 
85 110 117 44 
86 44 117 114 
87 112 118 80 
88 80 122 112 
89 80 118 113 
90 81 100 83 
91 81 101 100 
92 81 118 101 
93 105 108 82 
94 82 108 106 
95 83 98 97 
96 83 100 98 
97 84 106 104 
98 104 107 84 
99 85 109 86 
100 88 99 85 
101 99 109 85 
102 86 109 103 
103 103 115 86 
104 87 115 103 
105 110 115 87 
106 87 117 110 
107 111 117 87 
108 89 102 88 
109 88 121 99 
110 102 121 88 
111 90 94 89 
112 94 116 89 
113 89 116 102 
114 91 95 90 
115 90 119 94 
116 95 119 90 
117 91 105 95 
118 91 108 105 
119 92 97 96 
120 96 107 92 
121 92 107 104 
122 93 117 111 
123 111 120 93 
124 114 117 93 
125 97 98 96 
126 101 118 112 
127 106 108 104 
2 2 2 22
128 21 5 1 
129 6 45 3 
130 3 45 12 
131 54 5 21 
132 12 46 13 
133 12 45 46 
134 13 47 14 
135 46 47 13 
136 14 47 15 
137 15 49 16 
138 47 48 15 
139 48 49 15 
140 16 50 17 
141 49 50 16 
142 50 18 17 
143 18 51 19 
144 50 51 18 
145 52 20 19 
146 51 52 19 
147 20 53 21 
148 52 53 20 
149 53 54 21 
2 3 2 4
150 55 6 3 
151 22 55 3 
152 4 7 22 
153 7 55 22 
2 4 2 20
154 1 5 23 
155 64 7 4 
156 31 64 4 
157 5 56 23 
158 23 56 24 
159 24 58 25 
160 56 57 24 
161 57 58 24 
162 25 59 26 
163 58 59 25 
164 59 27 26 
165 27 60 28 
166 59 60 27 
167 28 61 29 
168 60 61 28 
169 29 62 30 
170 61 62 29 
171 30 63 31 
172 62 63 30 
173 63 64 31 
2 5 2 46
174 32 137 2 
175 2 128 44 
176 2 137 128 
177 33 126 32 
178 126 137 32 
179 34 133 33 
180 33 133 126 
181 35 133 34 
182 36 123 35 
183 123 133 35 
184 37 129 36 
185 36 129 123 
186 38 136 37 
187 37 136 129 
188 39 125 38 
189 125 136 38 
190 40 135 39 
191 39 135 125 
192 41 127 40 
193 127 135 40 
194 42 139 41 
195 41 139 127 
196 43 124 42 
197 124 139 42 
198 44 138 43 
199 43 138 124 
200 128 138 44 
201 129 130 123 
202 130 131 123 
203 131 133 123 
204 124 132 127 
205 127 139 124 
206 128 134 124 
207 124 138 128 
208 124 134 132 
209 127 132 125 
210 125 135 127 
211 125 132 130 
212 130 136 125 
213 126 133 131 
214 131 134 126 
215 134 137 126 
216 128 137 134 
217 129 136 130 
218 130 132 131 
219 132 134 131 
2 6 2 77
220 5 54 151 
221 56 5 149 
222 149 5 151 
223 45 6 141 
224 6 65 141 
225 7 64 156 
226 66 7 156 
227 65 8 157 
228 8 66 140 
229 72 8 140 
230 8 72 157 
231 9 67 149 
232 79 9 151 
233 9 149 151 
234 46 45 158 
235 45 141 158 
236 47 46 148 
237 148 46 158 
238 48 47 152 
239 47 148 152 
240 49 48 152 
241 50 49 143 
242 143 49 152 
243 51 50 153 
244 50 143 153 
245 52 51 153 
246 53 52 147 
247 147 52 153 
248 54 53 155 
249 53 147 155 
250 151 54 155 
251 57 56 149 
252 58 57 142 
253 142 57 149 
254 59 58 154 
255 58 142 154 
256 60 59 145 
257 145 59 154 
258 61 60 150 
259 60 145 150 
260 62 61 150 
261 63 62 144 
262 144 62 150 
263 64 63 146 
264 63 144 146 
265 64 146 156 
266 65 73 141 
267 73 65 157 
268 140 66 156 
269 67 68 142 
270 67 142 149 
271 68 69 145 
272 142 68 154 
273 68 145 154 
274 69 70 150 
275 145 69 150 
276 70 71 144 
277 70 144 150 
278 71 72 140 
279 71 140 146 
280 144 71 146 
281 72 73 157 
282 73 74 141 
283 74 75 148 
284 141 74 158 
285 74 148 158 
286 75 76 152 
287 148 75 152 
288 76 77 143 
289 76 143 152 
290 77 78 153 
291 143 77 153 
292 78 79 147 
293 78 147 153 
294 147 79 155 
295 79 151 155 
296 146 140 156 
2 7 2 6
297 55 65 6 
298 55 7 159 
299 7 66 159 
300 8 65 159 
301 66 8 159 
302 65 55 159 
2 8 2 46
303 67 9 161 
304 9 79 166 
305 161 9 166 
306 68 67 176 
307 67 161 176 
308 69 68 164 
309 164 68 176 
310 70 69 173 
311 69 164 173 
312 71 70 162 
313 162 70 173 
314 72 71 171 
315 71 162 171 
316 73 72 171 
317 74 73 160 
318 160 73 171 
319 75 74 174 
320 74 160 174 
321 76 75 165 
322 165 75 174 
323 77 76 175 
324 76 165 175 
325 78 77 163 
326 163 77 175 
327 79 78 172 
328 78 163 172 
329 166 79 172 
330 165 160 168 
331 160 165 174 
332 168 160 170 
333 170 160 171 
334 164 161 169 
335 161 164 176 
336 161 166 167 
337 161 167 169 
338 162 164 169 
339 164 162 173 
340 162 169 170 
341 162 170 171 
342 167 163 168 
343 163 167 172 
344 168 163 175 
345 165 168 175 
346 167 166 172 
347 167 168 169 
348 169 168 170 
3 1 4 532
349 72 91 157 178 
350 73 157 91 178 
351 75 174 74 89 
352 36 129 178 183 
353 108 178 71 183 
354 73 178 90 181 
355 79 177 93 185 
356 163 182 180 187 
357 73 72 157 178 
358 136 125 38 178 
359 180 181 124 182 
360 73 90 74 181 
361 117 93 79 177 
362 75 174 89 181 
363 89 174 74 181 
364 123 178 129 183 
365 90 38 125 178 
366 167 182 163 187 
367 124 177 138 187 
368 117 177 79 187 
369 36 178 108 183 
370 91 90 73 178 
371 138 177 110 187 
372 89 102 75 188 
373 36 123 129 183 
374 73 160 178 181 
375 86 77 180 187 
376 177 179 137 185 
377 90 178 125 181 
378 73 74 160 181 
379 132 124 181 182 
380 140 72 71 108 
381 157 72 8 105 
382 104 108 71 183 
383 137 179 177 182 
384 105 157 72 91 
385 118 101 67 179 
386 91 38 90 178 
387 100 98 154 68 
388 2 114 177 185 
389 72 71 108 178 
390 112 80 118 67 
391 118 67 80 185 
392 89 74 90 181 
393 102 88 75 188 
394 124 181 180 188 
395 167 177 182 187 
396 168 181 180 182 
397 93 177 114 185 
398 70 173 69 183 
399 89 74 94 90 
400 75 181 89 188 
401 77 76 143 180 
402 71 178 162 183 
403 72 105 91 178 
404 168 180 163 182 
405 117 110 177 187 
406 164 176 179 182 
407 67 101 142 179 
408 164 183 173 186 
409 93 151 79 185 
410 76 85 180 188 
411 135 40 89 188 
412 128 138 124 177 
413 72 108 105 178 
414 92 183 69 184 
415 126 179 182 184 
416 161 177 166 185 
417 91 136 38 178 
418 93 117 79 111 
419 126 184 182 186 
420 95 73 157 91 
421 176 67 68 179 
422 162 173 183 186 
423 117 79 87 187 
424 118 179 67 185 
425 128 177 124 182 
426 2 177 137 185 
427 128 137 177 182 
428 104 36 108 183 
429 70 69 150 183 
430 96 92 69 184 
431 67 142 68 179 
432 161 179 176 182 
433 108 36 129 178 
434 39 135 89 181 
435 101 112 118 67 
436 81 142 101 179 
437 166 167 177 182 
438 167 168 163 182 
439 106 82 140 108 
440 100 83 98 68 
441 93 117 114 177 
442 138 110 43 187 
443 116 148 74 89 
444 71 106 108 104 
445 76 85 143 180 
446 68 179 81 184 
447 69 92 150 183 
448 130 181 178 186 
449 74 148 75 89 
450 174 75 165 181 
451 39 125 135 181 
452 89 88 102 188 
453 94 116 74 89 
454 68 142 81 179 
455 118 81 101 179 
456 152 76 75 188 
457 10 80 122 185 
458 10 93 151 120 
459 177 182 179 185 
460 84 106 71 104 
461 91 95 73 90 
462 77 175 76 180 
463 166 177 161 182 
464 84 71 144 104 
465 154 98 145 68 
466 172 177 167 187 
467 74 119 73 141 
468 119 74 73 90 
469 39 90 125 181 
470 166 167 172 177 
471 96 150 69 92 
472 93 10 151 185 
473 105 140 82 108 
474 176 164 179 184 
475 168 182 169 186 
476 69 183 173 184 
477 177 161 182 185 
478 181 182 168 186 
479 100 81 83 68 
480 135 89 181 188 
481 39 89 90 181 
482 114 128 2 177 
483 107 70 150 183 
484 100 101 81 142 
485 132 182 181 186 
486 140 71 106 108 
487 101 112 67 142 
488 98 68 83 184 
489 105 108 91 178 
490 124 127 181 188 
491 117 87 110 187 
492 80 112 149 67 
493 164 182 179 184 
494 86 153 77 187 
495 176 179 68 184 
496 72 171 71 178 
497 171 72 73 178 
498 178 183 123 186 
499 79 151 93 111 
500 157 8 65 105 
501 173 183 164 184 
502 132 124 127 181 
503 139 124 180 188 
504 74 119 94 90 
505 162 164 173 186 
506 8 140 66 105 
507 164 182 184 186 
508 132 181 130 186 
509 79 166 177 185 
510 170 168 169 186 
511 149 80 67 185 
512 180 181 165 188 
513 72 140 105 108 
514 128 137 2 177 
515 170 181 168 186 
516 174 160 74 181 
517 124 132 134 182 
518 164 184 183 186 
519 76 180 175 188 
520 87 79 117 111 
521 162 183 178 186 
522 164 161 176 182 
523 138 44 110 177 
524 98 145 68 184 
525 137 179 113 185 
526 96 98 69 145 
527 178 181 170 186 
528 68 100 81 142 
529 76 165 75 188 
530 152 75 88 188 
531 175 180 165 188 
532 68 81 83 184 
533 2 11 114 185 
534 120 93 151 111 
535 126 133 184 186 
536 82 66 140 105 
537 107 150 92 183 
538 99 85 76 188 
539 114 44 128 177 
540 98 69 145 184 
541 38 39 90 125 
542 165 180 168 181 
543 129 37 108 178 
544 134 128 124 182 
545 72 140 8 105 
546 140 71 146 106 
547 179 182 161 185 
548 126 179 137 182 
549 2 137 113 185 
550 165 181 75 188 
551 123 130 129 178 
552 119 74 158 141 
553 165 175 168 180 
554 94 119 74 158 
555 68 154 100 142 
556 139 127 124 188 
557 171 162 71 178 
558 136 91 37 178 
559 136 37 129 178 
560 125 178 130 181 
561 82 140 146 106 
562 151 79 155 111 
563 77 109 86 180 
564 172 79 166 177 
565 97 92 96 184 
566 9 79 151 185 
567 86 103 153 187 
568 36 35 123 183 
569 126 131 133 186 
570 11 2 113 185 
571 79 147 87 187 
572 70 71 162 183 
573 11 93 114 185 
574 169 182 164 186 
575 157 105 95 91 
576 168 175 163 180 
577 103 87 78 187 
578 34 183 92 184 
579 119 73 95 90 
580 166 161 167 182 
581 147 155 79 111 
582 123 130 178 186 
583 157 65 73 95 
584 183 184 133 186 
585 99 143 76 85 
586 171 73 160 178 
587 172 167 163 187 
588 9 151 10 185 
589 156 66 140 82 
590 10 122 149 185 
591 65 157 105 95 
592 79 177 172 187 
593 80 149 122 185 
594 150 96 107 92 
595 126 137 134 182 
596 117 44 114 177 
597 126 33 179 184 
598 115 180 43 187 
599 108 37 91 178 
600 79 9 166 185 
601 134 182 132 186 
602 76 175 165 188 
603 128 44 138 177 
604 133 183 34 184 
605 10 93 11 185 
606 132 125 130 181 
607 134 132 131 186 
608 117 110 44 177 
609 159 65 8 105 
610 130 125 136 178 
611 87 147 79 111 
612 130 136 129 178 
613 162 178 170 186 
614 146 156 140 82 
615 162 173 70 183 
616 40 88 89 188 
617 128 134 137 182 
618 161 67 179 185 
619 169 164 162 186 
620 10 11 80 185 
621 77 163 180 187 
622 153 78 77 187 
623 10 149 9 185 
624 139 180 85 188 
625 119 73 141 95 
626 152 121 99 88 
627 33 81 179 184 
628 69 68 145 184 
629 43 110 115 187 
630 147 78 87 187 
631 161 67 176 179 
632 86 180 115 187 
633 80 112 122 149 
634 36 104 35 183 
635 170 178 160 181 
636 34 35 92 183 
637 103 86 115 187 
638 153 109 86 77 
639 169 161 164 182 
640 103 78 153 187 
641 133 35 34 183 
642 103 87 147 78 
643 42 85 139 180 
644 107 92 104 183 
645 123 183 133 186 
646 34 92 97 184 
647 130 131 132 186 
648 2 128 114 44 
649 124 43 42 180 
650 32 113 137 179 
651 161 9 67 185 
652 33 32 126 179 
653 42 139 124 180 
654 83 97 98 184 
655 163 175 77 180 
656 65 141 73 95 
657 100 98 26 154 
658 77 78 163 187 
659 169 162 170 186 
660 126 133 33 184 
661 103 115 87 187 
662 149 10 9 151 
663 42 115 86 180 
664 106 146 30 84 
665 87 115 110 187 
666 171 170 162 178 
667 40 135 127 188 
668 123 131 130 186 
669 34 33 133 184 
670 135 181 127 188 
671 33 81 32 179 
672 42 43 115 180 
673 159 22 65 105 
674 109 85 86 180 
675 69 150 96 145 
676 113 80 11 185 
677 79 78 147 187 
678 161 166 9 185 
679 122 1 10 149 
680 69 173 164 184 
681 78 79 172 187 
682 125 127 135 181 
683 149 67 9 185 
684 32 118 113 179 
685 33 83 81 184 
686 67 112 149 142 
687 170 171 160 178 
688 139 85 41 188 
689 176 68 164 184 
690 156 146 31 82 
691 35 133 123 183 
692 144 30 146 84 
693 75 152 102 148 
694 99 109 143 85 
695 108 129 36 37 
696 121 152 14 102 
697 34 97 33 184 
698 81 118 32 179 
699 126 32 137 179 
700 170 160 168 181 
701 131 123 133 186 
702 86 85 42 180 
703 98 96 27 145 
704 154 25 100 142 
705 145 26 98 154 
706 112 149 142 24 
707 153 103 147 78 
708 4 66 156 82 
709 169 167 161 182 
710 150 27 96 145 
711 20 155 147 111 
712 101 100 25 142 
713 160 174 165 181 
714 102 152 14 148 
715 69 164 68 184 
716 22 65 105 95 
717 87 147 19 103 
718 92 35 104 183 
719 169 168 167 182 
720 109 86 103 153 
721 91 136 37 38 
722 149 1 10 151 
723 132 127 125 181 
724 101 112 142 24 
725 88 85 99 188 
726 70 150 144 107 
727 89 39 40 135 
728 83 33 97 184 
729 66 159 8 105 
730 146 31 82 106 
731 168 160 165 181 
732 76 152 143 99 
733 82 4 66 105 
734 103 147 19 153 
735 87 20 147 111 
736 28 27 96 150 
737 1 10 151 120 
738 77 153 109 143 
739 116 13 94 158 
740 40 127 41 188 
741 153 17 109 143 
742 40 41 88 188 
743 158 12 119 141 
744 41 139 42 85 
745 29 144 150 107 
746 110 138 43 44 
747 2 32 113 137 
748 3 141 65 95 
749 119 94 12 158 
750 116 102 14 148 
751 78 172 163 187 
752 13 116 148 158 
753 25 100 26 154 
754 29 144 107 84 
755 41 85 88 188 
756 61 29 150 28 
757 109 18 17 153 
758 31 146 30 106 
759 94 13 12 158 
760 141 3 119 95 
761 153 50 17 143 
762 4 159 66 105 
763 152 14 15 121 
764 143 152 16 99 
765 29 150 28 107 
766 60 27 150 145 
767 29 150 144 62 
768 149 142 24 57 
769 119 12 3 141 
770 27 26 98 145 
771 149 122 1 23 
772 65 22 3 95 
773 151 21 1 120 
774 147 19 20 87 
775 52 19 147 153 
776 48 152 15 49 
777 4 156 31 82 
778 121 15 152 99 
779 96 28 150 107 
780 142 25 101 24 
781 109 103 18 153 
782 14 152 47 148 
783 29 61 150 62 
784 28 60 150 61 
785 28 60 27 150 
786 112 122 149 23 
787 41 127 139 188 
788 15 16 152 99 
789 116 14 13 148 
790 17 16 109 143 
791 144 29 30 84 
792 143 16 109 99 
793 26 59 25 154 
794 6 3 45 141 
795 149 5 1 151 
796 50 18 153 17 
797 15 47 14 152 
798 15 47 152 48 
799 143 16 152 49 
800 21 53 155 54 
801 27 59 26 145 
802 59 58 25 154 
803 64 4 156 31 
804 7 4 156 64 
805 45 3 12 141 
806 155 20 21 111 
807 18 50 153 51 
808 51 19 52 153 
809 144 30 63 146 
810 23 5 149 56 
811 53 21 155 20 
812 46 12 158 45 
813 46 12 13 158 
814 58 24 25 142 
815 146 30 63 31 
816 64 146 63 31 
817 149 1 5 23 
818 6 3 65 55 
819 16 15 152 49 
820 18 19 51 153 
821 19 18 103 153 
822 1 5 21 151 
823 151 5 21 54 
824 59 26 145 154 
825 47 13 14 148 
826 154 58 25 142 
827 148 47 13 46 
828 65 3 22 55 
829 6 3 141 65 
830 27 59 145 60 
831 63 30 144 62 
832 30 29 144 62 
833 159 4 22 105 
834 20 147 53 52 
835 147 20 19 52 
836 155 151 21 54 
837 55 22 65 159 
838 46 13 148 158 
839 58 24 142 57 
840 158 45 12 141 
841 55 7 22 159 
842 7 4 22 159 
843 147 155 20 53 
844 16 17 50 143 
845 156 146 64 31 
846 7 4 159 66 
847 7 4 66 156 
848 143 50 16 49 
849 187 124 43 138 
850 187 43 124 180 
851 185 118 113 80 
852 185 113 118 179 
853 187 124 182 180 
854 187 182 124 177 
855 183 71 144 70 
856 144 71 183 104 
857 89 148 102 116 
858 89 102 148 75 
859 143 180 109 77 
860 109 180 143 85 
861 188 152 99 88 
862 188 99 152 76 
863 96 184 98 97 
864 98 184 96 69 
865 116 158 74 148 
866 74 158 116 94 
867 152 102 88 75 
868 88 102 152 121 
869 186 134 126 131 
870 186 126 134 182 
871 84 146 71 106 
872 84 71 146 144 
873 111 151 21 155 
874 111 21 151 120 
875 56 149 24 57 
876 23 24 149 112 
877 23 149 24 56 
878 107 183 144 70 
879 104 144 107 183 
880 104 107 144 84 
$EndElements
