$MeshFormat
4.1 0 8
$EndMeshFormat
$PhysicalNames
7
2 1 "CoolingPatch"
2 2 "FresheningPatch"
2 3 "Slope"
2 4 "Sides"
2 5 "Bottom"
2 6 "WarmingSalinificationPatch"
2 7 "Wall"
$EndPhysicalNames
$Entities
8 14 12 3
1 1 0 0 0 
2 1 0 -0.2 0 
3 0.6 0 0 0 
4 0.6 0 -0.2 0 
5 -0.5999999999999999 -1.469576158976824e-16 -1.2 0 
6 -1 -2.449293598294706e-16 -0.2 0 
7 0.9510565162951535 0.3090169943749474 0 0 
8 0.9510565162951535 0.3090169943749474 -0.2 0 
1 -1.0000001 -1.0000001 -1e-07 1.0000001 1.0000001 1e-07 0 2 1 -1 
2 0.9999998999999999 -1.000000000555111e-07 -0.2000001000000001 1.0000001 1.000000000555111e-07 1.000000000583867e-07 0 2 1 -2 
3 -1.0000001 -1.0000001 -0.2000001 1.0000001 1.0000001 -0.1999999 0 2 2 -2 
4 -0.6000000999999999 -0.6000000999999999 -1e-07 0.6000000999999999 0.6000000999999999 1e-07 0 2 3 -3 
5 0.5999999 -1e-07 -0.2000001 0.6000000999999999 1e-07 1.000000000028756e-07 0 2 3 -4 
6 -0.6000000999999999 -0.6000000999999999 -0.2000001 0.6000000999999999 0.6000000999999999 -0.1999999 0 2 4 -4 
7 -0.6000000999999998 -0.6000000999999998 -1.2000001 0.6000000999999998 0.6000000999999998 -1.1999999 0 2 5 -5 
8 -1.0000001 -1.000000002449294e-07 -1.2000001 -0.5999998999999999 9.999999985304237e-08 -0.1999999 0 2 6 -5 
9 -1.0000001 -1.0000001 -0.2000001 1.0000001 1.0000001 -0.1999999 0 2 6 -6 
10 0.9510564162951535 -1.000000000583867e-07 -1.000000000555111e-07 1.0000001 0.3090170943749475 1.000000000555111e-07 0 2 1 -7 
11 0.9510564162951535 -1.000000000583867e-07 -0.2000001000000001 1.0000001 0.3090170943749475 -0.1999999 0 2 2 -8 
12 0.9510564162951535 0.3090168943749473 -0.2000001000000001 0.9510566162951536 0.3090170943749475 1.000000000583867e-07 0 2 7 -8 
13 -1.0000001 -1.0000001 -0.2000001 1.0000001 1.0000001 -0.1999999 0 2 8 -2 
14 -1.0000001 -1.0000001 -1e-07 1.0000001 1.0000001 1e-07 0 2 7 -1 
1 -1.0000001 -1.0000001 -1e-07 1.0000001 1.0000001 1e-07 0 1 1 
2 -1.0000001 -1.0000001 -0.2000001 1.0000001 1.0000001 1.000000000028756e-07 0 4 2 3 -2 -1 
3 -1.0000001 -1.0000001 -0.2000001 1.0000001 1.0000001 -0.1999999 0 1 3 
20 -0.6000000999999999 -0.6000000999999999 -1e-07 0.6000000999999999 0.6000000999999999 1e-07 1 1 1 4 
21 -0.6000000999999999 -0.6000000999999999 -0.2000001 0.6000000999999999 0.6000000999999999 1.000000000028756e-07 0 4 5 6 -5 -4 
22 -0.6000000999999999 -0.6000000999999999 -0.2000001 0.6000000999999999 0.6000000999999999 -0.1999999 0 1 6 
42 -1.0000001 -1.0000001 -1e-07 1.0000001 1.0000001 1e-07 1 2 2 1 -4 
43 -1.0000001 -1.0000001 -1.2000001 1.0000001 1.0000001 -0.1999999 1 4 4 -7 -8 9 8 
44 -0.6000000999999998 -0.6000000999999998 -1.2000001 0.6000000999999998 0.6000000999999998 -1.1999999 1 5 1 7 
45 -1.0000001 -1.0000001 -0.2000001 1.0000001 1.0000001 -0.1999999 0 1 9 
46 0.9510564162951536 -1.000000000028756e-07 -0.2000001 1.0000001 0.3090170943749474 1.000000000028756e-07 1 6 4 10 12 -11 -2 
50 -0.9995664085020211 -0.9969174337331279 -0.2000001 1.0000001 0.9987955562051725 1.000000000028756e-07 1 7 4 -2 -14 12 13 
1 -1.0000001 -1.0000001 -0.2000001 1.0000001 1.0000001 1.000000000028756e-07 0 3 2 1 -3 
2 -0.6000000999999999 -0.6000000999999999 -0.2000001 0.6000000999999999 0.6000000999999999 1.000000000028756e-07 0 3 21 20 -22 
10 -1.0000001 -1.0000001 -1.2000001 1.0000001 1.0000001 -0.1999999 0 3 43 44 -45 
$EndEntities
$Nodes
22 237 1 237
0 1 0 1
1
1 0 0
0 2 0 1
2
1 0 -0.2
0 3 0 1
3
0.6 0 0
0 5 0 1
4
-0.5999999999999999 -1.469576158976824e-16 -1.2
0 6 0 1
5
-1 -2.449293598294706e-16 -0.2
0 7 0 1
6
0.9510565162951535 0.3090169943749474 0
0 8 0 1
7
0.9510565162951535 0.3090169943749474 -0.2
1 1 0 20
8
9
10
11
12
13
14
15
16
17
18
19
20
21
22
23
24
25
26
27
0.9555728057861407 0.2947551744109042 0
0.8262387743159949 0.563320058063622 0
0.6234898018587336 0.7818314824680298 0
0.3653410243663952 0.9308737486442041 0
0.07473009358642417 0.9972037971811801 0
-0.2225209339563143 0.9749279121818236 0
-0.4999999999999998 0.8660254037844387 0
-0.733051871829826 0.6801727377709197 0
-0.900968867902419 0.4338837391175582 0
-0.9888308262251285 0.1490422661761743 0
-0.9888308262251286 -0.149042266176174 0
-0.9009688679024191 -0.433883739117558 0
-0.7330518718298269 -0.6801727377709188 0
-0.5000000000000004 -0.8660254037844384 0
-0.2225209339563146 -0.9749279121818236 0
0.07473009358642348 -0.9972037971811802 0
0.3653410243663954 -0.9308737486442041 0
0.6234898018587334 -0.7818314824680299 0
0.8262387743159945 -0.5633200580636227 0
0.9555728057861408 -0.2947551744109039 0
1 4 0 12
28
29
30
31
32
33
34
35
36
37
38
39
0.5312736153919262 0.2788339032262605 0
0.3408388480386944 0.4937903195361932 0
0.07232200815319578 0.5956253244588322 0
-0.2127629322255185 0.5610097456112499 0
-0.4491064489026581 0.3978735949444801 0
-0.58256509045563 0.1435893985725395 0
-0.5825650904556327 -0.1435893985725288 0
-0.4491064489026654 -0.3978735949444718 0
-0.2127629322255275 -0.5610097456112465 0
0.07232200815318864 -0.595625324458833 0
0.3408388480386903 -0.4937903195361961 0
0.5312736153919253 -0.2788339032262624 0
1 7 0 12
40
41
42
43
44
45
46
47
48
49
50
51
-0.5312736153919261 0.2788339032262605 -1.2
-0.3408388480386942 0.4937903195361932 -1.2
-0.07232200815319577 0.5956253244588321 -1.2
0.2127629322255185 0.5610097456112498 -1.2
0.4491064489026579 0.39787359494448 -1.2
0.5825650904556299 0.1435893985725395 -1.2
0.5825650904556325 -0.1435893985725287 -1.2
0.4491064489026653 -0.3978735949444717 -1.2
0.2127629322255275 -0.5610097456112464 -1.2
-0.07232200815318862 -0.5956253244588329 -1.2
-0.3408388480386902 -0.493790319536196 -1.2
-0.5312736153919252 -0.2788339032262624 -1.2
1 8 0 3
52
53
54
-0.8999999999999997 -2.204364238465235e-16 -0.4500000000000007
-0.7999999999999994 -1.959434878635764e-16 -0.7000000000000017
-0.6999999999999995 -1.714505518806293e-16 -0.9500000000000013
1 9 0 20
55
56
57
58
59
60
61
62
63
64
65
66
67
68
69
70
71
72
73
74
-0.9555728057861407 0.2947551744109042 -0.2
-0.8262387743159949 0.563320058063622 -0.2
-0.6234898018587336 0.7818314824680298 -0.2
-0.3653410243663952 0.9308737486442041 -0.2
-0.07473009358642417 0.9972037971811801 -0.2
0.2225209339563143 0.9749279121818236 -0.2
0.4999999999999998 0.8660254037844387 -0.2
0.733051871829826 0.6801727377709197 -0.2
0.900968867902419 0.4338837391175582 -0.2
0.9888308262251285 0.1490422661761743 -0.2
0.9888308262251286 -0.149042266176174 -0.2
0.9009688679024191 -0.433883739117558 -0.2
0.7330518718298269 -0.6801727377709188 -0.2
0.5000000000000004 -0.8660254037844384 -0.2
0.2225209339563146 -0.9749279121818236 -0.2
-0.07473009358642348 -0.9972037971811802 -0.2
-0.3653410243663954 -0.9308737486442041 -0.2
-0.6234898018587334 -0.7818314824680299 -0.2
-0.8262387743159945 -0.5633200580636227 -0.2
-0.9555728057861408 -0.2947551744109039 -0.2
1 10 0 1
75
0.9876883405951378 0.1564344650402309 0
1 11 0 1
76
0.9876883405951378 0.1564344650402309 -0.2
1 13 0 19
77
78
79
80
81
82
83
84
85
86
87
88
89
90
91
92
93
94
95
0.8181497174250228 0.5750052520432793 -0.2
0.6129070536529752 0.7901550123756914 -0.2
0.3534748437792549 0.9354440308298682 -0.2
0.06279051952930997 0.9980267284282718 -0.2
-0.2334453638559097 0.9723699203976756 -0.2
-0.5090414157503755 0.8607420270039412 -0.2
-0.7396310949786137 0.673012513509769 -0.2
-0.9048270524660225 0.4257792915650665 -0.2
-0.9900236577165586 0.140901231937575 -0.2
-0.9876883405951367 -0.1564344650402378 -0.2
-0.8980275757606129 -0.4399391698559207 -0.2
-0.7289686274214076 -0.6845471059286929 -0.2
-0.4954586684324028 -0.868631514438194 -0.2
-0.2181432413965372 -0.9759167619387487 -0.2
0.07845909572784875 -0.9969173337331276 -0.2
0.3681245526846808 -0.9297764858882503 -0.2
0.6252426563357069 -0.7804304073383284 -0.2
0.8270805742745626 -0.5620833778521295 -0.2
0.9557930147983303 -0.2940403252323034 -0.2
1 14 0 19
96
97
98
99
100
101
102
103
104
105
106
107
108
109
110
111
112
113
114
0.8181497174250228 0.5750052520432793 0
0.6129070536529752 0.7901550123756914 0
0.3534748437792549 0.9354440308298682 0
0.06279051952930997 0.9980267284282718 0
-0.2334453638559097 0.9723699203976756 0
-0.5090414157503755 0.8607420270039412 0
-0.7396310949786137 0.673012513509769 0
-0.9048270524660225 0.4257792915650665 0
-0.9900236577165586 0.140901231937575 0
-0.9876883405951367 -0.1564344650402378 0
-0.8980275757606129 -0.4399391698559207 0
-0.7289686274214076 -0.6845471059286929 0
-0.4954586684324028 -0.868631514438194 0
-0.2181432413965372 -0.9759167619387487 0
0.07845909572784875 -0.9969173337331276 0
0.3681245526846808 -0.9297764858882503 0
0.6252426563357069 -0.7804304073383284 0
0.8270805742745626 -0.5620833778521295 0
0.9557930147983303 -0.2940403252323034 0
2 20 0 15
115
116
117
118
119
120
121
122
123
124
125
126
127
128
129
-0.3151117385535424 0.1646180717532931 0
0.3241595640656486 -0.07989815663227894 0
-0.1896546398110643 -0.2747621808157071 0
0.1132143187397354 0.3349230767540639 0
0.1183887268384225 -0.3121654173127515 0
0.3286651885836717 -0.2911719491768722 0
0.03366579748058711 -0.07166504100507283 0
-0.1882683810033576 -0.006936795060649839 0
0.1902901694192914 0.125842551643136 0
-0.06052704373393211 0.148862974531217 0
-0.14199530608712 0.3671521313421893 0
-0.3845452315303153 -0.08582574984458746 0
0.4150016364106239 0.1068088550179662 0
-0.05292670926124515 -0.4358906670496345 0
0.3181237176000543 0.2680397412355239 0
2 42 0 13
130
131
132
133
134
135
136
137
138
139
140
141
142
-0.7686413090823895 5.607377618149072e-15 0
0.5776761031636034 -0.5143354271398896 0
0.5776761031636058 0.5143354271398863 0
-0.08714157646043015 0.7621539940471739 0
-0.08714157646043903 -0.7621539940471705 0
-0.4291014649479015 -0.6435394799784648 0
-0.4291014649478922 0.6435394799784703 0
0.7475382413100234 0.1907964678081901 0
0.747548088150189 -0.1905506585749089 0
-0.6893431718729577 0.3517376172690639 0
-0.6893431718729613 -0.3517376172690564 0
0.2718784725442928 0.7168846148330699 0
0.2718784725442853 -0.7168846148330722 0
2 43 0 58
143
144
145
146
147
148
149
150
151
152
153
154
155
156
157
158
159
160
161
162
163
164
165
166
167
168
169
170
171
172
173
174
175
176
177
178
179
180
181
182
183
184
185
186
187
188
189
190
191
192
193
194
195
196
197
198
199
200
0.7005714597761112 -0.02807530347797876 -0.9471655224354967
-0.5306897052085194 0.4566121995343584 -0.9497745431339604
-0.5306897052074913 -0.4566121995347909 -0.9497745431352036
0.08314206942293915 0.6847365461882808 -0.9755857128546075
0.08314206942294913 -0.6847365461882802 -0.9755857128546059
0.7403446694524733 -0.5124221605128213 -0.4490464518185304
0.7458149775786618 0.508488041876441 -0.4433430844610031
-0.1502456606824961 -0.8783727913194068 -0.4721752213703976
-0.2294965300276662 -0.6719615268272735 -0.9248222785612772
-0.1503330786667212 0.8799477323313989 -0.4682573426571645
-0.229778438452136 0.6728818910370928 -0.9224170728501226
0.3127763280085477 0.8509980791131402 -0.4333577118114158
0.361479783742629 0.5983595409981987 -0.9523197976349604
0.3297797396666136 -0.8402650729486694 -0.4433430844609815
0.3816817844852057 -0.5979528493059727 -0.9265348280115873
-0.6584011282804914 0.6157115748060857 -0.4464017812185134
-0.6584011282800849 -0.6157115748062112 -0.4464017812190415
0.8966333545952521 -0.00682502745424737 -0.4583516757019985
0.6259768482699372 -0.3360717736143639 -0.9237834246806569
0.5787108546708758 0.4037806013122725 -0.9358695000971515
-0.8209671349916619 -0.2228644261484125 -0.5733012831225972
-0.8224976591765416 0.2312954834170073 -0.5639990636706208
0.7654867953735172 -0.1794688358356304 -0.7343908435814781
-0.4798306145522881 -0.6466712340990389 -0.6868850261460466
-0.4466212975315426 0.6507121323254024 -0.7269046168452875
0.542811853953211 0.5881418156058096 -0.6991322131756494
0.5853943149710656 -0.5395648301944089 -0.7096848396812181
-0.04430845996430016 0.7857634257392234 -0.7324707739561909
-0.0494275091196972 -0.7832337106401194 -0.7380205720037674
0.7936349343410614 0.1107941586229574 -0.6966719025089934
-0.6727992218375352 -0.4512224330698545 -0.6747523654336238
-0.6708736633803195 0.4525869214207711 -0.6768428236132064
0.2785181991773302 0.7442127452435877 -0.7134436242331612
0.2341533402213938 -0.7375350148539522 -0.7654689119962828
-0.7212282248411145 -0.2310001301782865 -0.8067039117423904
-0.7213049993602605 0.2326600265562287 -0.8052513523239249
0.7183678904320169 0.3606181760728366 -0.6904946272187937
0.8492437251366882 -0.2671374643239713 -0.4743296943259431
-0.4417782878366952 -0.7753629928794601 -0.4690307230783693
-0.4357209927163048 0.78321031434243 -0.4593650732632026
0.8568780194645542 0.2656041264911532 -0.4572540655334119
0.5675825699509341 -0.7055272325232804 -0.436266013938384
0.5617459841316752 0.718995751306488 -0.418945637039686
0.07971059293335472 0.920542879912385 -0.3900311522890959
0.08210250573678214 -0.9191648725218197 -0.3929389849768938
-0.8183111841116079 0.4149624038413812 -0.4062217431659298
-0.8203435614309809 -0.4097928666910582 -0.4074935218573797
0.4089125322800846 -0.714954136818038 -0.6409212059622741
-0.6406842378883215 -0.2047468839692191 -1.018487326888294
-0.6374406170550687 0.2063649044254151 -1.024968257670064
-0.2636880323971873 0.7785282944606186 -0.6450704335287125
-0.2614346898228292 -0.770988231209172 -0.6647313603208811
0.6940862269922282 0.2014925627655234 -0.8931468250191763
0.7263691556303958 -0.3775264412897857 -0.653450519587689
-0.9081526936611419 0.1960569799516997 -0.3773134434563589
-0.907125276869188 -0.1928808660276547 -0.3814884941861688
0.1312579332871633 -0.8330285008538818 -0.5917348241301524
0.107497750804119 0.8438515632036901 -0.5733223869888391
2 44 0 15
201
202
203
204
205
206
207
208
209
210
211
212
213
214
215
0.3151117385535422 0.164618071753293 -1.2
-0.3241595640656484 -0.07989815663227895 -1.2
0.1896546398110642 -0.2747621808157071 -1.2
-0.1132143187397354 0.3349230767540639 -1.2
-0.1183887268384225 -0.3121654173127515 -1.2
-0.3286651885836716 -0.2911719491768722 -1.2
-0.03366579748058708 -0.07166504100507283 -1.2
0.1882683810033575 -0.006936795060649851 -1.2
-0.1902901694192914 0.125842551643136 -1.2
0.06052704373393208 0.1488629745312169 -1.2
0.14199530608712 0.3671521313421893 -1.2
0.3845452315303153 -0.08582574984458748 -1.2
-0.4150016364106237 0.1068088550179661 -1.2
0.05292670926124513 -0.4358906670496345 -1.2
-0.3181237176000542 0.2680397412355239 -1.2
2 46 0 2
216
217
0.9949052927131351 0.1008139798410467 -0.09999321065001336
0.9766797493423315 0.2147013442542933 -0.09998545139288578
2 50 0 20
218
219
220
221
222
223
224
225
226
227
228
229
230
231
232
233
234
235
236
237
-0.6313527954493818 0.775495743172231 -0.1
0.8945446398380249 0.4469786206711215 -0.1
0.2104717598213028 0.9775999377647913 -0.1
-0.831469612302549 0.5555702330195966 -0.1
-0.08628636579792726 0.9962703764929409 -0.09999999999999999
-0.9580728994623212 0.2865245527277913 -0.1
0.7235697791884486 0.6902512402344381 -0.1
0.4886212414969531 0.8724960070727982 -0.1
-0.3754155712252873 0.926856595640119 -0.1
-0.3608108264876363 -0.9326390231430962 -0.1
-0.6190939493098301 -0.7853169308807479 -0.1
-0.8226405180208565 -0.5685618507342687 -0.1
0.9888864987445045 -0.1486724338969237 -0.1
-0.9999691576447897 -0.007853900888718715 -0.1
-0.9534541723189993 -0.3015379599445019 -0.09999999999999999
0.225801266869107 -0.9741733869698486 -0.1
0.7343225094356868 -0.6788007455329405 -0.1
0.9014551171122457 -0.4328725815204139 -0.09999999999999999
0.502265533143374 -0.8647134405201542 -0.1
-0.0706269859311616 -0.9975027964162705 -0.1
$EndNodes
$Elements
6 386 1 386
2 20 2 41
1 28 127 3 
2 3 116 39 
3 3 127 116 
4 29 129 28 
5 28 129 127 
6 30 118 29 
7 118 129 29 
8 31 125 30 
9 30 125 118 
10 32 125 31 
11 33 115 32 
12 115 125 32 
13 34 126 33 
14 33 126 115 
15 35 126 34 
16 36 117 35 
17 117 126 35 
18 37 128 36 
19 36 128 117 
20 38 119 37 
21 119 128 37 
22 39 120 38 
23 38 120 119 
24 116 120 39 
25 122 124 115 
26 115 126 122 
27 124 125 115 
28 119 120 116 
29 116 121 119 
30 116 123 121 
31 116 127 123 
32 119 121 117 
33 117 128 119 
34 121 122 117 
35 122 126 117 
36 118 124 123 
37 123 129 118 
38 118 125 124 
39 121 124 122 
40 123 124 121 
41 127 129 123 
2 42 2 60
42 134 135 22 
43 13 136 133 
44 22 135 21 
45 14 136 13 
46 26 138 131 
47 132 137 9 
48 130 139 17 
49 18 140 130 
50 131 142 25 
51 10 141 132 
52 23 142 134 
53 133 141 12 
54 135 140 20 
55 15 139 136 
56 137 138 1 
57 9 137 8 
58 27 138 26 
59 130 140 34 
60 33 139 130 
61 38 142 131 
62 132 141 29 
63 131 138 39 
64 28 137 132 
65 36 135 134 
66 133 136 31 
67 134 142 37 
68 30 141 133 
69 35 140 135 
70 136 139 32 
71 3 138 137 
72 17 139 16 
73 19 140 18 
74 25 142 24 
75 11 141 10 
76 12 141 11 
77 24 142 23 
78 20 140 19 
79 16 139 15 
80 1 138 27 
81 8 137 1 
82 15 136 14 
83 21 135 20 
84 23 134 22 
85 13 133 12 
86 10 132 9 
87 26 131 25 
88 33 130 34 
89 18 130 17 
90 38 131 39 
91 28 132 29 
92 30 133 31 
93 36 134 37 
94 35 135 36 
95 31 136 32 
96 39 138 3 
97 3 137 28 
98 32 139 33 
99 34 140 35 
100 29 141 30 
101 37 142 38 
2 43 2 156
102 4 192 40 
103 51 191 4 
104 4 191 54 
105 54 192 4 
106 5 197 52 
107 52 198 5 
108 55 197 5 
109 5 198 74 
110 40 144 41 
111 40 192 144 
112 41 153 42 
113 144 153 41 
114 42 146 43 
115 42 153 146 
116 43 155 44 
117 146 155 43 
118 44 162 45 
119 155 162 44 
120 45 143 46 
121 45 195 143 
122 162 195 45 
123 46 161 47 
124 143 161 46 
125 47 157 48 
126 47 161 157 
127 48 147 49 
128 48 157 147 
129 49 151 50 
130 147 151 49 
131 50 145 51 
132 50 151 145 
133 145 191 51 
134 53 163 52 
135 52 164 53 
136 163 198 52 
137 52 197 164 
138 54 177 53 
139 53 178 54 
140 53 177 163 
141 164 178 53 
142 54 191 177 
143 178 192 54 
144 56 188 55 
145 188 197 55 
146 57 158 56 
147 158 188 56 
148 58 182 57 
149 57 182 158 
150 59 152 58 
151 152 182 58 
152 60 186 59 
153 59 186 152 
154 61 154 60 
155 154 186 60 
156 62 185 61 
157 61 185 154 
158 63 149 62 
159 149 185 62 
160 64 183 63 
161 63 183 149 
162 65 160 64 
163 160 183 64 
164 66 180 65 
165 65 180 160 
166 67 148 66 
167 148 180 66 
168 68 184 67 
169 67 184 148 
170 69 156 68 
171 156 184 68 
172 70 187 69 
173 69 187 156 
174 71 150 70 
175 150 187 70 
176 72 181 71 
177 71 181 150 
178 73 159 72 
179 159 181 72 
180 74 189 73 
181 73 189 159 
182 74 198 189 
183 143 165 161 
184 143 172 165 
185 143 195 172 
186 144 167 153 
187 144 174 167 
188 144 178 174 
189 144 192 178 
190 151 166 145 
191 166 173 145 
192 173 177 145 
193 177 191 145 
194 153 170 146 
195 146 175 155 
196 170 175 146 
197 147 171 151 
198 157 176 147 
199 147 176 171 
200 148 184 169 
201 169 196 148 
202 148 196 180 
203 149 179 168 
204 168 185 149 
205 149 183 179 
206 150 194 171 
207 171 199 150 
208 181 194 150 
209 150 199 187 
210 151 194 166 
211 171 194 151 
212 170 193 152 
213 152 200 170 
214 152 193 182 
215 186 200 152 
216 167 193 153 
217 153 193 170 
218 154 185 175 
219 175 200 154 
220 154 200 186 
221 155 168 162 
222 155 175 168 
223 156 190 184 
224 187 199 156 
225 156 199 190 
226 161 169 157 
227 169 190 157 
228 157 190 176 
229 167 174 158 
230 158 182 167 
231 174 188 158 
232 159 173 166 
233 166 181 159 
234 159 189 173 
235 165 172 160 
236 160 180 165 
237 172 183 160 
238 165 196 161 
239 161 196 169 
240 168 179 162 
241 179 195 162 
242 163 177 173 
243 173 189 163 
244 189 198 163 
245 174 178 164 
246 164 188 174 
247 164 197 188 
248 180 196 165 
249 166 194 181 
250 182 193 167 
251 175 185 168 
252 184 190 169 
253 170 200 175 
254 176 199 171 
255 179 183 172 
256 172 195 179 
257 190 199 176 
2 44 2 41
258 40 213 4 
259 4 202 51 
260 4 213 202 
261 41 215 40 
262 40 215 213 
263 42 204 41 
264 204 215 41 
265 43 211 42 
266 42 211 204 
267 44 211 43 
268 45 201 44 
269 201 211 44 
270 46 212 45 
271 45 212 201 
272 47 212 46 
273 48 203 47 
274 203 212 47 
275 49 214 48 
276 48 214 203 
277 50 205 49 
278 205 214 49 
279 51 206 50 
280 50 206 205 
281 202 206 51 
282 208 210 201 
283 201 212 208 
284 210 211 201 
285 205 206 202 
286 202 207 205 
287 202 209 207 
288 202 213 209 
289 205 207 203 
290 203 214 205 
291 207 208 203 
292 208 212 203 
293 204 210 209 
294 209 215 204 
295 204 211 210 
296 207 210 208 
297 209 210 207 
298 213 215 209 
2 46 2 8
299 7 217 6 
300 1 216 2 
301 76 217 7 
302 75 216 1 
303 2 216 76 
304 216 217 76 
305 6 217 75 
306 75 217 216 
2 50 2 80
307 83 218 82 
308 98 220 99 
309 81 222 80 
310 78 224 77 
311 82 226 81 
312 90 227 89 
313 89 228 88 
314 106 229 107 
315 114 230 1 
316 87 232 86 
317 95 235 94 
318 110 233 111 
319 112 234 113 
320 6 219 96 
321 84 221 83 
322 103 223 104 
323 77 219 7 
324 85 223 84 
325 102 221 103 
326 79 225 78 
327 97 225 98 
328 86 231 85 
329 104 231 105 
330 93 236 92 
331 111 236 112 
332 91 237 90 
333 109 237 110 
334 99 222 100 
335 80 220 79 
336 101 218 102 
337 96 224 97 
338 100 226 101 
339 107 228 108 
340 108 227 109 
341 88 229 87 
342 2 230 95 
343 94 234 93 
344 105 232 106 
345 113 235 114 
346 92 233 91 
347 92 236 111 
348 85 231 104 
349 90 237 109 
350 7 219 6 
351 78 225 97 
352 83 221 102 
353 84 223 103 
354 79 220 98 
355 99 220 80 
356 100 222 81 
357 82 218 101 
358 102 218 83 
359 89 227 108 
360 77 224 96 
361 97 224 78 
362 80 222 99 
363 81 226 100 
364 101 226 82 
365 107 229 88 
366 88 228 107 
367 1 230 2 
368 86 232 105 
369 106 232 87 
370 109 227 90 
371 93 234 112 
372 95 230 114 
373 114 235 95 
374 91 233 110 
375 87 229 106 
376 108 228 89 
377 111 233 92 
378 113 234 94 
379 94 235 113 
380 104 223 85 
381 103 221 84 
382 98 225 79 
383 96 219 77 
384 105 231 86 
385 110 237 91 
386 112 236 93 
$EndElements
