$MeshFormat
4.1 0 8
$EndMeshFormat
$PhysicalNames
5
2 19 "inlet"
2 20 "outlet1"
2 21 "outlet2"
2 22 "wall"
3 23 "tube"
$EndPhysicalNames
$Entities
3 4 4 1
1 1 -2.449293598294706e-16 3 0 
2 1 -2.449293598294706e-16 0 0 
3 -0.8660254037844386 0.5000000000000001 1.75 0 
1 0.9999999000000001 -1.000000002449294e-07 -1.000000000583867e-07 1.0000001 9.999999975507064e-08 3.0000001 0 2 2 -1 
2 -1.0000001 -1.0000001 -1e-07 1.0000001 1.0000001 1e-07 0 2 2 -2 
3 -1.0000001 -1.0000001 2.9999999 1.0000001 1.0000001 3.0000001 0 2 1 -1 
4 -0.9682459590736611 0.2499998774781932 1.247510276700602 -0.6614377052443406 0.7500001225218069 1.750000122521807 0 2 3 -3 
1 -1.0000001 -1.0000001 -1.000000000583867e-07 1.0000001 1.0000001 3.0000001 1 22 5 1 -3 -1 2 4 
2 -1.0000001 -1.0000001 -1e-07 1.0000001 1.0000001 1e-07 1 20 1 2 
3 -1.0000001 -1.0000001 2.9999999 1.0000001 1.0000001 3.0000001 1 19 1 3 
4 -0.9682459365518542 0.2499998999999998 1.247339701860545 -0.6614377277661476 0.7500001000000001 1.7500001 1 21 1 -4 
1 -1.0000001 -1.0000001 -1.000000000583867e-07 1.0000001 1.0000001 3.0000001 1 23 4 1 -2 3 4 
$EndEntities
$Nodes
11 54 1 54
0 1 0 1
1
1 -2.449293598294706e-16 3
0 2 0 1
2
1 -2.449293598294706e-16 0
0 3 0 1
3
-0.8660254037844385 0.5000000000000001 1.75
1 2 0 6
4
5
6
7
8
9
0.6234898018587332 0.78183148246803 0
-0.2225209339563161 0.9749279121818232 0
-0.9009688679024205 0.4338837391175554 0
-0.900968867902417 -0.4338837391175624 0
-0.2225209339563076 -0.9749279121818252 0
0.6234898018587361 -0.7818314824680277 0
1 3 0 6
10
11
12
13
14
15
0.6234898018587332 0.78183148246803 3
-0.2225209339563161 0.9749279121818232 3
-0.9009688679024205 0.4338837391175554 3
-0.900968867902417 -0.4338837391175624 3
-0.2225209339563076 -0.9749279121818252 3
0.6234898018587361 -0.7818314824680277 3
1 4 0 3
16
17
18
-0.9680623883176384 0.2507093825607118 1.481179955333384
-0.8466168182442665 0.5322029175881936 1.252082752067928
-0.6622395075151921 0.7492922200909091 1.518798602218042
2 1 0 32
19
20
21
22
23
24
25
26
27
28
29
30
31
32
33
34
35
36
37
38
39
40
41
42
43
44
45
46
47
48
49
50
0.05928003700079131 -0.9982413922559937 2.226978691700856
0.900968867902419 0.4338837391175583 0.7449551208545704
-0.992236994148688 0.1243613583183155 1.923845627832647
-0.9932564562854902 -0.1159379663750844 1.510371407358934
-0.9825824861961832 0.1858269566573361 1.115874315051533
-0.5722190970559781 0.8201007895158017 1.074938014811532
-0.3453859561975902 0.9384607297385844 1.484463796026114
-0.6314969126682556 0.7753783910391504 1.887065325041217
-0.1741495068728571 0.9847192235637227 1.977597977810116
-0.9528539157993713 -0.3034294236652153 1.118054211262128
-0.7825845444121496 -0.6225443203878968 1.488848439265257
0.900968867902419 0.4338837391175582 2.255044879145462
0.2763809941864039 -0.9610481497055884 0.6846954101747857
0.2177450421946198 0.9760056847168788 1.529162717843296
-0.9321783484569178 -0.3619993462261129 2.001857261725383
-0.103401377035734 0.9946397112659006 0.9926567120790861
-0.9020593106448107 0.4316120944540467 2.186328434810366
-0.8609768072748963 0.5086442148837692 0.7589465396250892
-0.6506511563572056 -0.7593767659936872 0.7773185154776386
-0.9991562665947108 -0.04107012204168969 0.6239774622273018
-0.5414255460814887 -0.8407487008912721 2.118913912237457
-0.1919953716979746 -0.9813958310725375 1.500466094243456
0.6139245956187828 -0.7893646754791566 1.552063899877091
-0.5690834938643817 0.8222797437679639 2.424664216454361
0.433154039292319 0.9013199089361935 2.114923384186511
-0.998637090837484 -0.0521915778995696 2.468316996091506
0.4825839480344379 0.8758497206139275 0.8653548507375338
0.6311368674076253 0.7756714862613486 1.501888190553474
-0.4744531570541506 0.8802807516703688 0.5482375270291018
0.07083507882888156 0.9974880408342278 0.4812498179691444
0.02326896146291968 0.999729241061017 2.503437115690197
-0.8001221497708976 -0.5998370990910761 2.51781763401087
2 2 0 1
51
1.157804011394806e-15 -9.992007221626409e-16 0
2 3 0 1
52
1.157804011394806e-15 -9.833403932394242e-16 3
2 4 0 0
3 1 0 2
53
54
-0.0340320724486205 0.01201884705624734 1.617361992686968
-0.1182113641232903 0.2139454886253884 0.814090495536644
$EndNodes
$Elements
5 221 1 221
2 1 2 84
1 2 20 1 
2 1 41 2 
3 1 30 10 
4 15 41 1 
5 20 30 1 
6 4 20 2 
7 2 31 9 
8 2 41 31 
9 16 21 3 
10 3 26 18 
11 21 35 3 
12 3 35 26 
13 5 48 4 
14 4 45 20 
15 4 48 45 
16 6 47 5 
17 47 48 5 
18 7 38 6 
19 6 38 36 
20 36 47 6 
21 8 37 7 
22 37 38 7 
23 9 31 8 
24 31 37 8 
25 10 49 11 
26 30 43 10 
27 43 49 10 
28 11 42 12 
29 11 49 42 
30 12 44 13 
31 12 42 35 
32 35 44 12 
33 13 50 14 
34 44 50 13 
35 14 19 15 
36 14 39 19 
37 14 50 39 
38 19 41 15 
39 17 23 16 
40 16 22 21 
41 16 23 22 
42 18 24 17 
43 17 36 23 
44 24 36 17 
45 18 25 24 
46 18 26 25 
47 39 40 19 
48 40 41 19 
49 20 46 30 
50 45 46 20 
51 22 33 21 
52 33 44 21 
53 21 44 35 
54 23 28 22 
55 28 29 22 
56 29 33 22 
57 23 38 28 
58 36 38 23 
59 25 34 24 
60 34 47 24 
61 24 47 36 
62 26 27 25 
63 27 32 25 
64 32 34 25 
65 26 42 27 
66 35 42 26 
67 27 43 32 
68 42 49 27 
69 27 49 43 
70 28 37 29 
71 28 38 37 
72 29 39 33 
73 37 40 29 
74 29 40 39 
75 30 46 43 
76 31 40 37 
77 31 41 40 
78 32 45 34 
79 43 46 32 
80 32 46 45 
81 39 50 33 
82 33 50 44 
83 45 48 34 
84 34 48 47 
2 2 2 7
85 4 2 51 
86 2 9 51 
87 5 4 51 
88 6 5 51 
89 7 6 51 
90 8 7 51 
91 9 8 51 
2 3 2 7
92 10 52 1 
93 1 52 15 
94 11 52 10 
95 12 52 11 
96 13 52 12 
97 14 52 13 
98 15 52 14 
2 4 2 2
99 17 16 3 
100 18 17 3 
3 1 4 121
101 24 18 17 54 
102 21 44 33 53 
103 24 25 18 54 
104 33 44 50 53 
105 27 49 42 53 
106 27 42 26 53 
107 16 23 17 53 
108 21 35 44 53 
109 16 22 23 53 
110 35 52 44 53 
111 35 26 42 53 
112 44 52 50 53 
113 27 43 49 53 
114 52 42 49 53 
115 50 39 33 53 
116 35 42 52 53 
117 34 32 25 54 
118 28 23 22 53 
119 3 18 26 53 
120 16 3 21 53 
121 25 26 18 53 
122 3 26 35 53 
123 34 25 24 54 
124 16 21 22 53 
125 28 29 37 53 
126 3 35 21 53 
127 26 25 27 53 
128 33 22 21 53 
129 18 53 17 54 
130 52 30 19 53 
131 25 53 18 54 
132 28 22 29 53 
133 17 53 23 54 
134 28 53 37 54 
135 23 53 28 54 
136 25 32 27 53 
137 33 29 22 53 
138 32 34 45 54 
139 40 37 53 54 
140 29 40 37 53 
141 51 38 37 54 
142 38 23 28 54 
143 45 48 4 54 
144 38 51 37 7 
145 32 53 25 54 
146 32 45 46 54 
147 17 23 36 54 
148 43 27 32 53 
149 28 37 38 54 
150 4 48 51 54 
151 40 31 37 54 
152 33 39 29 53 
153 6 36 38 54 
154 42 11 52 49 
155 17 36 24 54 
156 51 48 47 54 
157 32 46 53 54 
158 47 36 6 54 
159 50 44 13 52 
160 40 53 31 54 
161 5 47 51 48 
162 6 38 51 54 
163 51 8 37 7 
164 37 31 51 54 
165 47 6 51 54 
166 36 23 38 54 
167 43 32 46 53 
168 7 38 51 6 
169 42 11 12 52 
170 12 13 44 52 
171 37 8 51 31 
172 10 52 49 30 
173 19 30 41 53 
174 39 40 29 53 
175 51 6 47 5 
176 4 5 51 48 
177 41 30 46 53 
178 19 40 39 53 
179 49 11 52 10 
180 43 10 49 30 
181 14 50 13 52 
182 47 34 24 54 
183 34 48 45 54 
184 19 52 14 15 
185 34 47 48 54 
186 47 24 36 54 
187 31 53 41 54 
188 43 46 30 53 
189 8 51 31 9 
190 51 31 20 54 
191 30 41 46 20 
192 41 31 40 53 
193 41 46 20 53 
194 46 20 53 54 
195 20 41 53 54 
196 19 41 40 53 
197 46 45 20 54 
198 20 31 41 54 
199 20 45 4 54 
200 4 51 20 54 
201 31 51 2 9 
202 41 20 2 31 
203 2 20 51 31 
204 1 52 10 30 
205 4 20 51 2 
206 1 20 41 30 
207 2 1 20 41 
208 3 17 53 16 
209 53 17 3 18 
210 35 52 12 44 
211 12 52 35 42 
212 49 30 53 43 
213 53 30 49 52 
214 53 39 52 50 
215 53 52 39 19 
216 14 52 39 50 
217 14 39 52 19 
218 1 52 19 15 
219 19 52 1 30 
220 19 41 1 15 
221 1 41 19 30 
$EndElements
