$MeshFormat
4.1 0 8
$EndMeshFormat
$PhysicalNames
3
2 1 "Bottom"
2 2 "Patch"
3 3 "volume"
$EndPhysicalNames
$Entities
20 22 10 1
1 -1 0 0 0 
7 -1.4 0 0 0 
10 -1 0.4 0 0 
13 -1 -0.4 0 0 
14 0.6 0 0 0 
15 1.1 0 0 0 
16 0.9 0 0 0 
17 0.6 0.5 0 0 
18 0.6 0.3 0 0 
19 0.6 -0.3 0 0 
20 0.3 0 0 0 
21 0.6 -0.5 0 0 
22 -1 0.4 0.1 0 
23 0.6 0.5 0.1 0 
27 0.6 0 0.1 0 
28 1.1 0 0.1 0 
33 0.6 -0.5 0.1 0 
37 -1 -0.4 0.1 0 
41 -1 0 0.1 0 
42 -1.4 0 0.1 0 
1 -1 0.4 0 0.6000000000000001 0.5 0 0 2 10 -17 
2 -1 -0.5 0 0.6000000000000001 -0.4 0 0 2 13 -21 
3 -1.4 2.775557561562891e-17 0 -1 0.4 0 0 2 10 -7 
4 -1.4 -0.3999999999999999 0 -1 0 0 0 2 7 -13 
5 0.6 -0.5 0 1.1 -2.775557561562891e-17 0 0 2 21 -15 
6 0.6 0 0 1.1 0.5000000000000001 0 0 2 15 -17 
7 0.6 0 0 0.9 0.3 0 0 2 16 -18 
8 0.3 2.775557561562891e-17 0 0.6 0.3 0 0 2 18 -20 
9 0.3 -0.3 0 0.6 0 0 0 2 20 -19 
10 0.6 -0.3 0 0.8999999999999999 -2.775557561562891e-17 0 0 2 19 -16 
22 -1 0.4 0.1 0.6000000000000001 0.5 0.1 0 2 22 -23 
23 0.6 0 0.1 1.1 0.5000000000000001 0.1 0 2 23 -28 
24 0.6 -0.5 0.1 1.1 -2.775557561562891e-17 0.1 0 2 28 -33 
25 -1 -0.5 0.1 0.6000000000000001 -0.4 0.1 0 2 33 -37 
26 -1.4 -0.3999999999999999 0.1 -1 0 0.1 0 2 37 -42 
27 -1.4 2.775557561562891e-17 0.1 -1 0.4 0.1 0 2 42 -22 
29 -1 0.4 0 -1 0.4 0.1 0 2 10 -22 
30 0.6 0.5 0 0.6 0.5 0.1 0 2 17 -23 
34 1.1 0 0 1.1 0 0.1 0 2 15 -28 
38 0.6 -0.5 0 0.6 -0.5 0.1 0 2 21 -33 
42 -1 -0.4 0 -1 -0.4 0.1 0 2 13 -37 
46 -1.4 0 0 -1.4 0 0.1 0 2 7 -42 
1 -1.4 -0.4999999999999999 0 1.1 0.5 0 1 1 10 1 -6 -5 -2 -4 -3 -7 -10 -9 -8 
10 -1.4 -0.4999999999999999 0 1.1 0.5 0 0 6 1 -6 -5 -2 -4 -3 
20 0.3 -0.3 0 0.9 0.3 0 1 2 4 8 9 10 7 
31 -1 0.4 0 0.6000000000000001 0.5 0.1 0 4 1 30 -22 -29 
35 0.6 0 0 1.1 0.5000000000000001 0.1 0 4 -6 34 -23 -30 
39 0.6 -0.5 0 1.1 0 0.1 0 4 -5 38 -24 -34 
43 -1 -0.5 0 0.6000000000000001 -0.4 0.1 0 4 -2 42 -25 -38 
47 -1.4 -0.4 0 -1 0 0.1 0 4 -4 46 -26 -42 
51 -1.4 0 0 -1 0.4 0.1 0 4 -3 29 -27 -46 
52 -1.4 -0.4999999999999999 0.1 1.1 0.5 0.1 0 6 22 23 24 25 26 27 
1 -1.4 -0.4999999999999999 0 1.1 0.5 0.1 1 3 8 -10 52 31 -35 -39 -43 -47 -51 
$EndEntities
$Nodes
23 29 1 29
0 7 0 1
1
-1.4 0 0
0 10 0 1
2
-1 0.4 0
0 13 0 1
3
-1 -0.4 0
0 15 0 1
4
1.1 0 0
0 16 0 1
5
0.9 0 0
0 17 0 1
6
0.6 0.5 0
0 18 0 1
7
0.6 0.3 0
0 19 0 1
8
0.6 -0.3 0
0 20 0 1
9
0.3 0 0
0 21 0 1
10
0.6 -0.5 0
1 1 0 1
11
-0.2000000000021229 0.4499999999998673 0
1 2 0 1
12
-0.2000000000021229 -0.4499999999998673 0
1 3 0 1
13
-1.282842713259161 0.282842711690077 0
1 4 0 1
14
-1.282842711814173 -0.2828427131350645 0
1 5 0 1
15
0.9535533914902319 -0.3535533896963156 0
1 6 0 1
16
0.9535533897017401 0.3535533914848075 0
1 7 0 1
17
0.8121320338085318 0.2121320349033967 0
1 8 0 1
18
0.3878679651646335 0.2121320338765621 0
1 9 0 1
19
0.3878679662110431 -0.2121320349229716 0
1 10 0 1
20
0.8121320347774063 -0.2121320339345222 0
2 1 0 5
21
22
23
24
25
-0.6074932094293548 0.006660028028195089 0
-1.095529772417115 0.001110004430534604 0
0.1602222522887529 0.1821619069496998 0
0.160222253045432 -0.1821619079070461 0
-0.1484868735411878 -1.119843817840896e-09 0
2 20 0 4
26
27
28
29
0.5666020660518407 -0.08062974541726918 0
0.6451423640264539 0.1089833078679885 0
0.4656950955661724 0.05707207720351812 0
0.7353239616186936 -0.0546118555819203 0
3 1 0 0
$EndNodes
$Elements
2 44 1 44
2 1 2 30
1 21 3 22 
2 7 18 6 
3 8 10 19 
4 2 21 22 
5 3 14 22 
6 23 9 24 
7 14 1 22 
8 21 11 25 
9 12 21 25 
10 23 24 25 
11 1 13 22 
12 13 2 22 
13 11 23 25 
14 24 12 25 
15 9 19 24 
16 18 9 23 
17 11 6 23 
18 6 18 23 
19 2 11 21 
20 12 3 21 
21 15 5 4 
22 5 16 4 
23 20 5 15 
24 5 17 16 
25 17 7 6 
26 16 17 6 
27 8 20 10 
28 10 12 24 
29 20 15 10 
30 19 10 24 
2 20 2 14
31 9 19 28 
32 5 17 29 
33 7 18 28 
34 19 26 28 
35 8 20 29 
36 26 8 29 
37 17 27 29 
38 27 7 28 
39 19 8 26 
40 17 7 27 
41 18 9 28 
42 20 5 29 
43 27 26 29 
44 26 27 28 
$EndElements
