$MeshFormat
4.1 0 8
$EndMeshFormat
$PhysicalNames
5
2 19 "Patch1"
2 20 "Bottom"
2 21 "Patch2"
2 22 "Wall"
3 23 "Domain"
$EndPhysicalNames
$Entities
3 4 4 1
1 -1 -2.449293598294706e-16 -1 0 
2 -1 -2.449293598294706e-16 0 0 
3 -0.5 -1.224646799147353e-16 0 0 
1 -1.0000001 -1.0000001 -1.0000001 1.0000001 1.0000001 -0.9999999000000001 0 2 1 -1 
2 -1.0000001 -1.000000002449294e-07 -1.0000001 -0.9999999000000001 9.999999975507064e-08 9.999999994736442e-08 0 2 2 -1 
3 -1.0000001 -1.0000001 -1e-07 1.0000001 1.0000001 1e-07 0 2 2 -2 
4 -0.5000000999999999 -0.5000000999999999 -1e-07 0.5000000999999999 0.5000000999999999 1e-07 0 2 3 -3 
1 -1.0000001 -1.0000001 -1.0000001 1.0000001 1.0000001 9.999999994736442e-08 1 22 4 -1 -2 3 2 
2 -1.0000001 -1.0000001 -1.0000001 1.0000001 1.0000001 -0.9999999000000001 1 20 1 1 
3 -1.0000001 -1.0000001 -1e-07 1.0000001 1.0000001 1e-07 1 19 2 3 -4 
4 -0.5000000999999999 -0.5000000999999999 -1e-07 0.5000000999999999 0.5000000999999999 1e-07 1 21 1 4 
1 -1.0000001 -1.0000001 -1.0000001 1.0000001 1.0000001 9.999999994736442e-08 1 23 4 1 2 -3 -4 
$EndEntities
$Nodes
12 232 1 232
0 1 0 1
1
-1 -2.449293598294706e-16 -1
0 2 0 1
2
-1 -2.449293598294706e-16 0
0 3 0 1
3
-0.5 0 0
1 1 0 20
4
5
6
7
8
9
10
11
12
13
14
15
16
17
18
19
20
21
22
23
-0.9555728057861408 0.294755174410904 -1
-0.8262387743159951 0.5633200580636216 -1
-0.6234898018587343 0.7818314824680292 -1
-0.365341024366396 0.9308737486442038 -1
-0.07473009358642571 0.99720379718118 -1
0.2225209339563133 0.9749279121818238 -1
0.4999999999999987 0.8660254037844394 -1
0.7330518718298248 0.680172737770921 -1
0.9009688679024177 0.433883739117561 -1
0.9888308262251279 0.1490422661761791 -1
0.9888308262251294 -0.1490422661761688 -1
0.900968867902422 -0.433883739117552 -1
0.733051871829832 -0.6801727377709132 -1
0.5000000000000081 -0.8660254037844339 -1
0.2225209339563241 -0.9749279121818214 -1
-0.07473009358641373 -0.9972037971811809 -1
-0.3653410243663871 -0.9308737486442074 -1
-0.6234898018587278 -0.7818314824680344 -1
-0.8262387743159924 -0.5633200580636256 -1
-0.95557280578614 -0.2947551744109064 -1
1 2 0 3
24
25
26
-1 -2.449293598294706e-16 -0.2500000000000008
-1 -2.449293598294706e-16 -0.5000000000000017
-1 -2.449293598294706e-16 -0.7500000000000013
1 3 0 20
27
28
29
30
31
32
33
34
35
36
37
38
39
40
41
42
43
44
45
46
-0.9555728057861408 0.294755174410904 0
-0.8262387743159951 0.5633200580636216 0
-0.6234898018587343 0.7818314824680292 0
-0.365341024366396 0.9308737486442038 0
-0.07473009358642571 0.99720379718118 0
0.2225209339563133 0.9749279121818238 0
0.4999999999999987 0.8660254037844394 0
0.7330518718298248 0.680172737770921 0
0.9009688679024177 0.433883739117561 0
0.9888308262251279 0.1490422661761791 0
0.9888308262251294 -0.1490422661761688 0
0.900968867902422 -0.433883739117552 0
0.733051871829832 -0.6801727377709132 0
0.5000000000000081 -0.8660254037844339 0
0.2225209339563241 -0.9749279121818214 0
-0.07473009358641373 -0.9972037971811809 0
-0.3653410243663871 -0.9308737486442074 0
-0.6234898018587278 -0.7818314824680344 0
-0.8262387743159924 -0.5633200580636256 0
-0.95557280578614 -0.2947551744109064 0
1 4 0 10
47
48
49
50
51
52
53
54
55
56
-0.4206267664155907 0.2703204087277986 0
-0.2077075065009437 0.4548159976772589 0
0.07115741913664206 0.4949107209404665 0
0.3274303669726418 0.3778747871771297 0
0.4797464868072481 0.1408662784207168 0
0.4797464868072496 -0.1408662784207119 0
0.3274303669726456 -0.3778747871771265 0
0.07115741913664746 -0.4949107209404657 0
-0.2077075065009394 -0.4548159976772609 0
-0.4206267664155894 -0.2703204087278006 0
2 1 0 66
57
58
59
60
61
62
63
64
65
66
67
68
69
70
71
72
73
74
75
76
77
78
79
80
81
82
83
84
85
86
87
88
89
90
91
92
93
94
95
96
97
98
99
100
101
102
103
104
105
106
107
108
109
110
111
112
113
114
115
116
117
118
119
120
121
122
0.8287220266671509 -0.5596604350109895 -0.2473643202607949
0.9555728057861438 0.2947551744108944 -0.2502539679187558
0.3673985718533638 -0.930063594277353 -0.7433441618922509
0.6252171410922338 0.7804508482181655 -0.7433441618922162
-0.731058893867784 0.6823143657411971 -0.2510712710409297
0.07473009358642294 0.9972037971811802 -0.7420929607824256
-0.2225209339563056 -0.9749279121818256 -0.742092960782425
-0.7310369318035351 -0.6823378960158035 -0.7489477247005238
0.956222261471452 -0.2926413960232254 -0.7433441618922507
0.366810884021842 0.9302955311959286 -0.2512578259849839
0.07630508408628246 -0.9970845170508794 -0.2511964480979856
-0.5000000000000009 0.8660254037844382 -0.7420929607824254
-0.9072929118662549 0.4204991939079696 -0.7417775798247392
-0.2225209339563158 0.9749279121818233 -0.2579070392175745
-0.4999999999999932 -0.8660254037844426 -0.2579070392175758
-0.907280553160187 -0.4205258587261253 -0.2582379072160059
-0.9780155839130128 -0.2085318144151838 -0.617875166403681
-0.9765625 0.2152340205305611 -0.3750000000000012
0.9555728057861396 0.294755174410908 -0.7420929607824266
-0.7342470405315608 -0.6788823782295756 -0.2541162203887131
-0.7343025087211215 0.6788223815445888 -0.74593039027984
-0.2223899881067708 -0.9749577904657567 -0.2546469415994154
0.07486402865806258 0.9971937510900701 -0.25469600215537
0.07730247985550663 -0.9970076863335553 -0.7461454106288126
0.8276893052865 -0.5611866123798313 -0.7462487203493013
0.6241139153819723 -0.7813333607536442 -0.7456901458339603
0.5042584381541727 -0.8635527937250359 -0.4955367048818582
-0.4999999999999954 -0.8660254037844413 -0.742092960782424
0.3677413220440563 0.9299281262878812 -0.746231339670653
0.8264463299336785 0.5630155093238138 -0.744997519239513
0.7363438193878559 0.676607552166915 -0.4954212671160966
0.9999999320853653 0.0003685502201075302 -0.7449975192394992
0.9895424203791262 -0.1442421515030217 -0.495421267116109
-0.2225209339563155 0.9749279121818234 -0.7420929607823723
-0.5000000000000007 0.8660254037844383 -0.2579070392175746
-0.9765739724656315 0.2151819609137721 -0.6249082089076387
-0.9793517800424816 -0.20216352521566 -0.3835112326644599
-0.9075285023719296 -0.4199904967764896 -0.7423650456511148
-0.8205910334885733 -0.5715158403387915 -0.5009714833471783
-0.9071192848292857 0.4208736189057296 -0.2566197224028788
-0.820530027686367 0.5716034234196029 -0.4988920310198207
0.6247069875599683 -0.7808592572888853 -0.2474989976541851
0.9999996729512217 0.0008087629131460756 -0.247961365969553
0.9019835832824002 -0.4317703272447533 -0.4957452384001377
0.8266940964668091 0.5626516425524111 -0.2479613659695453
0.5016190583247297 0.8650886199259653 -0.4963738785624109
0.2243558232466756 -0.9745072932386429 -0.4962826379933829
-0.6236345429471163 0.7817160333798593 -0.5003727795822602
-0.6234898018587265 -0.7818314824680355 -0.4997422128743183
0.223522425199568 0.9746987870275122 -0.4984849657135874
-0.3653410243664361 0.9308737486441881 -0.5002577871256813
-0.07465973199918219 0.9972090675569544 -0.4998924441363058
-0.3653410243663879 -0.930873748644207 -0.5002577871257078
-0.07370357475236593 -0.9972801928589189 -0.4984370310379548
0.3668832948338495 -0.9302669767178983 -0.248419131437902
0.7349339738318587 -0.6781386687895868 -0.496347354563373
0.9561813078976061 -0.2927751806885676 -0.2477486986244324
0.9887542754385746 0.1495492654677354 -0.4985692757075965
0.9013674535618786 0.4330550930994514 -0.4965493927889889
0.6246763432144609 0.7808837725476238 -0.2485023896055061
-0.9283904905319963 -0.371606104753083 -0.501114344826747
-0.92787083579955 0.3729017458696654 -0.4994395084310157
-0.9821093911291991 0.1883112950829922 -0.827465466885139
-0.9824997463666337 -0.1862639213307302 -0.1783498279760933
-0.981983872859493 0.1889647412716751 -0.1763239444805762
-0.9822786345235731 -0.1874264766742005 -0.8220480424109594
2 2 0 40
123
124
125
126
127
128
129
130
131
132
133
134
135
136
137
138
139
140
141
142
143
144
145
146
147
148
149
150
151
152
153
154
155
156
157
158
159
160
161
162
0.4592556363919915 -0.5760942809806033 -1
-0.5281566943900281 0.490648750664351 -1
0.6037573701878302 0.4147873706621816 -1
-0.5041641862633868 -0.4853741689788185 -1
0.07107038621984774 0.7376425204269687 -1
0.7021891792714913 -0.1978678254853063 -1
-0.7225209339563132 -0.1089025083973856 -1
0.05460393788372921 -0.7286389135284622 -1
-0.1784479339460973 -0.7818314824680316 -1
-0.1683100685880117 -0.5210134414458102 -1
0.1948514398118922 -0.4736120701362687 -1
-0.01743999401008161 -0.2316166624583826 -1
0.2695415588380077 -0.1664315620701225 -1
0.09243411887237407 0.05324252885687876 -1
-0.1963181861059467 0.009308381467915978 -1
-0.08903419285818057 0.2719704551450171 -1
0.190224556153645 0.2913246252531893 -1
-0.3076129147978075 -0.2727050573670215 -1
0.3452829804302605 0.07876352119507438 -1
-0.3802955566527852 0.2387888710658124 -1
-0.468550004669363 -0.01728673354568488 -1
-0.6791443036174394 0.195243134622643 -1
-0.255452460178531 0.4944605205861284 -1
-0.3894620927699927 0.6899823750105144 -1
-0.3773843929753481 -0.6985601752750906 -1
0.292980753877006 0.7465027863078959 -1
-0.7117844391640642 -0.3402864339097916 -1
0.801937735804839 4.135580766728708e-15 -1
0.4999999999999991 0.626980168831353 -1
0.7663098922688135 0.2363752971838439 -1
0.6565038898886875 -0.4482186663974595 -1
0.2881704936854248 -0.730329164746768 -1
0.01359467211539339 0.5100887051302726 -1
-0.1687804876452251 0.7430794381935997 -1
0.4578307163495401 -0.3361358102351941 -1
0.4761519878666534 -0.1060689217623016 -1
-0.532590050128954 -0.2366609466328933 -1
0.3037218628616254 0.5260616978458039 -1
0.5874232482625789 0.1049571896993206 -1
0.4060820035791879 0.2831788809311139 -1
2 3 0 22
163
164
165
166
167
168
169
170
171
172
173
174
175
176
177
178
179
180
181
182
183
184
0.7237340381050694 3.646286789147328e-15 0
0.6088438163860652 0.3912801619815672 0
0.6088438163860691 -0.3912801619815611 0
0.3006499848493312 -0.6583316371874948 0
0.3006499848493243 0.6583316371874979 0
-0.1029980925857881 -0.7163674691354712 0
-0.1029980925857952 0.71636746913547 0
-0.4466667869548266 0.5281377716768803 0
-0.4466667869548223 -0.528137771676883 0
-0.6622632697014086 0.1973371275005987 0
-0.6622632697014075 -0.1973371275006004 0
0.7709152075732669 0.2263611287525948 0
0.7709152075732695 -0.2263611287525872 0
0.5203243682577313 -0.6004863316018852 0
0.5203243682577251 0.6004863316018905 0
0.104615769568502 -0.7767765020596258 0
0.1046157695684939 0.7767765020596267 0
-0.3253461317177694 0.7121109151470228 0
-0.3253461317177631 -0.7121109151470252 0
-0.6561637282810949 0.4216100543642917 0
-0.6561637282810917 -0.4216100543642939 0
-0.7789530480242163 -9.575673587391975e-16 0
2 4 0 8
185
186
187
188
189
190
191
192
0.2040537785976622 0.1380530019069102 0
-0.2560237112882257 -0.07047798040284908 0
0.1085024613523018 -0.2375872496941271 0
0.02538079419815276 0.2732390658068121 0
-0.002458850442687658 -0.0022644354089539 0
-0.2269060067415491 0.1542721760666778 0
0.2661701216824032 -0.07994557839554872 0
-0.1168424970084531 -0.2558493804255523 0
3 1 0 40
193
194
195
196
197
198
199
200
201
202
203
204
205
206
207
208
209
210
211
212
213
214
215
216
217
218
219
220
221
222
223
224
225
226
227
228
229
230
231
232
-0.4944217944230709 0.1031773500847919 -0.4999529005568431
0.2950476479688567 0.2049543291190165 -0.5028460183930608
0.2173015724026998 -0.308768547617817 -0.5030424049490539
-0.1373423138201634 0.4749543584995166 -0.5044868415572666
-0.3093509803124686 -0.3757282845422159 -0.4970152720359595
0.5774490101232526 -0.1004958981013054 -0.5877330546086732
-0.07940500019843838 -0.001149935164657709 -0.4271943138667885
0.2321492604700479 0.5860678232900617 -0.4020476000884874
-0.6101169275158485 -0.2176136538992275 -0.6400677875714587
-0.01229025920243923 -0.6182734664398382 -0.6188636681969426
0.6220605122707742 0.1665321957489841 -0.3384294181120691
0.4977555172694492 0.459938965956907 -0.6498451654888626
-0.4874424416733414 0.4574583404080448 -0.4033635186843766
0.1647115368854007 0.4448798900496549 -0.7008132936928021
0.5445793670557353 -0.3955018752468455 -0.3887914283324662
-0.2133619247191794 0.1883552008490151 -0.6861814387393657
0.3219495279504125 -0.5957929864954965 -0.6874536951471002
0.3775612539592995 -0.06514540354487819 -0.3181783664803144
-0.3886467267405237 0.5468555528311024 -0.7039725153187686
0.2180568926030519 -0.6275182706388615 -0.3517657149785722
-0.5202012271551693 -0.1808624103569111 -0.3134077833990235
-0.7123522941142839 0.0949679001543592 -0.2825434713738882
0.1393930911895507 -0.03416608789493546 -0.679451843156352
-0.10660059712332 -0.5589499135336539 -0.3024409924705189
-0.1712582863118605 -0.1564781064647416 -0.7097121494009337
0.5263923584409328 0.4749166976131539 -0.3284279524386085
0.72483418588168 0.1092511750247315 -0.7358513885720291
0.5640720470887446 -0.3935017974279786 -0.7035199451931606
0.03970811058714691 0.2783742888432488 -0.321381927784082
-0.7458320738449905 0.04488938975038434 -0.6250000000000016
-0.6102456478977217 0.3212671355153354 -0.6975856125975844
0.03494322414468114 0.7156263706972035 -0.6091141678516688
-0.3156670283886147 -0.6137252593901676 -0.70310222516164
-0.002504350652146922 -0.2672717601053644 -0.2879554185937759
0.6917576410969277 -0.135189540348775 -0.2993780810032776
-0.277436863831961 0.2362641932614899 -0.3055001900812768
0.4433053961954795 0.1608581991702791 -0.7438027358791046
-0.263334799031773 0.6709661252751491 -0.3005662073340822
-0.4532471934973067 -0.5663500199326472 -0.3043804548527632
-0.5551925437862665 -0.497324275426434 -0.5896214121471887
$EndNodes
$Elements
5 1122 1 1122
2 1 2 180
1 1 119 4 
2 23 122 1 
3 26 119 1 
4 1 122 26 
5 24 120 2 
6 2 121 24 
7 27 121 2 
8 2 120 46 
9 4 69 5 
10 4 119 69 
11 5 77 6 
12 69 77 5 
13 6 68 7 
14 6 77 68 
15 7 90 8 
16 68 90 7 
17 8 62 9 
18 8 90 62 
19 9 85 10 
20 62 85 9 
21 10 60 11 
22 10 85 60 
23 11 86 12 
24 60 86 11 
25 12 75 13 
26 12 86 75 
27 13 88 14 
28 75 88 13 
29 14 65 15 
30 14 88 65 
31 15 81 16 
32 65 81 15 
33 16 82 17 
34 81 82 16 
35 17 59 18 
36 17 82 59 
37 18 80 19 
38 59 80 18 
39 19 63 20 
40 19 80 63 
41 20 84 21 
42 63 84 20 
43 21 64 22 
44 21 84 64 
45 22 94 23 
46 64 94 22 
47 94 122 23 
48 24 74 25 
49 25 93 24 
50 24 121 74 
51 93 120 24 
52 26 73 25 
53 25 92 26 
54 73 93 25 
55 74 92 25 
56 26 122 73 
57 92 119 26 
58 28 96 27 
59 96 121 27 
60 29 61 28 
61 61 96 28 
62 30 91 29 
63 29 91 61 
64 31 70 30 
65 70 91 30 
66 32 79 31 
67 31 79 70 
68 33 66 32 
69 66 79 32 
70 34 116 33 
71 33 116 66 
72 35 101 34 
73 101 116 34 
74 36 58 35 
75 58 101 35 
76 37 99 36 
77 36 99 58 
78 38 113 37 
79 37 113 99 
80 39 57 38 
81 57 113 38 
82 40 98 39 
83 39 98 57 
84 41 111 40 
85 40 111 98 
86 42 67 41 
87 67 111 41 
88 43 78 42 
89 42 78 67 
90 44 71 43 
91 71 78 43 
92 45 76 44 
93 44 76 71 
94 46 72 45 
95 72 76 45 
96 46 120 72 
97 98 112 57 
98 57 112 100 
99 100 113 57 
100 99 114 58 
101 58 115 101 
102 114 115 58 
103 59 103 80 
104 82 83 59 
105 83 103 59 
106 85 102 60 
107 60 87 86 
108 60 102 87 
109 91 104 61 
110 61 97 96 
111 61 104 97 
112 62 106 85 
113 90 108 62 
114 62 108 106 
115 80 110 63 
116 63 109 84 
117 63 110 109 
118 84 105 64 
119 64 95 94 
120 64 105 95 
121 65 100 81 
122 88 89 65 
123 89 100 65 
124 66 106 79 
125 102 106 66 
126 66 116 102 
127 78 110 67 
128 67 110 103 
129 103 111 67 
130 77 104 68 
131 68 107 90 
132 104 107 68 
133 69 97 77 
134 92 118 69 
135 69 119 92 
136 69 118 97 
137 79 108 70 
138 70 107 91 
139 70 108 107 
140 76 105 71 
141 71 109 78 
142 105 109 71 
143 72 95 76 
144 93 117 72 
145 72 120 93 
146 72 117 95 
147 73 117 93 
148 94 117 73 
149 73 122 94 
150 74 118 92 
151 96 118 74 
152 74 121 96 
153 86 115 75 
154 75 114 88 
155 75 115 114 
156 95 105 76 
157 97 104 77 
158 109 110 78 
159 106 108 79 
160 103 110 80 
161 81 112 82 
162 100 112 81 
163 82 112 83 
164 98 111 83 
165 83 112 98 
166 83 111 103 
167 84 109 105 
168 85 106 102 
169 87 115 86 
170 101 115 87 
171 87 116 101 
172 102 116 87 
173 88 114 89 
174 99 113 89 
175 89 114 99 
176 89 113 100 
177 107 108 90 
178 91 107 104 
179 95 117 94 
180 97 118 96 
2 2 2 99
181 4 144 1 
182 1 129 23 
183 1 144 129 
184 5 144 4 
185 6 124 5 
186 124 144 5 
187 7 146 6 
188 6 146 124 
189 8 156 7 
190 7 156 146 
191 9 127 8 
192 127 156 8 
193 10 148 9 
194 9 148 127 
195 11 151 10 
196 10 151 148 
197 12 125 11 
198 125 151 11 
199 13 152 12 
200 12 152 125 
201 14 150 13 
202 150 152 13 
203 15 128 14 
204 128 150 14 
205 16 153 15 
206 15 153 128 
207 17 123 16 
208 123 153 16 
209 18 154 17 
210 17 154 123 
211 19 130 18 
212 130 154 18 
213 20 131 19 
214 19 131 130 
215 21 147 20 
216 20 147 131 
217 22 126 21 
218 126 147 21 
219 23 149 22 
220 22 149 126 
221 129 149 23 
222 123 154 133 
223 133 157 123 
224 123 157 153 
225 142 144 124 
226 124 145 142 
227 124 146 145 
228 125 160 151 
229 152 161 125 
230 125 162 160 
231 161 162 125 
232 126 140 132 
233 132 147 126 
234 126 159 140 
235 149 159 126 
236 148 160 127 
237 155 156 127 
238 127 160 155 
239 128 161 150 
240 153 157 128 
241 157 158 128 
242 158 161 128 
243 129 144 143 
244 143 159 129 
245 129 159 149 
246 131 132 130 
247 132 133 130 
248 133 154 130 
249 131 147 132 
250 132 134 133 
251 132 140 134 
252 134 135 133 
253 135 157 133 
254 134 136 135 
255 134 137 136 
256 134 140 137 
257 136 141 135 
258 141 158 135 
259 135 158 157 
260 137 138 136 
261 138 139 136 
262 139 141 136 
263 137 142 138 
264 140 143 137 
265 137 143 142 
266 138 155 139 
267 142 145 138 
268 145 155 138 
269 139 162 141 
270 155 160 139 
271 160 162 139 
272 140 159 143 
273 141 161 158 
274 141 162 161 
275 143 144 142 
276 146 156 145 
277 145 156 155 
278 151 160 148 
279 150 161 152 
2 3 2 76
280 27 2 184 
281 2 46 184 
282 3 47 172 
283 56 3 173 
284 3 172 184 
285 173 3 184 
286 28 27 182 
287 27 172 182 
288 172 27 184 
289 29 28 182 
290 30 29 180 
291 29 170 180 
292 170 29 182 
293 31 30 169 
294 169 30 180 
295 32 31 179 
296 31 169 179 
297 33 32 167 
298 167 32 179 
299 34 33 177 
300 33 167 177 
301 35 34 164 
302 164 34 177 
303 36 35 174 
304 35 164 174 
305 37 36 163 
306 163 36 174 
307 38 37 175 
308 37 163 175 
309 39 38 165 
310 165 38 175 
311 40 39 176 
312 39 165 176 
313 41 40 166 
314 166 40 176 
315 42 41 178 
316 41 166 178 
317 43 42 168 
318 168 42 178 
319 44 43 181 
320 43 168 181 
321 45 44 183 
322 171 44 181 
323 44 171 183 
324 46 45 183 
325 173 46 183 
326 46 173 184 
327 47 48 170 
328 47 170 182 
329 172 47 182 
330 48 49 169 
331 48 169 180 
332 170 48 180 
333 49 50 167 
334 49 167 179 
335 169 49 179 
336 50 51 164 
337 50 164 177 
338 167 50 177 
339 51 52 163 
340 51 163 174 
341 164 51 174 
342 52 53 165 
343 163 52 175 
344 52 165 175 
345 53 54 166 
346 165 53 176 
347 53 166 176 
348 54 55 168 
349 166 54 178 
350 54 168 178 
351 55 56 171 
352 168 55 181 
353 55 171 181 
354 171 56 183 
355 56 173 183 
2 4 2 25
356 47 3 190 
357 3 56 186 
358 3 186 190 
359 48 47 190 
360 49 48 188 
361 188 48 190 
362 50 49 188 
363 51 50 185 
364 185 50 188 
365 52 51 191 
366 51 185 191 
367 53 52 191 
368 54 53 187 
369 187 53 191 
370 55 54 192 
371 54 187 192 
372 56 55 192 
373 186 56 192 
374 185 188 189 
375 185 189 191 
376 186 189 190 
377 189 186 192 
378 189 187 191 
379 187 189 192 
380 189 188 190 
3 1 4 742
381 148 151 85 204 
382 85 148 204 206 
383 179 79 200 230 
384 186 213 199 226 
385 185 210 189 221 
386 135 158 198 220 
387 85 204 200 206 
388 185 194 51 210 
389 134 202 195 217 
390 135 198 215 220 
391 195 215 198 220 
392 189 210 199 221 
393 79 224 200 230 
394 194 206 208 221 
395 51 185 50 194 
396 55 197 56 226 
397 85 206 200 224 
398 85 148 206 224 
399 160 151 148 204 
400 194 208 206 215 
401 186 199 213 228 
402 158 215 198 229 
403 193 201 143 217 
404 56 197 213 226 
405 199 210 189 226 
406 140 197 201 232 
407 148 160 204 206 
408 50 194 185 221 
409 145 156 211 224 
410 85 151 60 204 
411 206 208 138 215 
412 194 203 51 210 
413 135 215 195 220 
414 208 215 194 221 
415 155 206 196 208 
416 194 218 200 221 
417 158 135 198 215 
418 55 56 192 226 
419 201 213 117 232 
420 93 213 201 222 
421 138 155 145 208 
422 102 200 85 204 
423 205 214 118 223 
424 93 117 201 213 
425 194 50 218 221 
426 155 138 206 208 
427 140 225 197 232 
428 145 155 156 224 
429 93 214 213 222 
430 193 143 208 217 
431 140 201 197 217 
432 179 169 79 230 
433 196 211 107 224 
434 199 213 197 226 
435 55 216 197 226 
436 197 199 193 213 
437 199 215 208 221 
438 134 195 215 217 
439 193 199 197 217 
440 56 197 55 231 
441 143 201 193 222 
442 185 194 210 221 
443 214 222 118 223 
444 195 202 197 217 
445 185 191 189 210 
446 48 49 221 230 
447 133 195 134 202 
448 191 189 210 226 
449 197 195 217 226 
450 135 157 158 220 
451 90 107 211 224 
452 140 159 126 201 
453 200 218 50 221 
454 196 206 155 224 
455 143 222 193 223 
456 197 201 193 217 
457 193 208 143 223 
458 197 202 195 226 
459 203 204 115 219 
460 158 141 215 229 
461 196 107 211 230 
462 156 90 211 224 
463 213 231 72 232 
464 120 213 93 214 
465 196 208 206 221 
466 107 196 224 230 
467 142 143 208 223 
468 193 201 197 213 
469 108 224 79 230 
470 139 206 215 229 
471 93 72 117 213 
472 95 72 231 232 
473 53 210 195 226 
474 197 216 55 231 
475 3 186 213 228 
476 200 224 196 230 
477 140 201 126 232 
478 56 213 197 231 
479 118 205 96 214 
480 109 216 202 225 
481 109 216 225 231 
482 135 133 195 215 
483 53 207 195 210 
484 47 214 205 228 
485 194 215 206 229 
486 195 212 53 226 
487 110 202 109 216 
488 172 205 47 214 
489 140 217 197 225 
490 93 201 73 222 
491 120 72 93 213 
492 134 195 133 215 
493 197 217 202 225 
494 25 214 93 222 
495 135 133 157 209 
496 53 195 207 212 
497 140 126 225 232 
498 73 93 117 201 
499 135 134 133 215 
500 193 214 205 223 
501 193 213 199 228 
502 135 195 133 209 
503 158 141 135 215 
504 67 212 110 216 
505 114 203 198 227 
506 193 213 3 214 
507 204 219 203 229 
508 127 206 148 224 
509 118 214 74 222 
510 195 202 133 209 
511 186 199 189 226 
512 85 200 106 224 
513 110 212 202 216 
514 150 65 88 219 
515 78 110 109 216 
516 86 152 75 219 
517 134 132 202 217 
518 115 204 203 218 
519 193 214 3 228 
520 120 173 213 214 
521 156 90 146 211 
522 202 217 132 225 
523 79 66 179 200 
524 102 85 60 204 
525 197 216 202 226 
526 193 222 214 223 
527 98 176 207 212 
528 114 198 89 227 
529 53 207 176 212 
530 198 203 114 219 
531 78 216 109 231 
532 3 213 193 228 
533 102 106 85 200 
534 125 152 86 219 
535 141 139 215 229 
536 146 90 68 211 
537 194 204 203 229 
538 63 80 131 202 
539 119 26 129 222 
540 53 212 54 226 
541 189 221 199 228 
542 198 210 194 215 
543 80 154 130 209 
544 80 59 154 209 
545 173 72 120 213 
546 50 49 200 221 
547 131 80 130 202 
548 65 100 198 220 
549 78 67 110 216 
550 198 215 194 229 
551 205 211 208 223 
552 128 65 150 219 
553 94 149 201 232 
554 83 207 209 212 
555 167 200 116 218 
556 191 187 189 226 
557 47 3 214 228 
558 128 198 65 219 
559 83 98 207 212 
560 178 212 67 216 
561 89 198 114 219 
562 112 83 207 209 
563 120 93 24 214 
564 104 211 107 230 
565 125 86 204 219 
566 80 130 202 209 
567 129 201 143 222 
568 108 79 70 230 
569 167 66 116 200 
570 149 126 159 201 
571 199 217 195 226 
572 65 198 128 220 
573 25 93 73 222 
574 195 210 199 226 
575 199 210 195 215 
576 189 190 221 228 
577 106 200 79 224 
578 114 203 115 219 
579 149 129 122 201 
580 196 208 205 211 
581 71 78 109 231 
582 181 216 78 231 
583 65 100 89 198 
584 97 205 118 223 
585 103 202 110 212 
586 104 205 211 230 
587 103 80 202 209 
588 52 207 53 210 
589 126 201 149 232 
590 205 208 193 223 
591 107 224 108 230 
592 198 219 158 229 
593 100 207 198 220 
594 136 141 139 215 
595 63 202 131 225 
596 109 202 63 225 
597 194 203 198 229 
598 65 198 88 219 
599 149 122 94 201 
600 112 209 207 220 
601 88 65 89 198 
602 72 213 183 231 
603 158 128 198 220 
604 200 204 102 218 
605 97 211 205 223 
606 67 103 110 212 
607 129 122 201 222 
608 89 198 100 227 
609 97 96 118 205 
610 76 95 72 231 
611 137 208 143 217 
612 92 118 74 222 
613 172 182 47 205 
614 195 210 198 215 
615 48 228 205 230 
616 96 205 182 214 
617 109 110 63 202 
618 197 225 216 231 
619 167 179 66 200 
620 193 208 199 217 
621 172 182 205 214 
622 103 59 80 209 
623 71 181 78 231 
624 91 170 205 230 
625 204 206 162 229 
626 198 207 100 227 
627 94 64 149 232 
628 122 73 201 222 
629 77 211 97 223 
630 187 53 54 226 
631 68 90 107 211 
632 48 205 170 230 
633 208 211 142 223 
634 83 98 112 207 
635 53 176 166 212 
636 203 204 194 218 
637 58 164 101 203 
638 199 215 195 217 
639 205 214 193 228 
640 202 216 195 226 
641 179 167 49 200 
642 158 198 128 219 
643 205 208 196 228 
644 140 132 217 225 
645 197 217 199 226 
646 170 205 48 228 
647 169 49 48 230 
648 164 101 203 218 
649 168 178 67 216 
650 74 118 96 214 
651 86 60 151 204 
652 24 93 25 214 
653 142 208 145 211 
654 91 170 61 205 
655 167 116 177 218 
656 169 70 79 230 
657 89 88 198 219 
658 164 58 174 203 
659 92 118 222 223 
660 78 168 67 216 
661 132 133 134 202 
662 105 109 225 231 
663 186 189 192 226 
664 193 208 205 228 
665 203 219 198 229 
666 200 206 194 221 
667 126 149 64 232 
668 125 219 204 229 
669 90 108 107 224 
670 144 222 143 223 
671 129 26 122 222 
672 90 156 62 224 
673 116 200 102 218 
674 148 10 85 151 
675 115 203 101 218 
676 198 203 194 210 
677 153 81 65 220 
678 82 209 112 220 
679 103 209 202 212 
680 98 166 176 212 
681 200 194 204 218 
682 79 106 66 200 
683 52 207 210 227 
684 116 66 102 200 
685 139 162 206 229 
686 196 206 200 221 
687 92 222 119 223 
688 127 160 148 206 
689 99 203 114 227 
690 86 151 125 204 
691 123 82 153 220 
692 156 155 127 224 
693 190 186 3 228 
694 51 210 203 227 
695 58 101 115 203 
696 200 204 194 206 
697 52 165 53 207 
698 164 203 51 218 
699 128 153 65 220 
700 167 50 49 200 
701 57 98 176 207 
702 57 207 165 227 
703 87 102 204 218 
704 120 184 173 214 
705 159 143 129 201 
706 147 64 84 225 
707 50 200 167 218 
708 47 205 170 228 
709 99 174 58 203 
710 160 162 204 206 
711 208 221 196 228 
712 99 163 174 203 
713 156 127 62 224 
714 81 153 82 220 
715 213 214 193 222 
716 115 87 204 218 
717 201 213 193 222 
718 166 98 111 212 
719 52 210 51 227 
720 199 221 208 228 
721 161 158 219 229 
722 105 231 225 232 
723 77 146 68 211 
724 54 212 216 226 
725 47 3 172 214 
726 165 207 52 227 
727 176 53 165 207 
728 202 212 195 216 
729 163 51 203 227 
730 198 207 195 220 
731 76 72 183 231 
732 112 82 83 209 
733 163 203 99 227 
734 164 51 50 218 
735 47 170 48 228 
736 108 106 79 224 
737 99 114 89 227 
738 171 56 55 231 
739 202 216 197 225 
740 103 80 110 202 
741 57 176 165 207 
742 94 201 117 232 
743 54 212 178 216 
744 189 190 188 221 
745 147 126 64 225 
746 73 94 122 201 
747 163 52 51 227 
748 74 214 25 222 
749 83 209 103 212 
750 63 131 147 225 
751 122 26 73 222 
752 178 111 67 212 
753 195 216 212 226 
754 86 60 11 151 
755 159 129 149 201 
756 9 85 62 148 
757 173 183 72 213 
758 14 88 150 65 
759 104 68 107 211 
760 196 211 205 230 
761 86 12 75 152 
762 195 207 198 210 
763 78 181 168 216 
764 195 209 207 212 
765 155 206 127 224 
766 110 80 63 202 
767 69 92 119 223 
768 77 124 146 211 
769 145 156 146 211 
770 60 85 10 151 
771 137 142 143 208 
772 154 82 123 209 
773 188 48 49 221 
774 77 146 6 68 
775 158 157 128 220 
776 194 206 204 229 
777 131 202 132 225 
778 59 82 154 209 
779 83 111 98 212 
780 75 114 115 219 
781 142 138 145 208 
782 199 208 193 228 
783 123 16 153 82 
784 207 209 195 220 
785 123 209 82 220 
786 144 119 129 222 
787 58 114 99 203 
788 65 153 15 81 
789 81 153 16 82 
790 68 146 7 90 
791 61 182 96 205 
792 127 9 62 148 
793 197 231 213 232 
794 90 156 8 62 
795 146 156 7 90 
796 48 221 188 228 
797 115 114 58 203 
798 47 182 170 205 
799 89 114 88 219 
800 188 185 189 221 
801 11 86 151 125 
802 131 63 19 80 
803 64 225 126 232 
804 104 91 205 230 
805 59 17 154 82 
806 197 213 201 232 
807 17 123 154 82 
808 100 112 207 220 
809 172 121 96 214 
810 80 18 154 59 
811 131 130 132 202 
812 12 86 125 152 
813 183 213 56 231 
814 191 52 53 210 
815 144 129 143 222 
816 142 144 143 223 
817 66 106 102 200 
818 133 202 130 209 
819 155 138 139 206 
820 74 25 92 222 
821 1 129 119 26 
822 55 216 181 231 
823 86 115 87 204 
824 208 215 199 217 
825 130 131 19 80 
826 128 14 150 65 
827 84 21 64 147 
828 161 158 128 219 
829 87 102 60 204 
830 91 180 170 230 
831 200 206 196 224 
832 124 142 211 223 
833 147 84 63 225 
834 205 228 196 230 
835 50 185 188 221 
836 94 117 95 232 
837 50 188 49 221 
838 83 59 103 209 
839 161 152 125 219 
840 154 130 18 80 
841 73 117 94 201 
842 120 24 184 214 
843 125 204 162 229 
844 47 190 3 228 
845 15 128 153 65 
846 131 20 63 147 
847 157 209 123 220 
848 134 215 136 217 
849 62 156 8 127 
850 146 6 124 77 
851 97 61 96 205 
852 151 160 125 204 
853 50 167 177 218 
854 65 81 100 220 
855 172 96 182 214 
856 166 54 53 212 
857 160 139 162 206 
858 119 222 144 223 
859 137 143 140 217 
860 185 51 191 210 
861 111 178 166 212 
862 24 25 74 214 
863 162 125 160 204 
864 56 3 186 213 
865 55 54 216 226 
866 124 211 77 223 
867 104 91 61 205 
868 133 132 130 202 
869 202 209 195 212 
870 92 69 118 223 
871 134 140 132 217 
872 170 182 61 205 
873 100 81 112 220 
874 104 107 91 230 
875 225 231 197 232 
876 134 136 137 217 
877 107 108 70 230 
878 116 167 33 66 
879 161 128 150 219 
880 64 22 94 149 
881 113 57 38 175 
882 166 40 111 98 
883 147 21 64 126 
884 87 116 102 218 
885 81 82 112 220 
886 173 3 213 214 
887 161 219 125 229 
888 20 84 63 147 
889 84 105 109 225 
890 139 141 162 229 
891 155 160 127 206 
892 98 57 112 207 
893 48 188 190 228 
894 124 142 145 211 
895 167 33 177 116 
896 116 101 177 218 
897 171 183 56 231 
898 168 54 178 216 
899 55 192 54 226 
900 109 105 71 231 
901 166 40 98 176 
902 188 221 190 228 
903 165 38 57 175 
904 70 31 169 79 
905 89 100 113 227 
906 171 55 181 231 
907 64 84 225 232 
908 198 210 207 227 
909 22 64 126 149 
910 111 103 67 212 
911 62 85 106 224 
912 168 42 78 67 
913 95 231 105 232 
914 175 99 113 227 
915 87 115 101 218 
916 163 99 175 227 
917 133 130 154 209 
918 177 101 164 218 
919 29 61 91 170 
920 105 225 84 232 
921 198 203 210 227 
922 54 166 178 212 
923 111 83 103 212 
924 132 140 126 225 
925 77 68 104 211 
926 152 150 13 219 
927 37 113 175 99 
928 69 97 118 223 
929 189 187 192 226 
930 174 36 99 58 
931 46 120 173 72 
932 51 164 174 203 
933 95 76 105 231 
934 136 135 141 215 
935 133 123 157 209 
936 163 37 175 99 
937 51 174 163 203 
938 179 169 31 79 
939 172 96 121 27 
940 69 119 144 223 
941 163 174 36 99 
942 42 168 178 67 
943 96 121 74 214 
944 84 109 63 225 
945 77 69 5 223 
946 161 125 162 229 
947 86 87 60 204 
948 77 97 69 223 
949 165 52 175 227 
950 100 112 57 207 
951 73 26 25 222 
952 77 5 124 223 
953 136 134 135 215 
954 34 177 116 101 
955 59 83 82 209 
956 176 98 57 39 
957 70 180 91 230 
958 66 179 32 79 
959 142 137 138 208 
960 13 150 88 219 
961 111 41 178 67 
962 75 152 13 219 
963 180 29 91 170 
964 164 50 177 218 
965 104 61 97 205 
966 153 128 157 220 
967 64 105 84 232 
968 141 158 161 229 
969 122 94 23 149 
970 52 191 51 210 
971 173 184 3 214 
972 62 108 90 224 
973 44 181 71 231 
974 187 54 192 226 
975 181 55 168 216 
976 177 34 164 101 
977 26 119 92 222 
978 57 176 39 165 
979 173 56 183 213 
980 171 181 44 231 
981 23 122 149 129 
982 48 190 47 228 
983 144 5 69 223 
984 180 70 169 230 
985 153 157 123 220 
986 180 48 170 230 
987 171 76 183 231 
988 119 129 1 144 
989 76 171 44 231 
990 4 119 144 69 
991 113 99 89 227 
992 179 32 167 66 
993 64 94 95 232 
994 129 1 122 26 
995 41 178 166 111 
996 24 121 184 214 
997 144 124 5 223 
998 155 139 160 206 
999 88 75 13 219 
1000 30 91 70 180 
1001 78 71 43 181 
1002 71 76 44 231 
1003 92 25 26 222 
1004 116 87 101 218 
1005 52 163 175 227 
1006 131 132 147 225 
1007 132 126 147 225 
1008 123 17 16 82 
1009 74 121 24 214 
1010 130 19 18 80 
1011 172 184 121 214 
1012 124 145 146 211 
1013 163 36 37 99 
1014 168 55 54 216 
1015 137 140 134 217 
1016 3 56 173 213 
1017 62 106 108 224 
1018 86 11 12 125 
1019 173 183 46 72 
1020 35 164 34 101 
1021 128 15 14 65 
1022 114 75 88 219 
1023 107 70 91 230 
1024 62 8 9 127 
1025 180 169 48 230 
1026 38 57 39 165 
1027 96 172 182 27 
1028 124 144 142 223 
1029 76 45 183 72 
1030 154 123 133 209 
1031 31 30 70 169 
1032 167 32 33 66 
1033 96 61 28 182 
1034 169 30 70 180 
1035 144 5 4 69 
1036 166 40 41 111 
1037 43 42 78 168 
1038 181 43 78 168 
1039 183 44 76 171 
1040 156 8 7 90 
1041 75 12 13 152 
1042 21 22 64 126 
1043 10 11 60 151 
1044 88 13 14 150 
1045 71 105 76 231 
1046 170 29 61 182 
1047 146 7 6 68 
1048 9 10 85 148 
1049 18 17 154 59 
1050 19 20 63 131 
1051 153 16 15 81 
1052 121 2 24 184 
1053 184 2 24 120 
1054 161 150 152 219 
1055 45 183 44 76 
1056 172 3 184 214 
1057 20 21 84 147 
1058 179 31 32 79 
1059 95 105 64 232 
1060 29 28 61 182 
1061 184 120 173 46 
1062 94 22 23 149 
1063 27 121 172 184 
1064 42 178 41 67 
1065 141 161 162 229 
1066 1 4 119 144 
1067 6 5 124 77 
1068 33 34 177 116 
1069 40 98 176 39 
1070 36 174 35 58 
1071 45 46 183 72 
1072 175 38 113 37 
1073 182 28 96 27 
1074 120 184 2 46 
1075 27 2 121 184 
1076 30 29 91 180 
1077 122 23 1 129 
1078 43 71 44 181 
1079 221 230 200 196 
1080 200 230 221 49 
1081 224 145 196 211 
1082 224 196 145 155 
1083 208 196 145 211 
1084 208 145 196 155 
1085 230 179 49 200 
1086 230 49 179 169 
1087 215 139 138 206 
1088 215 138 139 136 
1089 220 135 209 195 
1090 220 209 135 157 
1091 221 215 210 199 
1092 221 210 215 194 
1093 226 56 186 213 
1094 226 186 56 192 
1095 140 201 143 159 
1096 143 201 140 217 
1097 232 72 117 95 
1098 232 117 72 213 
1099 221 230 228 48 
1100 228 230 221 196 
1101 218 51 194 203 
1102 218 194 51 50 
1103 219 86 115 75 
1104 219 115 86 204 
1105 62 148 224 127 
1106 224 148 62 85 
1107 228 189 186 199 
1108 228 186 189 190 
1109 226 191 53 210 
1110 226 53 191 187 
1111 211 97 104 77 
1112 211 104 97 205 
1113 208 217 138 215 
1114 208 138 217 137 
1115 136 138 217 215 
1116 136 217 138 137 
1117 175 57 227 113 
1118 175 227 57 165 
1119 58 164 35 101 
1120 58 35 164 174 
1121 227 57 100 113 
1122 227 100 57 207 
$EndElements
