$MeshFormat
4.1 0 8
$EndMeshFormat
$PhysicalNames
2
1 2 "boundary"
2 1 "domain"
$EndPhysicalNames
$Entities
12 10 1 0
1 0 0 0 0 
3 0 1 0 0 
4 -1 0 0 0 
5 0 -1 0 0 
6 2.5 0 0 0 
7 3.5 0 0 0 
8 2.5 1 0 0 
10 2.5 -1 0 0 
20 0.9921567416492215 0.125 0 0 
21 0.9921567416492215 -0.125 0 0 
90 1.507843258350778 0.125 0 0 
91 1.507843258350778 -0.125 0 0 
1 -1.110223024625157e-16 0.125 0 0.9921567416492215 1 0 1 2 2 20 -3 
2 -1 5.551115123125783e-17 0 0 1 0 1 2 2 3 -4 
3 -1 -1 0 -5.551115123125783e-17 0 0 1 2 2 4 -5 
4 0 -1 0 0.9921567416492215 -0.1249999999999999 0 1 2 2 5 -21 
5 2.5 0 0 3.5 1 0 1 2 2 7 -8 
6 1.507843258350778 0.1249999999999999 0 2.5 1 0 1 2 2 8 -90 
7 1.507843258350779 -1 0 2.5 -0.125 0 1 2 2 91 -10 
8 2.5 -1 0 3.5 -5.551115123125783e-17 0 1 2 2 10 -7 
9 0.9921567416492215 0.125 0 1.507843258350778 0.125 0 1 2 2 90 -20 
10 0.9921567416492215 -0.125 0 1.507843258350778 -0.125 0 1 2 2 91 -21 
21 -1 -1 0 3.5 1 0 1 1 10 1 2 3 4 -10 7 8 5 6 9 
$EndEntities
$Nodes
21 889 1 889
0 3 0 1
1
0 1 0
0 4 0 1
2
-1 0 0
0 5 0 1
3
0 -1 0
0 7 0 1
4
3.5 0 0
0 8 0 1
5
2.5 1 0
0 10 0 1
6
2.5 -1 0
0 20 0 1
7
0.9921567416492215 0.125 0
0 21 0 1
8
0.9921567416492215 -0.125 0
0 90 0 1
9
1.507843258350778 0.125 0
0 91 0 1
10
1.507843258350778 -0.125 0
1 1 0 14
11
12
13
14
15
16
17
18
19
20
21
22
23
24
0.9755267205922663 0.2198809164309136 0
0.9498448398572203 0.312721569765521 0
0.9153494002310263 0.4026604965683878 0
0.8723604830380378 0.4888631583926542 0
0.8212769801680257 0.5705296853329266 0
0.7625728925973655 0.6469022982457916 0
0.6967929324392901 0.7172723397027486 0
0.6245474684826904 0.7809868498328656 0
0.5465068626799872 0.8374546250655482 0
0.4633952491922078 0.8861517042956538 0
0.3759838163645023 0.9266262298424239 0
0.2850836500490945 0.9585026408282273 0
0.1915382080085639 0.9814851577445624 0
0.09621549317898634 0.9953605270816824 0
1 2 0 15
25
26
27
28
29
30
31
32
33
34
35
36
37
38
39
-0.09801714054917741 0.9951847266505666 0
-0.1950903225164606 0.9807852803037082 0
-0.2902846780160946 0.9569403355011702 0
-0.3826834334055608 0.9238795320803096 0
-0.4713967380423078 0.8819212636982238 0
-0.5555702344454901 0.8314696113497975 0
-0.6343932857451392 0.7730104520648386 0
-0.7071067828421301 0.7071067795309649 0
-0.7730104546359213 0.6343932826122658 0
-0.8314696132525781 0.5555702315977775 0
-0.8819212650474086 0.4713967355181603 0
-0.9238795329749556 0.382683431245694 0
-0.9569403359965215 0.2902846763831404 0
-0.9807852805220232 0.195090321418917 0
-0.995184726701196 0.09801714003512763 0
1 3 0 15
40
41
42
43
44
45
46
47
48
49
50
51
52
53
54
-0.9951847266505666 -0.09801714054917741 0
-0.9807852803037082 -0.1950903225164606 0
-0.9569403355011702 -0.2902846780160946 0
-0.9238795320803096 -0.3826834334055608 0
-0.8819212636982238 -0.4713967380423078 0
-0.8314696113497975 -0.5555702344454901 0
-0.7730104520648386 -0.6343932857451392 0
-0.7071067795309649 -0.7071067828421301 0
-0.6343932826122658 -0.7730104546359213 0
-0.5555702315977775 -0.8314696132525781 0
-0.4713967355181603 -0.8819212650474086 0
-0.382683431245694 -0.9238795329749556 0
-0.2902846763831404 -0.9569403359965215 0
-0.195090321418917 -0.9807852805220232 0
-0.09801714003512763 -0.995184726701196 0
1 4 0 14
55
56
57
58
59
60
61
62
63
64
65
66
67
68
0.09621549348683396 -0.9953605270519246 0
0.1915382086601997 -0.9814851576173945 0
0.285083651152843 -0.9585026404999436 0
0.3759838178682952 -0.9266262292322512 0
0.4633952510891343 -0.886151703303694 0
0.5465068648578844 -0.837454623644294 0
0.6245474709414355 -0.7809868478666313 0
0.6967929346700159 -0.7172723375357138 0
0.7625728942705058 -0.6469022962734821 0
0.8212769813942026 -0.5705296835678461 0
0.8723604838823982 -0.4888631568859206 0
0.9153494007210433 -0.4026604954544545 0
0.9498448400817198 -0.3127215690836376 0
0.9755267206677178 -0.219880916096164 0
1 5 0 15
69
70
71
72
73
74
75
76
77
78
79
80
81
82
83
3.495184726653192 0.09801714052251538 0
3.480785280318201 0.1950903224436016 0
3.456940335537249 0.2902846778971591 0
3.423879532090075 0.3826834333819855 0
3.381921263634594 0.4713967381613497 0
3.331469611293719 0.5555702345294179 0
3.273010452050879 0.6343932857621489 0
3.207106779496667 0.7071067828764279 0
3.134393282632434 0.7730104546193695 0
3.055570231367847 0.8314696134062125 0
2.971396735476022 0.8819212650699321 0
2.882683431143216 0.9238795330174033 0
2.790284676358209 0.9569403360040845 0
2.695090321402108 0.9807852805253666 0
2.598017140098434 0.9951847266949608 0
1 6 0 14
84
85
86
87
88
89
90
91
92
93
94
95
96
97
2.403784506835296 0.9953605270830629 0
2.308461791695199 0.9814851576867509 0
2.214916348991185 0.9585026405427813 0
2.124016182255946 0.9266262292826629 0
2.036604748982952 0.8861517033413902 0
1.953493135139992 0.837454623642908 0
1.875452529026392 0.7809868478409034 0
1.803207065313196 0.7172723375194048 0
1.737427105703376 0.6469022962426941 0
1.678723018622553 0.5705296835919655 0
1.627639516116438 0.4888631568838442 0
1.584650599260159 0.4026604954117234 0
1.550155159905084 0.3127215690435551 0
1.52447327933519 0.2198809161090629 0
1 7 0 14
98
99
100
101
102
103
104
105
106
107
108
109
110
111
1.524473279400833 -0.2198809164002981 0
1.550155160127733 -0.3127215697198175 0
1.584650599737498 -0.4026604964968346 0
1.627639516917008 -0.4888631583124355 0
1.678723019815024 -0.5705296853085274 0
1.737427107372048 -0.6469022982097358 0
1.803207067481761 -0.7172723396260532 0
1.875452531335603 -0.7809868496875563 0
1.953493137147203 -0.837454624952776 0
2.036604750490046 -0.8861517041294946 0
2.124016183453125 -0.926626229768425 0
2.214916349732456 -0.9585026407632548 0
2.3084617916694 -0.9814851576817165 0
2.403784506809539 -0.9953605270805732 0
1 8 0 15
112
113
114
115
116
117
118
119
120
121
122
123
124
125
126
2.59801714016214 -0.9951847266886864 0
2.695090321885238 -0.9807852804292662 0
2.790284677272919 -0.9569403357266101 0
2.882683432963374 -0.9238795322634692 0
2.971396737339177 -0.8819212640740548 0
3.055570233936354 -0.8314696116899911 0
3.134393285343533 -0.7730104523944288 0
3.207106782413154 -0.7071067799599406 0
3.273010454309823 -0.6343932830096178 0
3.331469612991226 -0.5555702319889192 0
3.381921264881096 -0.4713967358293096 0
3.423879532926042 -0.3826834313637822 0
3.456940335979001 -0.2902846764408966 0
3.480785280515032 -0.1950903214540629 0
3.495184726699463 -0.09801714005272212 0
1 9 0 5
127
128
129
130
131
1.421895505567475 0.125 0
1.335947752784041 0.125 0
1.250000000000694 0.125 0
1.164052247216913 0.125 0
1.078104494433031 0.125 0
1 10 0 5
132
133
134
135
136
1.421895505567475 -0.125 0
1.335947752784041 -0.125 0
1.250000000000694 -0.125 0
1.164052247216913 -0.125 0
1.078104494433031 -0.125 0
2 21 0 753
137
138
139
140
141
142
143
144
145
146
147
148
149
150
151
152
153
154
155
156
157
158
159
160
161
162
163
164
165
166
167
168
169
170
171
172
173
174
175
176
177
178
179
180
181
182
183
184
185
186
187
188
189
190
191
192
193
194
195
196
197
198
199
200
201
202
203
204
205
206
207
208
209
210
211
212
213
214
215
216
217
218
219
220
221
222
223
224
225
226
227
228
229
230
231
232
233
234
235
236
237
238
239
240
241
242
243
244
245
246
247
248
249
250
251
252
253
254
255
256
257
258
259
260
261
262
263
264
265
266
267
268
269
270
271
272
273
274
275
276
277
278
279
280
281
282
283
284
285
286
287
288
289
290
291
292
293
294
295
296
297
298
299
300
301
302
303
304
305
306
307
308
309
310
311
312
313
314
315
316
317
318
319
320
321
322
323
324
325
326
327
328
329
330
331
332
333
334
335
336
337
338
339
340
341
342
343
344
345
346
347
348
349
350
351
352
353
354
355
356
357
358
359
360
361
362
363
364
365
366
367
368
369
370
371
372
373
374
375
376
377
378
379
380
381
382
383
384
385
386
387
388
389
390
391
392
393
394
395
396
397
398
399
400
401
402
403
404
405
406
407
408
409
410
411
412
413
414
415
416
417
418
419
420
421
422
423
424
425
426
427
428
429
430
431
432
433
434
435
436
437
438
439
440
441
442
443
444
445
446
447
448
449
450
451
452
453
454
455
456
457
458
459
460
461
462
463
464
465
466
467
468
469
470
471
472
473
474
475
476
477
478
479
480
481
482
483
484
485
486
487
488
489
490
491
492
493
494
495
496
497
498
499
500
501
502
503
504
505
506
507
508
509
510
511
512
513
514
515
516
517
518
519
520
521
522
523
524
525
526
527
528
529
530
531
532
533
534
535
536
537
538
539
540
541
542
543
544
545
546
547
548
549
550
551
552
553
554
555
556
557
558
559
560
561
562
563
564
565
566
567
568
569
570
571
572
573
574
575
576
577
578
579
580
581
582
583
584
585
586
587
588
589
590
591
592
593
594
595
596
597
598
599
600
601
602
603
604
605
606
607
608
609
610
611
612
613
614
615
616
617
618
619
620
621
622
623
624
625
626
627
628
629
630
631
632
633
634
635
636
637
638
639
640
641
642
643
644
645
646
647
648
649
650
651
652
653
654
655
656
657
658
659
660
661
662
663
664
665
666
667
668
669
670
671
672
673
674
675
676
677
678
679
680
681
682
683
684
685
686
687
688
689
690
691
692
693
694
695
696
697
698
699
700
701
702
703
704
705
706
707
708
709
710
711
712
713
714
715
716
717
718
719
720
721
722
723
724
725
726
727
728
729
730
731
732
733
734
735
736
737
738
739
740
741
742
743
744
745
746
747
748
749
750
751
752
753
754
755
756
757
758
759
760
761
762
763
764
765
766
767
768
769
770
771
772
773
774
775
776
777
778
779
780
781
782
783
784
785
786
787
788
789
790
791
792
793
794
795
796
797
798
799
800
801
802
803
804
805
806
807
808
809
810
811
812
813
814
815
816
817
818
819
820
821
822
823
824
825
826
827
828
829
830
831
832
833
834
835
836
837
838
839
840
841
842
843
844
845
846
847
848
849
850
851
852
853
854
855
856
857
858
859
860
861
862
863
864
865
866
867
868
869
870
871
872
873
874
875
876
877
878
879
880
881
882
883
884
885
886
887
888
889
1.595410410327078 0.1593729348158186 0
0.9045910094612238 -0.1593728355497521 0
-0.9124982770973032 0.1260047098125451 0
3.41251119771221 -0.1259872633797446 0
0.222230670398519 0.9074440848048249 0
2.27777691818425 -0.9074435402156955 0
-0.04381766075444287 -0.9138747696620376 0
2.543815780751193 0.9138856125738655 0
-0.4733036883543818 0.7918010027895083 0
2.973322692285593 -0.7917955780908725 0
0.7760934446339096 0.4854568106630647 0
1.723906555378383 -0.4854568105896914 0
-0.6861514782977528 -0.6118644930382279 0
3.186148299434535 0.6118755976206197 0
0.601085053370367 -0.699435640975838 0
1.89891312661148 0.699440357525266 0
0.5355799228137716 0.7575053265005458 0
1.964430506389931 -0.7574981743186873 0
-0.1340834452006071 0.9039171618982803 0
2.634083444775485 -0.9039171622474387 0
0.3009627190414366 -0.8632307475584995 0
2.199035097808267 0.8632383363989473 0
-0.7396600136318955 0.5496434203788185 0
3.239668058308111 -0.5496378347449129 0
-0.8843589957992164 -0.225491413480117 0
3.384359804603182 0.2255073904815644 0
-0.3824227536287522 -0.8422917919260657 0
2.882416012378157 0.8422987157210928 0
0.9046389736859758 0.1593295267698333 0
1.5953617123637 -0.1593296425291938 0
0.8156294574168881 -0.4026032067313269 0
1.684371095930281 0.4026039268021959 0
0.6687406689998844 0.6251202024629212 0
1.831259330891256 -0.6251202024660927 0
2.115362434308876 -0.8306884455775474 0
0.8563584550314944 0.3291503304691407 0
1.643645946539908 -0.3291509917205089 0
0.04643571927451462 0.9330593585263438 0
0.3846375654487298 0.8306884456590489 0
2.453574871087211 -0.9330571681445966 0
0.7195459644442466 -0.5657512648923591 0
1.780453658951253 0.5657538556975763 0
0.4701069894990823 -0.7882753179946853 0
0.1205148561975886 -0.9176465287662932 0
2.379484215115864 0.9176535793414848 0
2.029891648583333 0.7882791385373147 0
-0.3011303468897494 0.8769334464185597 0
2.80114056638208 -0.8769342235445575 0
-0.8260724238692109 0.3907031574633844 0
-0.6136757798595516 0.6770868803157476 0
3.326072423680673 -0.3907031576171366 0
3.11367577947812 -0.6770868806611297 0
-0.9204204314904705 -0.03193699313821681 0
3.420429791644212 0.03195545907007544 0
-0.2222519086850583 -0.8876329182585019 0
3.043438047097844 0.7349444261532041 0
2.722247411032696 0.8876424626858307 0
-0.8292791451441983 -0.3964991427133306 0
3.32927935301779 0.396520794219142 0
-0.5434390153653736 -0.7349400582906461 0
0.9203975870380794 -0.06886590019119394 0
0.831328515151078 -0.09897582570522696 0
1.574513214826866 0.07142115353068787 0
1.668591543671675 0.1008148341342198 0
0.8175479937476838 -0.1957568779841984 0
0.7420514582456001 -0.1364365776015394 0
0.755933230558622 -0.0408558521610356 0
0.6662483063596163 -0.07584737691338284 0
0.6527863382749854 -0.1732909840865203 0
0.576765896127529 -0.1125521180192127 0
0.5906057914592872 -0.01517596927562939 0
0.5007821244740936 -0.05178781200079829 0
0.4870624141317458 -0.148529928660196 0
0.4109096921561229 -0.08766840539251848 0
0.424737460652636 0.008608557516401046 0
0.3348074152046555 -0.02713209610705188 0
0.3210077462643443 -0.1235236165066929 0
0.2449356144281434 -0.06309215091561741 0
0.2589164010987313 0.03371993154681548 0
0.169020238220861 -0.002908010830716398 0
0.1548428214620702 -0.09881064793818989 0
0.07879733835243473 -0.03863614451876504 0
0.09300513149626002 0.05814419622614157 0
0.002709614155118199 0.02196640381274572 0
-0.01150506596906265 -0.07438773477520788 0
-0.08768211289957065 -0.01395062105569944 0
-0.07345083719390158 0.08225393845280182 0
-0.1019125394107681 -0.1101840523587065 0
-0.1638858961960393 0.04645181505774077 0
-0.1496705391155463 0.1426776498365375 0
-0.2402073785609291 0.1069058590934232 0
-0.2259122306638433 0.2032732472126533 0
-0.135287211872846 0.2390689388652366 0
-0.3165490126335417 0.1674859649323796 0
-0.3308354980930718 0.07102796154732362 0
-0.2115736326255985 0.2996214437246978 0
-0.1210546413544279 0.335498698609282 0
-0.4072489974286584 0.131645805816237 0
-0.4214312402083434 0.035249261136479 0
-0.1972695869525535 0.3959483710753071 0
-0.1067332787719433 0.4316604335512421 0
-0.0306202042987348 0.3712969377479741 0
-0.01629686176215145 0.4673023521935873 0
0.05972105748011494 0.406963499445149 0
0.07400568150061623 0.5028608581175942 0
0.1499117512521607 0.4426055735970886 0
-0.02567666198143696 -0.1706344273652232 0
-0.1161300028235726 -0.2064511765196721 0
-0.03983416401968357 -0.2669049126425005 0
-0.1303541897000088 -0.3027568310686823 0
-0.05401155879377412 -0.3632384345234235 0
-0.1445880022055928 -0.3991189470387698 0
-0.220990834890624 -0.3385806528210284 0
-0.06820720899295696 -0.4596165567831997 0
0.02233006395402063 -0.4237513045748679 0
-0.2352319752357148 -0.4350889706739199 0
-0.3117503157734884 -0.3744472583199097 0
-0.392944273810757 0.2281567583333469 0
-0.4837271654139444 0.1922944337044299 0
0.00817485850317244 -0.5200626120206229 0
0.09865497043868067 -0.4842155632550861 0
-0.1829441833774329 0.492213680138136 0
-0.2735337340688796 0.4565335026758084 0
-0.4693752195125231 0.288811271670301 0
0.1641768917716375 0.538388734984948 0
0.2400137618628047 0.4781412284224527 0
-0.001887744412874719 0.5632848832324233 0
-0.08236004270176811 -0.55600884398487 0
0.2257998049138524 0.3823884265059455 0
0.3158313022659278 0.4179363949793075 0
-0.3259804508528821 -0.4711105014661223 0
-0.4025759572352519 -0.4104171572568953 0
-0.3882934692027407 -0.3137336749670514 0
-0.4791787148056106 -0.3497042213546496 0
0.08450846172542993 -0.580452727206098 0
0.1749120533659273 -0.5446132220180939 0
0.189037269612744 -0.4484717130099421 0
0.2651515047608797 -0.5087939240965318 0
0.3016230062223496 0.3222342283173428 0
0.3915994061382581 0.3578234070323196 0
0.4058028781592631 0.453445615238195 0
0.4815198712609975 0.3933725688662066 0
0.4673375260603173 0.2977667852199695 0
0.2793167660024654 -0.4128011192889212 0
0.3553243575353082 -0.4730590811317718 0
-0.2592016480961266 0.5529280309139267 0
-0.3499223541564137 0.5171567844237851 0
-0.1923713202585881 -0.14592157826126 0
-0.4648128274710513 -0.2531488168372886 0
-0.5557891163699011 -0.2889606986051061 0
-0.5414410501298643 -0.1924195365678732 0
-0.5602485817794636 0.2529909585732801 0
-0.5745795218496774 0.1563273780282147 0
0.5571951251381799 0.3332991408108442 0
0.2542911938669041 0.5738154729247243 0
-0.5458470120973774 0.3494647054979773 0
0.1785003243445388 0.6340703059225127 0
-0.6511967649233585 0.2170656916660486 0
-0.6655114591061727 0.1203042172764967 0
0.160751680070153 -0.6408042974503085 0
0.07035162822748156 -0.676666107107419 0
0.5430541588489346 0.2377506187546493 0
0.3694605766927737 -0.3771588467437326 0
0.4453750202945447 -0.4373440422120043 0
0.211613943398391 0.2866308806066498 0
0.2031302960368673 -0.3521777121701772 0
-0.4168597437140032 -0.5071216139799057 0
-0.3401807865249638 -0.5678492975313245 0
0.3411984365839241 -0.5691494382215492 0
-0.5701050466484755 -0.3857270870494961 0
-0.6324562171069777 -0.2282299005754977 0
-0.6181408864524528 -0.1313976578648202 0
0.6328585484586036 0.2732717209672642 0
1.682454759359602 0.1957604424865863 0
1.757940695460017 0.1367462957820508 0
1.744075615937689 0.04085686614506324 0
1.833759264117725 0.07590354672162911 0
1.847218812736413 0.173355977553423 0
1.923243783524407 0.1125782069744918 0
1.909407760357635 0.01519490488480383 0
1.999230888073939 0.05180084345266861 0
2.013118910580636 0.1481353611037486 0
2.089129077228105 0.08762193701391947 0
2.075282544416226 -0.008605573976678178 0
2.165213464212341 0.02713608791938849 0
2.179007820961479 0.1235357308551389 0
2.255081569771979 0.06310848411542461 0
2.241103958062916 -0.03370470525981743 0
2.330998627443201 0.002929019751082789 0
2.345172938833822 0.09883321187810011 0
2.421221254919598 0.03866056499085915 0
2.407016991182307 -0.05812081510301566 0
2.497311851303621 -0.02193967728974259 0
2.511523326498057 0.07441555391847679 0
2.587703076933291 0.01398055774771612 0
2.573474818016818 -0.08222492107992468 0
2.601930318161786 0.1102152216013337 0
2.663909537566649 -0.04641980009207662 0
2.64969710298119 -0.1426464275700812 0
2.740233583223579 -0.1068716282138106 0
2.725941663142982 -0.2032401477564901 0
2.635317341556092 -0.2390393231254915 0
2.816577834708379 -0.1674495465913702 0
2.830861097327595 -0.07099046988636995 0
2.711606354871608 -0.2995895323832444 0
2.621088068981813 -0.3354701680754011 0
2.907277135983273 -0.131606059046077 0
2.921456237054726 -0.03520839115752204 0
2.697305558942916 -0.3959175375000529 0
2.606769985286597 -0.4316329775707153 0
2.530654344129168 -0.3712717787909142 0
2.516334283594873 -0.4672782857406311 0
2.440313779352394 -0.4069417126743585 0
2.426032411435433 -0.5028401470994041 0
2.350123778879212 -0.4425871744828848 0
2.525691827356713 0.1706634414486223 0
2.616144613580441 0.2064835085895791 0
2.539846248996294 0.2669350697298171 0
2.630365630343331 0.3027902485778563 0
2.554020529196515 0.3632696397740503 0
2.644596259244802 0.3991533792514718 0
2.72100151690712 0.3386173552050933 0
2.568213044840513 0.4596487559725581 0
2.477676464888638 0.4237802920103496 0
2.735239482234646 0.4351265550912232 0
2.811760123084039 0.3744872037275938 0
2.89297566026988 -0.2281180498833216 0
2.983757786109791 -0.1922523957072301 0
2.491828543878055 0.5200926057842891 0
2.401349115085162 0.4842423465605827 0
2.682983426664396 -0.4921838865484872 0
2.773572215501337 -0.4565003224669919 0
2.969409117775351 -0.2887702427399013 0
2.335861888403944 -0.5383713517588362 0
2.260022457491604 -0.4781262468739012 0
2.501928444011351 -0.5632618503383162 0
2.582362790661698 0.5560419985241026 0
2.274233112526924 -0.3823723360877396 0
2.184202250652074 -0.4179237789957438 0
2.825987097994568 0.4711511946183956 0
2.902584837846817 0.4104602770745327 0
2.888305597771144 0.3137760175555818 0
2.979189895924636 0.3497497725570953 0
2.415492499777401 0.5804805311725713 0
2.325089587207391 0.5446378229095444 0
2.310967458006809 0.4484952252536413 0
2.234850701573476 0.508815329264634 0
2.198407212460121 -0.3222203650186771 0
2.108431396970669 -0.357813054380112 0
2.094231277775306 -0.4534365347162151 0
2.018511511601011 -0.3933657764724735 0
2.032690471660076 -0.2977586182200261 0
2.220688515632716 0.4128213091084639 0
2.14467829803254 0.4730772812203972 0
2.759243407185959 -0.5528958189875246 0
2.849963249223376 -0.5171212406874912 0
2.692388541992784 0.1459561374602033 0
2.964827320751769 0.2531934688511079 0
3.055802641215819 0.28900870036786 0
3.041457894485543 0.1924666267018458 0
3.060281643002013 -0.2529465858710249 0
3.074609319574003 -0.1562820878173657 0
1.942833310506175 -0.3332945957724338 0
2.245748265934995 -0.5738015480101017 0
3.045883295313966 -0.3494213299169249 0
2.321541674102972 -0.6340538349210427 0
3.151228935725419 -0.2170180351298716 0
3.165540373816205 -0.120255719023892 0
2.339246865654911 0.6408299097273132 0
2.429646194391368 0.6766948953767967 0
1.956970949648958 -0.237744564837655 0
2.130545128224942 0.3771756735838022 0
2.054627941977696 0.4373589809602255 0
2.288415698106966 -0.2866135445901729 0
2.296877434258887 0.3522001890167881 0
2.916865361508796 0.5071654391931212 0
2.840184263434753 0.56789063247993 0
2.158801304550543 0.5691688065482396 0
3.070115290213516 0.385775870154733 0
3.132472061725406 0.2282803104646529 0
3.118159997781299 0.1314473032879511 0
1.867166884640986 -0.2732693344495199 0
2.004354168633991 -0.4889339672524496 0
0.4956805911186558 0.4889394843500688 0
-0.3355839419774557 0.6136293394273402 0
-0.2447845652283527 0.6494004525556152 0
2.835628105152878 -0.6135946920292414 0
2.744829657203296 -0.6493691221207871 0
-0.4264042438627983 0.5777930247801256 0
2.926447469598737 -0.5777551107283337 0
0.6187264763598644 0.1777577762924595 0
1.881295636190599 -0.1777537541437381 0
0.4530915599253598 0.2017070334551137 0
2.046932429354054 -0.2016974746229266 0
0.459484909732497 -0.3415274378800852 0
0.5353267538725056 -0.4016652379182429 0
0.5212477698912343 -0.4973720787287796 0
2.040694433035522 0.34112477819674 0
1.964662508550593 0.4016157115078786 0
1.978751283166406 0.497413402563524 0
1.782295444503785 -0.2093797272365189 0
0.7177216035205124 0.2093802988797753 0
1.481334737684016 0.04678609923650374 0
1.294395839649632 0.05541308999282081 0
1.136099098830653 -0.05718338822030921 0
2.079994522868876 -0.5489952278156834 0
0.4200429589888262 0.5490031095398824 0
2.449404311997019 0.231065509160042 0
0.05060833886546078 -0.2310385887067375 0
0.2874600110941462 0.2264613414662451 0
2.212566901203429 -0.2264462114166772 0
0.04530865694902012 0.3110441101668135 0
2.454723033407901 -0.3110210402902269 0
-0.3739309445947311 -0.217190330137955 0
2.873946349392342 0.2172317603964682 0
2.845027086633032 0.02528566166990486 0
-0.3450046816476142 -0.02524697112595503 0
3.088832058561305 -0.05993882945517909 0
-0.5888055239690709 0.05998527772750313 0
3.179875338562205 -0.02382576515879617 0
-0.6798498299673728 0.02387535990413966 0
2.231545944960551 -0.6694694975121243 0
0.2684968994321529 0.6694825893403131 0
-0.707673420952569 -0.1678495782024583 0
3.207689403180901 0.1679025548568708 0
1.853389062432318 -0.3683440122517204 0
0.646639224780983 0.3683442295586269 0
0.1457793553041627 -0.7348433508143813 0
0.2367835579869364 -0.7007423262978347 0
2.354217140294917 0.7348674547614876 0
2.263212791427945 0.7007653190085278 0
0.05516788330647378 -0.7703991983549197 0
-0.02019127170289108 -0.712185561609723 0
2.444828817042787 0.7704240842214123 0
2.52018885361063 0.7122167350932843 0
-0.7397952099345078 0.1807541332172953 0
3.239823130296373 -0.1807028102121276 0
0.6920065538744244 0.1128751248723709 0
1.808009772055505 -0.1128734953427234 0
-0.4310621508861102 -0.6038122774739337 0
-0.5069870433126774 -0.5421369729398098 0
-0.3526827044423488 -0.6624775189181503 0
-0.2632258219596995 -0.6281877519152799 0
2.931061798056046 0.6038532742962293 0
3.006986969749429 0.5421780596677673 0
2.85268037104216 0.6625160320054336 0
2.763226677128186 0.6282260725271425 0
0.3834493666780735 -0.2809553112549489 0
2.11645829990795 0.2811468990854843 0
0.5494186608859029 -0.3059406315457179 0
0.6251982979907496 -0.3659642671776556 0
1.950787489701143 0.3054546633574848 0
1.874804843516278 0.3659724896057475 0
0.1974053438859001 0.1908347671612243 0
2.302621045566995 -0.1908161045369066 0
2.309147197440899 -0.7272909829473871 0
2.397569353896427 -0.693849642446652 0
0.1908962977855883 0.7273045744488124 0
0.1024747796210735 0.6938681535115647 0
-0.2752897159105426 -0.7223845874543497 0
2.77528180198226 0.7224162675736406 0
2.878576465817696 -0.324525426726701 0
-0.3785418168837244 0.3245630669074329 0
2.940739524659444 -0.4812665208754841 0
3.016358257106908 -0.5402308358560576 0
-0.4406994902582113 0.4813053317138665 0
-0.5163148177146207 0.5402695410033654 0
2.93583203647931 0.06073677846945744 0
-0.4358105325623258 -0.0606944445852865 0
2.686447818466362 0.6883283004145657 0
-0.1864498422496891 -0.6882928861747115 0
1.99122784298513 -0.5835646192300876 0
2.069191741933258 -0.6441378241885649 0
0.5088090867603092 0.5835692373441533 0
0.4308434702781386 0.6441475927717104 0
-0.7214957627709536 -0.2639523397588853 0
3.221501528508516 0.2640023298679285 0
1.368193925042317 -0.05870359913877495 0
1.01553373338614 0.04774462435216805 0
2.820527001666009 -0.7083411744887476 0
2.728125509725447 -0.7424000620831128 0
2.653755633429018 -0.6844800409044656 0
-0.3204790548621588 0.7083735999048661 0
-0.2280842269886042 0.7424205584393335 0
-0.153710843773361 0.6845063045437448 0
3.225352661591097 -0.2748262500348013 0
-0.7253247582435149 0.2748676119623162 0
1.90019484323593 -0.5353658661414794 0
0.5998283650919046 0.535370766995502 0
-0.807819289216104 0.2433102432962566 0
3.307834225552334 -0.2432839634524359 0
0.1165089862637524 0.7892600823495026 0
0.02792945143423575 0.7520133665751342 0
2.383531422429655 -0.7892469782725058 0
2.472116948600488 -0.7519946936604295 0
0.922239046480296 0.07335429978122471 0
1.579591338236306 -0.07127153752809468 0
1.663143062440184 -0.1031408727600031 0
0.8371666858798579 0.1034873390740945 0
2.640057773489547 -0.7856566820762021 0
-0.1400265968570946 0.785669863428899 0
2.216075673601215 -0.7692305174936737 0
0.2839524001357306 0.7692370571257295 0
-0.5122784646424808 0.6446095008421189 0
3.012312940992302 -0.6445871468448884 0
1.684499773221735 -0.1880885552181853 0
0.8155426846877416 0.1881291671020574 0
1.646267210665878 -0.001017800862284416 0
0.8533046353721589 0.001991998133102105 0
-0.03392102831549135 -0.8100860870035085 0
2.53391650663631 0.8101132298309774 0
0.2229199236728692 -0.7971868359056902 0
0.3129152480289609 -0.7642402966933518 0
2.27707314318668 0.7972111829074194 0
2.187081878551197 0.7642543744026586 0
-0.4469322048475989 -0.6967650007532932 0
2.946926460119811 0.6967876878932739 0
-0.2010044126330652 -0.7862193595629801 0
2.700999433849619 0.7862527178251291 0
1.496900150087555 -0.04728678613308394 0
1.002579414562873 -0.04672106458152946 0
0.6042578871400155 0.08078313167951201 0
1.895759796107335 -0.0807752006912745 0
0.6391706932583936 -0.2701245628304279 0
0.7211975701242058 -0.3336736490211523 0
0.7057714928912715 -0.4254534911811526 0
0.8092185321999442 -0.2918735448306652 0
1.860868095307837 0.2700580867725764 0
1.778810952864555 0.3336654564446795 0
1.794230580160737 0.4254559584290878 0
1.690784672513163 0.2918732192824453 0
1.821163529475721 -0.01791452587179972 0
0.6788492671160148 0.01792805715958553 0
0.2732202817768331 0.1305319803740757 0
2.22680318451007 -0.1305157014799709 0
0.5149972085548715 0.04471725280337883 0
0.4388891061703454 0.105559997322753 0
1.985019260602793 -0.0447058789153392 0
2.061131738339538 -0.1055503372946619 0
2.14179660182162 -0.7050594785319504 0
0.3582475576159173 0.7050693101335044 0
0.183136687397368 0.09426043541111735 0
0.1071387676529971 0.1547583815789761 0
2.316886179163153 -0.09424098327352255 0
2.392887009986786 -0.1547361742818869 0
0.01673968516312183 0.1183135036456537 0
2.483285015067354 -0.118287552221762 0
0.326762451448566 -0.6648139732505688 0
2.173235619123466 0.6648315930695134 0
2.469150329941567 -0.2147322432694999 0
0.03087794616135798 0.2147569435677987 0
1.769679664706931 0.2335765797202936 0
0.7303287643084687 -0.2335260327257506 0
2.156367093346574 -0.609166600281672 0
0.343672258990338 0.6091775817192044 0
0.2509266140360644 -0.6048195302224811 0
0.4168309496618477 -0.628473982030085 0
0.4311915959782741 -0.5331713666975614 0
0.5051437324477224 -0.588317519678407 0
0.6074918225394095 -0.5538850873567225 0
0.5016819185858749 -0.6861502468614366 0
0.6117068396811234 -0.4594942284437636 0
2.249072811589621 0.6048414634212953 0
2.083167230100883 0.6284895072437902 0
2.068808439773278 0.5331920275212734 0
1.994854439640881 0.5883359491755719 0
1.892507126055451 0.5538967841871189 0
1.998316068234381 0.6861594203377029 0
1.888292602896012 0.4595007568891625 0
-0.1684544081755867 0.5885454294526526 0
-0.07787764777262771 0.6238916228528564 0
2.668496828145516 -0.5885168471619158 0
2.577920684330135 -0.6238665385435309 0
0.03646585610901858 -0.3273833729996385 0
0.1268577787285601 -0.2915458807548608 0
0.1408274967161024 -0.1951189787672051 0
0.2171578967379831 -0.2554786044714161 0
2.463543744035161 0.327411353773754 0
2.373152373788667 0.2915706306999948 0
2.359185444940339 0.1951427046468888 0
2.282852664536524 0.2555002986569525 0
0.7226167876636957 0.3087887798240025 0
1.777408978572241 -0.3087901004146826 0
0.5736705843074564 0.4305988869919529 0
0.6671146106802227 0.4624387352057664 0
1.926359150878598 -0.4305953332483049 0
1.832911246672627 -0.4624381942054343 0
0.3630499094991722 0.1660407234095636 0
2.136973615523241 -0.1660280892693254 0
-0.2974536241620286 -0.277826041298009 0
2.797466667319361 0.2778651424480508 0
1.936915301320321 0.2092516145005122 0
2.027133923400156 0.2440230905572584 0
0.4732910880867799 -0.2450830654691321 0
0.563082515127556 -0.2092535484352011 0
2.59239293677837 -0.5277763093408535 0
-0.0923529886996011 0.5278026548677902 0
0.1127460391466485 -0.3879242577940954 0
2.387261098343887 0.3879500062191851 0
1.209529578276332 -0.05571361031455732 0
1.164052247216847 0.02386587461780197 0
1.291994799074951 -0.0578780054173594 0
1.383711819647681 0.05716253055533599 0
-0.2493442858191989 -0.5317405387766021 0
2.749348702570883 0.5317787560795595 0
0.293436391259926 -0.3167108360050711 0
0.3074397862813533 -0.2204488161191771 0
2.20660744969128 0.3166643910825084 0
2.192564565533581 0.2204792265359363 0
0.3773802184275036 0.2620882485624113 0
2.122647130883169 -0.2620765961751739 0
2.170094311344905 -0.5135749894488861 0
0.3299423923556773 0.5135865671372943 0
0.5288360661665651 0.1413793017179777 0
1.971184968373879 -0.1413712017509325 0
0.1356604868757658 0.3467778181728602 0
2.364371788627457 -0.3467582345748186 0
2.754399141108614 -0.0106103831615476 0
-0.2543760487680612 0.01064578750104148 0
2.802247285238962 -0.2638369780975057 0
-0.3022151796377748 0.2638722299496358 0
0.08833435969815812 0.5985535990177462 0
2.411706872570536 -0.598533899911918 0
3.25375332984749 -0.08388873286424932 0
3.265802336230849 0.01257418493756902 0
3.348339980710741 -0.04309977550305311 0
-0.7537292504080427 0.08394097726710861 0
-0.7657799850755006 -0.01252094624248879 0
-0.8483245219098401 0.04313603875399909 0
2.435366517424258 0.1347968310071648 0
0.06464904457426141 -0.1347710870118881 0
-0.4933600281975381 -0.4462530271863832 0
2.993367160444686 0.4462983579847158 0
2.102902099601984 0.184157040858581 0
2.911325658260127 -0.6709625967971657 0
-0.4112787265968906 0.6709943548540616 0
2.997942884689789 -0.09586573563694603 0
-0.4979154253564709 0.0959089039096816 0
3.136432757979096 -0.3131796791630067 0
3.121624724943548 -0.4085483323380009 0
-0.6363984142645147 0.3132249864937552 0
-0.6215853750285857 0.4085915633602915 0
3.146024479883376 0.3250430200771215 0
3.16031422247483 0.4216517048724298 0
-0.6460160776070339 -0.3249920356794661 0
-0.6603129164654257 -0.4216032796470491 0
0.3971933489330699 -0.1843681905671109 0
2.268977500762954 0.1594332761147402 0
0.2310352269816661 -0.1594121357863831 0
2.678096554107601 0.04977837975176475 0
-0.1780760657793772 -0.04974507958447279 0
-0.2830581301697678 -0.1815805838656873 0
2.783074521637781 0.181618579797634 0
2.706740248630136 0.2422218286797361 0
-0.2067263503340983 -0.2421861439723898 0
2.658799867334718 0.4955261463077842 0
-0.1587947700280108 -0.4954907342594482 0
-0.5270905271523487 -0.09584382520595666 0
3.0271107850091 0.09589008528396509 0
2.787897842579034 -0.3602047371337507 0
-0.2878625536022772 0.360238975024535 0
0.121334190820572 0.250800483542387 0
2.378694817606279 -0.2507795569239186 0
2.505880408891933 0.6163467184550404 0
-0.005880139385422499 -0.6163157232963593 0
3.08325624828968 0.4811589078032146 0
-0.5832563476477383 -0.4811172151724856 0
2.672752671102578 0.5920158473845127 0
-0.1727508288255146 -0.5919800307960533 0
2.563318609723631 -0.720237647937502 0
2.551127006461936 -0.8195627162205846 0
-0.06327532595907952 0.720259064696196 0
-0.05109803779864989 0.8195734199783181 0
0.0126163121014809 0.6586451149809867 0
2.487426818855428 -0.658624045473058 0
3.226962439531595 -0.377945920990356 0
-0.7269413023095449 0.3779694764660895 0
2.151084750844055 -0.06954471989351087 0
0.3489367624003955 0.06955484901042613 0
-0.05931329522367566 0.1784163350533715 0
2.559339949494568 -0.1783877051890756 0
2.864272483335309 -0.4207630891079062 0
-0.3642347127617654 0.4207996297011093 0
2.050146971305099 -0.7362946420192094 0
-0.04498320962621016 0.275354057205949 0
2.54501403568297 -0.2753277210362762 0
0.4498755581038919 0.7363013602968571 0
0.04513628741900625 -0.8624572469566206 0
-0.1248099323605367 -0.8458745707995017 0
2.454861634380258 0.8624728186878695 0
2.624806874175481 0.8458946551728009 0
2.954990446152864 -0.3850429853531778 0
-0.454953376208315 0.38508290257335 0
2.768713387334336 0.08556197581518966 0
-0.2686936440412042 -0.08552531464543862 0
2.596318448213395 0.6522110575662894 0
-0.09631859585409297 -0.6521768783204513 0
3.031093953171625 -0.4450518185858877 0
-0.5310542147973438 0.4450931951398643 0
-0.2217809174927281 0.8349103525689642 0
2.721804288531842 -0.8349031368029374 0
-0.5216720309796857 -0.6393940786357398 0
2.859380632028245 0.1213134806037428 0
-0.3593617509109438 -0.1212734379861966 0
3.021656977289832 0.6394209911179284 0
2.950273820131652 0.157102792344619 0
-0.4502558862697561 -0.1570593751433478 0
2.610446322491966 0.7491694493171744 0
-0.1104491805192944 -0.7491392239118126 0
3.012074897502621 0.0001838758088160484 0
-0.5120506158650402 -0.0001393210928805617 0
3.102870067295794 -0.4999905062828265 0
-0.6028332207934872 0.5000214032751946 0
3.103292112708129 0.03601077968452296 0
-0.6032693984941173 -0.03596288721519637 0
3.192944718374412 0.07186643626252985 0
-0.6929233583266151 -0.0718150616158276 0
-0.6707260973520747 -0.5168673487265429 0
-0.7430430901787669 -0.4565759316610046 0
3.170724919383757 0.5169001765125956 0
3.243044553040122 0.4566038067877756 0
-0.7352194908208147 -0.3608738442391508 0
3.2352174044306 0.360923838786908 0
3.280347093088846 0.1077620599341567 0
-0.7803266401988489 -0.1077066889393054 0
-0.2928616133081904 -0.8125549280275083 0
2.792855080981395 0.8125730595922934 0
1.765383141557927 -0.4015829443432185 0
0.7346427576464649 0.4015761632078208 0
0.4017975254243034 -0.7225466738750327 0
2.098201014425996 0.7225561637833837 0
-0.7948627178478498 -0.2042087109808562 0
-0.8084750210553724 -0.2946517282190363 0
3.294864548842147 0.2042668788899808 0
3.308476169859983 0.2946843802001546 0
1.793900736340879 -0.5427457752696817 0
0.7061099532435583 0.5427539919089441 0
-0.5980727130188269 -0.579175186158233 0
3.098069449100179 0.5792007901985039 0
-0.04531944535179346 0.9224985005638614 0
2.545319445176123 -0.9224985006483105 0
-0.3861184217395713 0.8351909174357905 0
2.886141885143797 -0.8351839129042947 0
-0.5445765532014083 0.737890614400706 0
3.04603880643893 -0.7388067545751174 0
0.6041248809852818 0.6933188864376654 0
1.895885425064643 -0.6933159925263932 0
0.82319920271883 0.4092770636715147 0
1.676807856995233 -0.4092787658337174 0
0.3057651295861363 0.8719332030575973 0
0.1309695947446621 0.8929479990470794 0
2.369051760007043 -0.8929437827861043 0
2.194234870212442 -0.8719332030390162 0
0.7687680628486323 -0.4919561393403581 0
0.6598376179919171 -0.6345428913344368 0
1.840161696129086 0.6345469761049956 0
1.731232322758248 0.4919577451468964 0
-0.6836710084365922 0.6196432805230333 0
3.183671008115447 -0.6196432808872201 0
-0.783646745677699 0.4680138133630236 0
3.283659273945654 -0.4680031166858497 0
-0.9098076639781656 -0.1253065882696114 0
3.409813761116372 0.1253330787691219 0
2.959684940317751 0.7893320405363746 0
-0.4596898094158045 -0.7893221552766783 0
3.115135472508581 0.6742598404310089 0
-0.6151392166341448 -0.674248508933483 0
0.8896585314839098 -0.2529320411943851 0
1.610342993163742 0.2529324843888632 0
0.8788239199551132 0.2436733536360426 0
1.621186385027215 -0.2436669170801985 0
0.3875269251585354 -0.8251784947762523 0
0.2141380857777985 -0.893448034337374 0
2.112471761767948 0.8251843242910595 0
2.285860948035392 0.8934524313387927 0
3.189559854272595 -0.4758702820960375 0
-0.6895398230234543 0.4758890222924049 0
1.735984037542065 -0.05081881685924162 0
0.7640053626534956 0.05298668586967202 0
3.09857710243324 -0.5887724386777338 0
-0.5985575953577077 0.5887875104784119 0
3.368377927524942 -0.3104663772453111 0
-0.8683735586728274 0.3104729271229904 0
0.1291289528140358 -0.8227300048643744 0
2.370869303007281 0.8227437691392749 0
-0.8210294646004128 0.144935530147816 0
3.321042318079295 -0.1448859693905514 0
0.5467670146683732 -0.7556592791133504 0
1.953229424140323 0.7556649683325178 0
-0.8991996378903155 0.223963698918803 0
3.399219527921213 -0.2239638598658633 0
-0.3683131335922062 -0.7542993303926742 0
2.868307444470255 0.7543206338870181 0
1.918944331564277 -0.6186363528093712 0
0.5810753458222007 0.6186415105325356 0
-0.7517783511883513 -0.5470839232459244 0
3.251779534698167 0.5470933930152926 0
-0.935285591439762 0.047044179092691 0
3.435293139353325 -0.04702974397308889 0
2.29787174496308 -0.8188020433259797 0
0.2021588228199437 0.8188066078823582 0
2.457267734669982 -0.8424996868769912 0
0.04277076249890924 0.8425092081833045 0
1.981637803207056 -0.6722412675153855 0
0.5183847107939323 0.6722473189805778 0
2.893411072388365 -0.7507313190000451 0
-0.3933651912576147 0.750749637114851 0
1.224285308159044 0.06418931989243234 0
1.104356082919224 0.06022168011486546 0
2.808525053972923 -0.7914156381372824 0
-0.3084930265384044 0.7914297519803941 0
-0.7914279743146391 0.3203341014296444 0
3.291435132374163 -0.3203241524127089 0
0.6780239970627866 -0.4985360327835431 0
1.821976066768229 0.4985398894767087 0
-0.1374239111303998 -0.9273322906893794 0
2.637423650724306 0.9273381212797911 0
1.734786417952655 -0.1328602934833345 0
0.7652885781232064 0.133371723159594 0
-0.8421111585282588 -0.06056621322861284 0
3.342125287083051 0.06061307271440351 0
1.555721330300125 -0.0002737743512542787 0
1.426158459294841 -0.01357882368742734 0
0.9428108833679094 0.001500791498754296 0
1.075522522943229 -0.01276828326191786 0
-0.8856340139492024 -0.3168849181418782 0
3.385634379757664 0.3168850489554041 0
1.335947752784157 3.672062653947705e-14 0
1.252405419662197 0.003443293255530786 0
1.704109651617593 -0.2711724142016184 0
0.7959090210984338 0.2711795587731731 0
2.975428813988547 -0.7119615167954472 0
-0.4753022816781571 0.7119283962053924 0
1.621474180915882 0.3352166992845099 0
0.04450561449944614 -0.9400531771594057 0
0.8785272252122778 -0.3352169463958732 0
1.715621381840675 -0.3479581935396158 0
2.455493632199752 0.9400618750236753 0
0.7843906757320462 0.3479554227280202 0
-0.3159239444727269 -0.8864211130953378 0
2.815922472811428 0.8864255988911913 0
2.022683240623795 -0.8139206178769658 0
0.4773257675459887 0.8139337862684051 0
-0.2293300812026654 0.9151668990354512 0
2.729333434137358 -0.9151729704344713 0
-0.841683735796806 -0.1490769789686767 0
3.3416969026029 0.1491448433140142 0
0.5733283602539481 -0.6283247802933538 0
1.92667046005532 0.6283323846457798 0
-0.6628523322486273 0.5467969273895726 0
3.162869218085037 -0.5467828685377462 0
-0.8126305647251155 -0.4874440872404833 0
3.312639974475089 0.4874527097225712 0
$EndNodes
$Elements
11 1776 1 1776
1 1 1 15
1 7 11 
2 11 12 
3 12 13 
4 13 14 
5 14 15 
6 15 16 
7 16 17 
8 17 18 
9 18 19 
10 19 20 
11 20 21 
12 21 22 
13 22 23 
14 23 24 
15 24 1 
1 2 1 16
16 1 25 
17 25 26 
18 26 27 
19 27 28 
20 28 29 
21 29 30 
22 30 31 
23 31 32 
24 32 33 
25 33 34 
26 34 35 
27 35 36 
28 36 37 
29 37 38 
30 38 39 
31 39 2 
1 3 1 16
32 2 40 
33 40 41 
34 41 42 
35 42 43 
36 43 44 
37 44 45 
38 45 46 
39 46 47 
40 47 48 
41 48 49 
42 49 50 
43 50 51 
44 51 52 
45 52 53 
46 53 54 
47 54 3 
1 4 1 15
48 3 55 
49 55 56 
50 56 57 
51 57 58 
52 58 59 
53 59 60 
54 60 61 
55 61 62 
56 62 63 
57 63 64 
58 64 65 
59 65 66 
60 66 67 
61 67 68 
62 68 8 
1 5 1 16
63 4 69 
64 69 70 
65 70 71 
66 71 72 
67 72 73 
68 73 74 
69 74 75 
70 75 76 
71 76 77 
72 77 78 
73 78 79 
74 79 80 
75 80 81 
76 81 82 
77 82 83 
78 83 5 
1 6 1 15
79 5 84 
80 84 85 
81 85 86 
82 86 87 
83 87 88 
84 88 89 
85 89 90 
86 90 91 
87 91 92 
88 92 93 
89 93 94 
90 94 95 
91 95 96 
92 96 97 
93 97 9 
1 7 1 15
94 10 98 
95 98 99 
96 99 100 
97 100 101 
98 101 102 
99 102 103 
100 103 104 
101 104 105 
102 105 106 
103 106 107 
104 107 108 
105 108 109 
106 109 110 
107 110 111 
108 111 6 
1 8 1 16
109 6 112 
110 112 113 
111 113 114 
112 114 115 
113 115 116 
114 116 117 
115 117 118 
116 118 119 
117 119 120 
118 120 121 
119 121 122 
120 122 123 
121 123 124 
122 124 125 
123 125 126 
124 126 4 
1 9 1 6
125 9 127 
126 127 128 
127 128 129 
128 129 130 
129 130 131 
130 131 7 
1 10 1 6
131 10 132 
132 132 133 
133 133 134 
134 134 135 
135 135 136 
136 136 8 
2 21 2 1640
137 167 561 562 
138 168 565 566 
139 170 524 772 
140 169 525 773 
141 132 556 859 
142 171 538 576 
143 175 539 577 
144 557 136 861 
145 561 167 563 
146 565 168 567 
147 524 170 830 
148 525 169 831 
149 156 536 707 
150 155 537 709 
151 514 132 859 
152 136 441 861 
153 776 709 839 
154 777 707 838 
155 132 10 556 
156 8 136 557 
157 538 789 836 
158 539 786 837 
159 788 530 836 
160 787 528 837 
161 177 596 791 
162 178 603 792 
163 174 776 839 
164 176 777 838 
165 102 103 772 
166 15 16 773 
167 171 576 720 
168 175 577 723 
169 530 788 838 
170 528 787 839 
171 596 177 850 
172 603 178 851 
173 185 713 796 
174 187 712 797 
175 199 9 439 
176 515 7 532 
177 789 142 836 
178 786 141 837 
179 807 173 866 
180 806 172 867 
181 538 171 789 
182 539 175 786 
183 766 549 808 
184 767 551 810 
185 199 439 858 
186 797 712 812 
187 796 713 813 
188 515 532 860 
189 155 709 776 
190 156 707 777 
191 809 548 820 
192 811 550 821 
193 552 801 828 
194 553 800 829 
195 536 156 737 
196 537 155 736 
197 524 623 772 
198 525 621 773 
199 167 562 790 
200 168 566 793 
201 186 540 780 
202 188 541 781 
203 563 201 589 
204 567 310 588 
205 800 164 829 
206 801 163 828 
207 561 563 589 
208 565 567 588 
209 738 774 803 
210 741 775 802 
211 103 170 772 
212 148 102 772 
213 16 169 773 
214 147 15 773 
215 141 787 837 
216 142 788 836 
217 148 623 764 
218 147 621 765 
219 198 197 545 
220 200 199 544 
221 542 807 866 
222 543 806 867 
223 180 809 820 
224 181 811 821 
225 203 198 545 
226 312 200 544 
227 179 766 808 
228 182 767 810 
229 723 511 841 
230 720 509 840 
231 623 148 772 
232 621 147 773 
233 540 186 817 
234 541 188 816 
235 823 527 827 
236 822 526 826 
237 788 176 838 
238 787 174 839 
239 439 556 858 
240 577 511 723 
241 576 509 720 
242 557 515 860 
243 554 191 725 
244 548 157 549 
245 555 193 727 
246 550 158 551 
247 140 823 827 
248 139 822 826 
249 549 157 808 
250 551 158 810 
251 554 725 745 
252 555 727 744 
253 130 637 844 
254 637 130 845 
255 441 637 861 
256 143 546 725 
257 144 547 727 
258 153 723 841 
259 154 720 840 
260 637 845 861 
261 725 546 745 
262 727 547 744 
263 597 151 884 
264 604 152 885 
265 665 189 856 
266 662 190 857 
267 774 149 803 
268 775 150 802 
269 546 143 724 
270 547 144 726 
271 151 597 824 
272 152 604 825 
273 202 205 589 
274 311 314 588 
275 205 560 589 
276 314 564 588 
277 196 552 738 
278 192 553 741 
279 866 173 873 
280 867 172 875 
281 10 533 556 
282 179 597 766 
283 182 604 767 
284 197 8 557 
285 206 209 631 
286 315 318 628 
287 313 312 568 
288 204 203 569 
289 209 630 631 
290 189 665 834 
291 434 488 629 
292 190 662 835 
293 713 185 848 
294 712 187 849 
295 630 209 683 
296 484 630 683 
297 207 204 569 
298 316 313 568 
299 558 207 569 
300 207 558 572 
301 316 559 574 
302 559 316 568 
303 157 548 809 
304 429 573 650 
305 430 575 651 
306 158 550 811 
307 517 536 737 
308 520 537 736 
309 643 213 685 
310 645 322 684 
311 575 430 625 
312 573 429 624 
313 573 572 650 
314 575 574 651 
315 790 562 850 
316 793 566 851 
317 196 738 803 
318 192 741 802 
319 215 570 578 
320 324 571 580 
321 216 215 578 
322 325 324 580 
323 201 202 589 
324 310 311 588 
325 321 320 714 
326 212 211 715 
327 564 314 628 
328 560 205 631 
329 7 11 165 
330 10 98 166 
331 68 8 138 
332 97 9 137 
333 628 318 629 
334 314 315 628 
335 205 206 631 
336 219 216 578 
337 328 325 580 
338 488 628 629 
339 201 563 804 
340 310 567 805 
341 613 643 685 
342 617 645 684 
343 219 579 582 
344 328 581 583 
345 485 434 629 
346 574 559 651 
347 572 558 650 
348 219 578 579 
349 328 580 581 
350 542 437 854 
351 485 629 670 
352 543 438 855 
353 643 484 683 
354 645 485 670 
355 613 302 642 
356 617 411 644 
357 611 302 613 
358 615 411 617 
359 856 798 882 
360 322 645 670 
361 213 643 683 
362 857 799 883 
363 791 596 884 
364 320 575 714 
365 211 573 715 
366 792 603 885 
367 575 625 714 
368 573 624 715 
369 208 207 572 
370 317 316 574 
371 211 208 572 
372 571 324 714 
373 338 717 722 
374 570 215 715 
375 320 317 574 
376 229 716 721 
377 302 611 634 
378 411 615 635 
379 449 586 699 
380 448 587 698 
381 433 595 596 
382 436 602 603 
383 509 576 590 
384 511 577 591 
385 706 531 707 
386 708 529 709 
387 586 581 699 
388 587 579 698 
389 324 321 714 
390 215 212 715 
391 613 642 643 
392 617 644 645 
393 577 459 591 
394 576 458 590 
395 584 305 592 
396 585 414 599 
397 305 584 593 
398 414 585 600 
399 433 594 595 
400 436 601 602 
401 768 161 769 
402 770 162 771 
403 694 287 743 
404 695 396 742 
405 458 400 590 
406 459 291 591 
407 778 843 847 
408 372 609 632 
409 263 607 633 
410 607 606 633 
411 609 608 632 
412 220 219 582 
413 329 328 583 
414 300 281 594 
415 409 390 601 
416 487 432 598 
417 489 435 605 
418 779 842 846 
419 223 220 582 
420 332 329 583 
421 611 610 634 
422 615 614 635 
423 211 572 573 
424 320 574 575 
425 531 706 711 
426 529 708 710 
427 716 587 721 
428 717 586 722 
429 436 409 601 
430 433 300 594 
431 624 570 715 
432 625 571 714 
433 25 26 155 
434 112 113 156 
435 54 3 143 
436 83 5 144 
437 562 487 598 
438 566 489 605 
439 590 400 648 
440 414 383 599 
441 305 274 592 
442 591 291 649 
443 582 579 587 
444 583 581 586 
445 537 708 709 
446 536 706 707 
447 706 609 711 
448 432 433 598 
449 435 436 605 
450 708 607 710 
451 437 542 866 
452 281 305 594 
453 390 414 601 
454 524 622 623 
455 525 620 621 
456 274 272 592 
457 383 381 599 
458 612 613 685 
459 616 617 684 
460 612 217 667 
461 616 326 666 
462 400 371 648 
463 291 262 649 
464 438 543 867 
465 608 367 632 
466 606 258 633 
467 433 596 598 
468 436 603 605 
469 305 593 594 
470 414 600 601 
471 27 28 183 
472 114 115 184 
473 189 798 856 
474 445 610 611 
475 444 614 615 
476 521 606 607 
477 518 608 609 
478 465 584 592 
479 467 585 599 
480 218 221 667 
481 327 330 666 
482 445 245 610 
483 444 354 614 
484 239 240 241 
485 348 349 350 
486 405 466 467 
487 296 464 465 
488 282 258 606 
489 391 367 608 
490 624 429 646 
491 625 430 647 
492 465 548 549 
493 467 550 551 
494 239 238 240 
495 348 347 349 
496 237 233 238 
497 346 342 347 
498 237 238 239 
499 346 347 348 
500 273 302 634 
501 382 411 635 
502 29 30 145 
503 116 117 146 
504 273 272 274 
505 382 381 383 
506 594 593 595 
507 601 600 602 
508 257 271 272 
509 366 380 381 
510 525 420 620 
511 524 419 622 
512 280 274 281 
513 389 383 390 
514 257 273 634 
515 366 382 635 
516 296 465 592 
517 405 467 599 
518 190 799 857 
519 445 611 612 
520 444 615 616 
521 688 626 691 
522 689 627 690 
523 257 272 273 
524 366 381 382 
525 622 462 623 
526 520 422 521 
527 620 463 621 
528 517 424 518 
529 465 549 584 
530 467 551 585 
531 521 422 606 
532 518 424 608 
533 272 296 592 
534 381 405 599 
535 251 256 257 
536 360 365 366 
537 612 611 613 
538 616 615 617 
539 350 351 370 
540 241 242 261 
541 273 274 280 
542 382 383 389 
543 446 624 646 
544 447 625 647 
545 299 281 300 
546 408 390 409 
547 492 458 538 
548 494 459 539 
549 241 240 242 
550 350 349 351 
551 402 400 458 
552 293 291 459 
553 245 247 610 
554 354 356 614 
555 610 251 634 
556 614 360 635 
557 370 371 400 
558 261 262 291 
559 431 300 432 
560 434 409 435 
561 399 462 622 
562 290 463 620 
563 280 281 299 
564 389 390 408 
565 422 282 606 
566 424 391 608 
567 520 521 537 
568 517 518 536 
569 419 387 622 
570 420 278 620 
571 247 251 610 
572 356 360 614 
573 467 466 550 
574 465 464 548 
575 284 688 691 
576 393 689 690 
577 602 600 604 
578 595 593 597 
579 293 459 494 
580 402 458 492 
581 381 380 405 
582 272 271 296 
583 309 438 618 
584 418 437 619 
585 390 383 414 
586 281 274 305 
587 370 400 402 
588 261 291 293 
589 486 432 487 
590 488 435 489 
591 299 300 431 
592 386 387 419 
593 408 409 434 
594 277 278 420 
595 375 385 386 
596 266 276 277 
597 277 276 278 
598 386 385 387 
599 560 487 561 
600 564 489 565 
601 366 365 380 
602 257 256 271 
603 370 351 371 
604 261 242 262 
605 431 432 486 
606 434 435 488 
607 442 419 508 
608 443 420 510 
609 217 218 667 
610 345 342 346 
611 236 233 237 
612 326 327 666 
613 31 32 186 
614 118 119 188 
615 253 249 626 
616 362 358 627 
617 432 300 433 
618 538 458 576 
619 435 409 436 
620 539 459 577 
621 510 420 525 
622 508 419 524 
623 341 338 342 
624 232 229 233 
625 243 245 445 
626 387 399 622 
627 278 290 620 
628 352 354 444 
629 463 309 618 
630 462 418 619 
631 431 486 630 
632 560 561 589 
633 564 565 588 
634 486 487 560 
635 488 489 564 
636 290 309 463 
637 399 418 462 
638 505 694 743 
639 504 695 742 
640 269 253 626 
641 378 362 627 
642 262 265 266 
643 371 374 375 
644 450 269 626 
645 451 378 627 
646 266 275 276 
647 375 384 385 
648 561 487 562 
649 565 489 566 
650 278 279 290 
651 387 388 399 
652 252 267 640 
653 361 376 641 
654 290 298 309 
655 399 407 418 
656 442 508 509 
657 443 510 511 
658 285 269 450 
659 394 378 451 
660 309 427 438 
661 418 428 437 
662 445 612 667 
663 444 616 666 
664 33 34 159 
665 120 121 160 
666 386 419 442 
667 277 420 443 
668 370 402 659 
669 261 293 658 
670 446 570 624 
671 447 571 625 
672 479 496 507 
673 483 497 506 
674 247 250 251 
675 356 359 360 
676 240 238 448 
677 349 347 449 
678 38 39 139 
679 125 126 140 
680 240 448 652 
681 349 449 653 
682 337 335 338 
683 228 226 229 
684 35 36 185 
685 122 123 187 
686 52 53 191 
687 81 82 193 
688 251 257 634 
689 360 366 635 
690 266 265 275 
691 375 374 384 
692 438 427 474 
693 437 428 475 
694 386 442 648 
695 277 443 649 
696 309 298 427 
697 418 407 428 
698 290 279 298 
699 399 388 407 
700 278 276 279 
701 387 385 388 
702 251 250 256 
703 360 359 365 
704 267 304 640 
705 376 413 641 
706 484 431 630 
707 225 227 655 
708 334 336 654 
709 304 478 479 
710 2 40 189 
711 4 69 190 
712 413 482 483 
713 262 242 265 
714 371 351 374 
715 630 486 631 
716 371 375 648 
717 262 266 649 
718 50 51 163 
719 79 80 164 
720 330 352 666 
721 221 243 667 
722 279 276 646 
723 388 385 647 
724 498 363 656 
725 499 254 657 
726 442 590 648 
727 41 42 161 
728 70 71 162 
729 443 591 649 
730 273 280 302 
731 382 389 411 
732 77 78 192 
733 48 49 196 
734 536 518 706 
735 537 521 708 
736 46 47 149 
737 75 76 150 
738 43 44 194 
739 72 73 195 
740 369 363 498 
741 260 254 499 
742 488 564 628 
743 429 279 646 
744 430 388 647 
745 486 560 631 
746 299 431 484 
747 408 434 485 
748 326 616 684 
749 304 479 640 
750 217 612 685 
751 413 483 641 
752 348 350 372 
753 239 241 263 
754 289 455 674 
755 398 454 673 
756 135 134 636 
757 636 134 638 
758 133 514 638 
759 134 133 638 
760 441 135 636 
761 133 132 514 
762 128 440 639 
763 441 636 637 
764 127 128 639 
765 136 135 441 
766 128 129 440 
767 9 127 439 
768 439 127 639 
769 474 558 569 
770 475 559 568 
771 516 424 517 
772 519 422 520 
773 289 295 455 
774 398 404 454 
775 336 340 654 
776 227 231 655 
777 781 541 868 
778 586 449 722 
779 587 448 721 
780 16 17 169 
781 405 406 466 
782 296 297 464 
783 103 104 170 
784 337 338 341 
785 228 229 232 
786 18 19 153 
787 446 490 570 
788 447 491 571 
789 105 106 154 
790 423 391 424 
791 421 282 422 
792 14 15 147 
793 101 102 148 
794 12 13 172 
795 107 108 171 
796 20 21 175 
797 99 100 173 
798 352 353 354 
799 243 244 245 
800 340 344 452 
801 231 235 453 
802 402 493 659 
803 293 495 658 
804 354 355 356 
805 245 246 247 
806 479 507 705 
807 483 506 704 
808 275 301 446 
809 384 410 447 
810 341 342 345 
811 232 233 236 
812 275 446 646 
813 384 447 647 
814 346 348 632 
815 237 239 633 
816 22 23 141 
817 109 110 142 
818 507 496 554 
819 506 497 555 
820 276 275 646 
821 385 384 647 
822 270 269 285 
823 379 378 394 
824 286 285 287 
825 395 394 396 
826 268 253 269 
827 377 362 378 
828 241 261 658 
829 350 370 659 
830 642 484 643 
831 644 485 645 
832 323 321 324 
833 214 212 215 
834 345 346 367 
835 236 237 258 
836 474 427 558 
837 475 428 559 
838 375 386 648 
839 266 277 649 
840 479 478 496 
841 483 482 497 
842 302 280 642 
843 411 389 644 
844 264 693 705 
845 373 692 704 
846 330 333 352 
847 221 224 243 
848 442 509 590 
849 443 511 591 
850 416 396 417 
851 307 287 308 
852 629 318 670 
853 263 241 658 
854 372 350 659 
855 367 346 632 
856 258 237 633 
857 298 279 429 
858 407 388 430 
859 319 317 320 
860 210 208 211 
861 780 540 869 
862 299 484 642 
863 408 485 644 
864 454 404 456 
865 455 295 457 
866 280 299 642 
867 389 408 644 
868 315 313 316 
869 206 204 207 
870 65 66 167 
871 94 95 168 
872 275 265 301 
873 384 374 410 
874 340 452 654 
875 231 453 655 
876 495 494 528 
877 493 492 530 
878 352 444 666 
879 452 344 504 
880 453 235 505 
881 243 445 667 
882 348 372 632 
883 239 263 633 
884 395 396 416 
885 286 287 307 
886 379 394 395 
887 270 285 286 
888 626 249 691 
889 627 358 690 
890 356 357 359 
891 247 248 250 
892 423 424 516 
893 421 422 519 
894 427 298 650 
895 428 407 651 
896 327 325 328 
897 218 216 219 
898 377 378 379 
899 268 269 270 
900 570 490 578 
901 571 491 580 
902 63 64 177 
903 293 494 495 
904 402 492 493 
905 343 339 363 
906 234 230 254 
907 92 93 178 
908 331 329 332 
909 222 220 223 
910 416 417 461 
911 398 403 404 
912 307 308 460 
913 289 294 295 
914 323 324 325 
915 214 215 216 
916 473 403 522 
917 364 397 398 
918 255 288 289 
919 472 294 523 
920 336 339 340 
921 227 230 231 
922 376 412 413 
923 267 303 304 
924 315 317 318 
925 206 208 209 
926 392 426 500 
927 283 425 502 
928 319 320 321 
929 210 211 212 
930 446 301 490 
931 447 410 491 
932 242 240 652 
933 351 349 653 
934 334 332 335 
935 315 316 317 
936 364 363 369 
937 225 223 226 
938 255 254 260 
939 206 207 208 
940 304 476 478 
941 413 480 482 
942 340 343 344 
943 231 234 235 
944 311 313 314 
945 202 204 205 
946 558 427 650 
947 559 428 651 
948 352 333 353 
949 243 224 244 
950 336 335 337 
951 227 226 228 
952 416 461 513 
953 397 369 401 
954 693 640 705 
955 307 460 512 
956 692 641 704 
957 288 260 292 
958 338 335 717 
959 298 429 650 
960 318 319 670 
961 407 430 651 
962 480 412 481 
963 476 303 477 
964 265 242 652 
965 374 351 653 
966 229 226 716 
967 661 660 662 
968 664 663 665 
969 404 403 473 
970 473 522 527 
971 295 294 472 
972 472 523 526 
973 456 660 661 
974 457 663 664 
975 319 322 670 
976 354 353 355 
977 245 244 246 
978 379 395 415 
979 270 286 306 
980 319 321 322 
981 210 212 213 
982 318 317 319 
983 209 208 210 
984 337 341 656 
985 228 232 657 
986 314 313 315 
987 343 363 364 
988 205 204 206 
989 234 254 255 
990 456 404 660 
991 457 295 663 
992 376 362 377 
993 267 253 268 
994 340 339 343 
995 231 230 234 
996 356 355 357 
997 247 246 248 
998 398 397 403 
999 289 288 294 
1000 501 426 541 
1001 503 425 540 
1002 365 359 373 
1003 256 250 264 
1004 336 337 339 
1005 227 228 230 
1006 334 335 336 
1007 225 226 227 
1008 364 369 397 
1009 255 260 288 
1010 331 332 334 
1011 222 223 225 
1012 322 321 323 
1013 213 212 214 
1014 327 329 330 
1015 218 220 221 
1016 361 358 362 
1017 252 249 253 
1018 413 412 480 
1019 304 303 476 
1020 368 367 391 
1021 392 391 423 
1022 259 258 282 
1023 283 282 421 
1024 482 480 553 
1025 209 210 683 
1026 301 265 652 
1027 478 476 552 
1028 410 374 653 
1029 327 328 329 
1030 218 219 220 
1031 500 426 501 
1032 502 425 503 
1033 404 473 660 
1034 295 472 663 
1035 376 377 412 
1036 322 323 684 
1037 267 268 303 
1038 213 214 685 
1039 361 362 376 
1040 252 253 267 
1041 61 62 151 
1042 90 91 152 
1043 363 339 656 
1044 254 230 657 
1045 353 333 393 
1046 330 331 333 
1047 244 224 284 
1048 221 222 224 
1049 311 312 313 
1050 330 329 331 
1051 202 203 204 
1052 221 220 222 
1053 357 358 361 
1054 248 249 252 
1055 498 656 696 
1056 392 423 426 
1057 283 421 425 
1058 580 491 581 
1059 499 657 697 
1060 578 490 579 
1061 326 325 327 
1062 217 216 218 
1063 339 337 656 
1064 230 228 657 
1065 323 325 326 
1066 214 216 217 
1067 675 401 676 
1068 677 292 678 
1069 405 380 406 
1070 296 271 297 
1071 450 626 688 
1072 451 627 689 
1073 357 355 358 
1074 248 246 249 
1075 233 229 721 
1076 342 338 722 
1077 368 391 392 
1078 259 282 283 
1079 210 213 683 
1080 345 367 368 
1081 236 258 259 
1082 377 379 669 
1083 268 270 668 
1084 364 398 673 
1085 255 289 674 
1086 311 200 312 
1087 202 198 203 
1088 344 343 673 
1089 235 234 674 
1090 522 403 675 
1091 523 294 677 
1092 481 412 669 
1093 477 303 668 
1094 397 401 675 
1095 288 292 677 
1096 423 516 671 
1097 421 519 672 
1098 658 495 710 
1099 659 493 711 
1100 415 679 680 
1101 412 377 669 
1102 306 681 682 
1103 303 268 668 
1104 361 641 692 
1105 252 640 693 
1106 395 416 679 
1107 286 307 681 
1108 416 513 679 
1109 307 512 681 
1110 379 415 669 
1111 270 306 668 
1112 323 326 684 
1113 214 217 685 
1114 343 364 673 
1115 234 255 674 
1116 308 287 694 
1117 417 396 695 
1118 334 654 686 
1119 225 655 687 
1120 426 423 671 
1121 403 397 675 
1122 425 421 672 
1123 294 288 677 
1124 541 426 671 
1125 540 425 672 
1126 415 395 679 
1127 306 286 681 
1128 331 334 686 
1129 222 225 687 
1130 466 406 470 
1131 464 297 468 
1132 195 757 759 
1133 333 331 686 
1134 224 222 687 
1135 652 448 698 
1136 653 449 699 
1137 393 333 686 
1138 284 224 687 
1139 59 60 179 
1140 88 89 182 
1141 493 530 531 
1142 495 528 529 
1143 194 755 758 
1144 609 372 711 
1145 656 341 696 
1146 607 263 710 
1147 657 232 697 
1148 359 357 692 
1149 250 248 693 
1150 448 238 721 
1151 449 347 722 
1152 380 365 700 
1153 271 256 701 
1154 373 359 692 
1155 264 250 693 
1156 341 345 696 
1157 232 236 697 
1158 353 393 690 
1159 244 284 691 
1160 365 373 700 
1161 256 264 701 
1162 355 353 690 
1163 246 244 691 
1164 481 669 702 
1165 477 668 703 
1166 669 415 702 
1167 668 306 703 
1168 357 361 692 
1169 248 252 693 
1170 490 301 698 
1171 491 410 699 
1172 358 355 690 
1173 249 246 691 
1174 301 652 698 
1175 410 653 699 
1176 579 490 698 
1177 581 491 699 
1178 345 368 696 
1179 236 259 697 
1180 470 406 471 
1181 468 297 469 
1182 493 531 711 
1183 495 529 710 
1184 704 506 732 
1185 705 507 733 
1186 470 471 547 
1187 468 469 546 
1188 518 609 706 
1189 521 607 708 
1190 223 582 716 
1191 332 583 717 
1192 406 380 700 
1193 297 271 701 
1194 24 1 174 
1195 111 6 176 
1196 641 483 704 
1197 640 479 705 
1198 392 500 718 
1199 283 502 719 
1200 415 680 702 
1201 306 682 703 
1202 506 555 744 
1203 507 554 745 
1204 731 453 740 
1205 730 452 739 
1206 131 7 515 
1207 263 658 710 
1208 372 659 711 
1209 582 587 716 
1210 583 586 717 
1211 57 58 157 
1212 86 87 158 
1213 401 369 728 
1214 292 260 729 
1215 471 406 700 
1216 469 297 701 
1217 191 554 762 
1218 498 696 718 
1219 499 697 719 
1220 696 368 718 
1221 697 259 719 
1222 718 500 728 
1223 719 502 729 
1224 654 452 730 
1225 655 453 731 
1226 675 676 712 
1227 677 678 713 
1228 676 401 734 
1229 678 292 735 
1230 193 555 763 
1231 522 675 712 
1232 523 677 713 
1233 238 233 721 
1234 347 342 722 
1235 226 223 716 
1236 335 332 717 
1237 310 200 311 
1238 201 198 202 
1239 368 392 718 
1240 259 283 719 
1241 401 728 734 
1242 396 394 742 
1243 292 729 735 
1244 287 285 743 
1245 498 718 728 
1246 499 719 729 
1247 700 373 732 
1248 701 264 733 
1249 552 476 738 
1250 55 56 180 
1251 84 85 181 
1252 553 480 741 
1253 747 455 751 
1254 746 454 750 
1255 369 498 728 
1256 260 499 729 
1257 689 730 739 
1258 688 731 740 
1259 504 344 746 
1260 505 235 747 
1261 689 393 730 
1262 688 284 731 
1263 471 700 732 
1264 469 701 733 
1265 695 504 746 
1266 694 505 747 
1267 468 546 724 
1268 673 454 746 
1269 674 455 747 
1270 470 547 726 
1271 373 704 732 
1272 264 705 733 
1273 393 686 730 
1274 284 687 731 
1275 686 654 730 
1276 687 655 731 
1277 728 500 734 
1278 729 502 735 
1279 739 504 742 
1280 740 505 743 
1281 452 504 739 
1282 453 505 740 
1283 500 501 734 
1284 502 503 735 
1285 532 535 545 
1286 533 534 544 
1287 732 506 744 
1288 733 507 745 
1289 758 512 769 
1290 759 513 771 
1291 476 477 738 
1292 451 739 742 
1293 450 740 743 
1294 517 737 846 
1295 480 481 741 
1296 695 746 750 
1297 694 747 751 
1298 7 165 532 
1299 394 451 742 
1300 10 166 533 
1301 285 450 743 
1302 451 689 739 
1303 450 688 740 
1304 520 736 847 
1305 471 732 744 
1306 138 8 197 
1307 469 733 745 
1308 137 9 199 
1309 344 673 746 
1310 235 674 747 
1311 547 471 744 
1312 546 469 745 
1313 454 456 750 
1314 455 457 751 
1315 750 456 752 
1316 751 457 753 
1317 456 661 752 
1318 457 664 753 
1319 552 196 801 
1320 754 682 755 
1321 756 680 757 
1322 553 192 800 
1323 676 734 748 
1324 678 735 749 
1325 417 750 752 
1326 308 751 753 
1327 623 462 764 
1328 621 463 765 
1329 417 695 750 
1330 308 694 751 
1331 534 166 542 
1332 535 165 543 
1333 461 417 752 
1334 460 308 753 
1335 681 512 758 
1336 679 513 759 
1337 137 200 310 
1338 138 198 201 
1339 755 682 758 
1340 312 544 814 
1341 757 680 759 
1342 203 545 815 
1343 544 199 858 
1344 545 197 860 
1345 734 501 748 
1346 735 503 749 
1347 703 682 754 
1348 584 549 766 
1349 585 551 767 
1350 702 680 756 
1351 859 639 864 
1352 194 758 769 
1353 195 759 771 
1354 597 593 766 
1355 604 600 767 
1356 475 568 814 
1357 474 569 815 
1358 140 662 823 
1359 139 665 822 
1360 682 681 758 
1361 680 679 759 
1362 554 496 762 
1363 462 619 764 
1364 463 618 765 
1365 555 497 763 
1366 514 859 864 
1367 183 778 847 
1368 532 165 535 
1369 533 166 534 
1370 184 779 846 
1371 737 184 846 
1372 752 661 760 
1373 753 664 761 
1374 736 183 847 
1375 738 477 774 
1376 597 179 824 
1377 741 481 775 
1378 604 182 825 
1379 461 752 760 
1380 460 753 761 
1381 138 197 198 
1382 137 199 200 
1383 460 761 768 
1384 461 760 770 
1385 563 167 872 
1386 567 168 870 
1387 703 754 774 
1388 676 748 812 
1389 678 749 813 
1390 702 756 775 
1391 754 149 774 
1392 756 150 775 
1393 164 763 829 
1394 163 762 828 
1395 593 584 766 
1396 600 585 767 
1397 501 541 816 
1398 503 540 817 
1399 548 464 820 
1400 550 466 821 
1401 512 460 768 
1402 513 461 770 
1403 830 783 840 
1404 831 782 841 
1405 724 180 820 
1406 726 181 821 
1407 472 526 822 
1408 473 527 823 
1409 177 790 850 
1410 178 793 851 
1411 665 663 822 
1412 662 660 823 
1413 468 724 820 
1414 470 726 821 
1415 771 162 863 
1416 769 161 862 
1417 478 552 828 
1418 482 553 829 
1419 707 531 838 
1420 709 529 839 
1421 492 538 836 
1422 494 539 837 
1423 512 768 769 
1424 513 770 771 
1425 783 154 840 
1426 782 153 841 
1427 477 703 774 
1428 481 702 775 
1429 598 596 850 
1430 605 603 851 
1431 129 130 844 
1432 130 131 845 
1433 662 140 835 
1434 602 604 885 
1435 595 597 884 
1436 665 139 834 
1437 544 534 814 
1438 545 535 815 
1439 725 191 852 
1440 727 193 853 
1441 1 25 776 
1442 6 112 777 
1443 637 636 865 
1444 25 155 776 
1445 112 156 777 
1446 664 665 856 
1447 661 662 857 
1448 148 764 785 
1449 147 765 784 
1450 183 28 778 
1451 184 115 779 
1452 29 145 778 
1453 116 146 779 
1454 145 30 780 
1455 146 117 781 
1456 31 186 780 
1457 118 188 781 
1458 174 1 776 
1459 176 6 777 
1460 28 29 778 
1461 115 116 779 
1462 186 32 794 
1463 188 119 795 
1464 17 18 782 
1465 104 105 783 
1466 13 14 784 
1467 100 101 785 
1468 21 22 786 
1469 108 109 789 
1470 169 17 782 
1471 170 104 783 
1472 18 153 782 
1473 105 154 783 
1474 14 147 784 
1475 101 148 785 
1476 172 13 784 
1477 33 159 794 
1478 173 100 785 
1479 120 160 795 
1480 175 21 786 
1481 171 108 789 
1482 22 141 786 
1483 109 142 789 
1484 30 31 780 
1485 117 118 781 
1486 159 34 796 
1487 160 121 797 
1488 64 65 790 
1489 93 94 793 
1490 762 496 828 
1491 35 185 796 
1492 122 187 797 
1493 62 63 791 
1494 91 92 792 
1495 32 33 794 
1496 763 497 829 
1497 119 120 795 
1498 12 172 806 
1499 99 173 807 
1500 189 40 798 
1501 190 69 799 
1502 34 35 796 
1503 121 122 797 
1504 65 167 790 
1505 94 168 793 
1506 79 164 800 
1507 50 163 801 
1508 41 161 798 
1509 70 162 799 
1510 754 755 832 
1511 192 78 800 
1512 196 49 801 
1513 77 192 802 
1514 48 196 803 
1515 150 76 802 
1516 149 47 803 
1517 177 64 790 
1518 23 24 787 
1519 110 111 788 
1520 178 93 793 
1521 40 41 798 
1522 69 70 799 
1523 78 79 800 
1524 49 50 801 
1525 67 68 804 
1526 76 77 802 
1527 47 48 803 
1528 96 97 805 
1529 11 12 806 
1530 98 99 807 
1531 63 177 791 
1532 141 23 787 
1533 142 110 788 
1534 92 178 792 
1535 756 757 833 
1536 151 62 791 
1537 152 91 792 
1538 474 815 855 
1539 475 814 854 
1540 58 59 808 
1541 87 88 810 
1542 56 57 809 
1543 85 86 811 
1544 24 174 787 
1545 111 176 788 
1546 59 179 808 
1547 88 182 810 
1548 568 312 814 
1549 569 203 815 
1550 138 201 804 
1551 137 310 805 
1552 157 58 808 
1553 158 87 810 
1554 57 157 809 
1555 86 158 811 
1556 543 165 806 
1557 542 166 807 
1558 712 676 812 
1559 713 678 813 
1560 180 56 809 
1561 181 85 811 
1562 151 791 884 
1563 152 792 885 
1564 123 124 818 
1565 36 37 819 
1566 186 794 817 
1567 188 795 816 
1568 159 796 813 
1569 160 797 812 
1570 533 544 858 
1571 532 545 860 
1572 763 164 877 
1573 762 163 876 
1574 38 139 826 
1575 125 140 827 
1576 61 151 824 
1577 90 152 825 
1578 179 60 824 
1579 182 89 825 
1580 143 725 852 
1581 144 727 853 
1582 139 39 834 
1583 140 126 835 
1584 2 189 834 
1585 4 190 835 
1586 165 11 806 
1587 166 98 807 
1588 46 149 832 
1589 75 150 833 
1590 68 138 804 
1591 97 137 805 
1592 187 123 818 
1593 185 36 819 
1594 757 195 889 
1595 755 194 888 
1596 508 524 830 
1597 510 525 831 
1598 748 501 816 
1599 749 503 817 
1600 437 475 854 
1601 438 474 855 
1602 523 713 848 
1603 522 712 849 
1604 149 754 832 
1605 191 53 852 
1606 193 82 853 
1607 150 756 833 
1608 143 3 871 
1609 144 5 874 
1610 155 26 880 
1611 156 113 881 
1612 27 183 880 
1613 114 184 881 
1614 161 42 862 
1615 162 71 863 
1616 43 194 862 
1617 72 195 863 
1618 52 191 876 
1619 81 193 877 
1620 167 66 872 
1621 168 95 870 
1622 163 51 876 
1623 164 80 877 
1624 154 106 878 
1625 153 19 879 
1626 195 73 889 
1627 194 44 888 
1628 107 171 878 
1629 20 175 879 
1630 464 468 820 
1631 466 470 821 
1632 54 143 852 
1633 83 144 853 
1634 724 143 871 
1635 726 144 874 
1636 736 155 880 
1637 737 156 881 
1638 720 154 878 
1639 171 720 878 
1640 723 153 879 
1641 175 723 879 
1642 183 736 880 
1643 184 737 881 
1644 55 180 871 
1645 84 181 874 
1646 663 472 822 
1647 660 473 823 
1648 180 724 871 
1649 181 726 874 
1650 812 748 887 
1651 813 749 886 
1652 439 639 859 
1653 819 37 826 
1654 818 124 827 
1655 556 439 859 
1656 60 61 824 
1657 89 90 825 
1658 37 38 826 
1659 124 125 827 
1660 515 557 861 
1661 191 762 876 
1662 193 763 877 
1663 496 478 828 
1664 497 482 829 
1665 194 769 862 
1666 195 771 863 
1667 526 819 826 
1668 527 818 827 
1669 45 46 832 
1670 74 75 833 
1671 39 2 834 
1672 126 4 835 
1673 844 637 865 
1674 832 755 888 
1675 530 492 836 
1676 528 494 837 
1677 833 757 889 
1678 531 530 838 
1679 529 528 839 
1680 804 563 872 
1681 805 567 870 
1682 509 508 840 
1683 511 510 841 
1684 815 535 855 
1685 814 534 854 
1686 671 516 842 
1687 672 519 843 
1688 527 522 849 
1689 526 523 848 
1690 843 145 869 
1691 842 146 868 
1692 440 129 844 
1693 842 516 846 
1694 843 519 847 
1695 131 515 845 
1696 67 804 872 
1697 96 805 870 
1698 671 842 868 
1699 672 843 869 
1700 817 794 886 
1701 160 812 887 
1702 816 795 887 
1703 159 813 886 
1704 562 598 850 
1705 566 605 851 
1706 516 517 846 
1707 519 520 847 
1708 53 54 852 
1709 82 83 853 
1710 170 783 830 
1711 169 782 831 
1712 508 830 840 
1713 510 831 841 
1714 534 542 854 
1715 535 543 855 
1716 42 43 862 
1717 71 72 863 
1718 778 145 843 
1719 779 146 842 
1720 864 440 865 
1721 639 440 864 
1722 638 514 864 
1723 638 864 865 
1724 619 437 866 
1725 618 438 867 
1726 556 533 858 
1727 636 638 865 
1728 197 557 860 
1729 541 671 868 
1730 540 672 869 
1731 95 96 870 
1732 66 67 872 
1733 3 55 871 
1734 5 84 874 
1735 51 52 876 
1736 80 81 877 
1737 619 866 873 
1738 618 867 875 
1739 106 107 878 
1740 19 20 879 
1741 596 595 884 
1742 603 602 885 
1743 26 27 880 
1744 113 114 881 
1745 770 760 883 
1746 768 761 882 
1747 760 857 883 
1748 761 856 882 
1749 161 768 882 
1750 162 770 883 
1751 44 45 888 
1752 73 74 889 
1753 761 664 856 
1754 760 661 857 
1755 785 764 873 
1756 784 765 875 
1757 45 832 888 
1758 74 833 889 
1759 764 619 873 
1760 765 618 875 
1761 798 161 882 
1762 799 162 883 
1763 818 527 849 
1764 819 526 848 
1765 845 515 861 
1766 145 780 869 
1767 146 781 868 
1768 173 785 873 
1769 172 784 875 
1770 749 817 886 
1771 748 816 887 
1772 187 818 849 
1773 185 819 848 
1774 794 159 886 
1775 795 160 887 
1776 440 844 865 
$EndElements
